<svg width="1284" height="436" viewBox="0 0 1284 436" fill="none" xmlns="http://www.w3.org/2000/svg">
<g clip-path="url(#clip0_5_11)">
<path d="M61.5616 1.02874C41.9694 3.28222 25.3575 12.3941 14.5109 26.8458C8.74564 34.5371 5.08126 42.3753 2.73605 52.026C-1.9055 71.1317 0.781712 92.6377 9.67395 107.628C20.1785 125.215 37.6698 135.111 62.1479 137.266C71.089 138.05 70.8447 138.246 70.8447 130.065V124.04L69.037 123.697C66.594 123.256 63.0762 121.394 61.4639 119.68C60.731 118.945 59.6561 117.181 59.021 115.858L57.8972 113.409V68.7802V24.2004L59.363 21.2611C61.1219 17.7829 64.1023 15.5784 68.1575 14.6476L70.8447 14.0598V8.08312C70.8447 -0.0490113 70.8447 -0.0490113 61.5616 1.02874Z" fill="#990E0E"/>
<path d="M77.0497 1.32268C76.3657 2.1065 76.2191 3.28223 76.2191 8.18111V14.0598L78.8086 14.6476C91.5118 17.489 102.798 29.8831 107.733 46.3923C110.029 53.9366 112.521 56.3371 118.091 56.3371C121.853 56.3371 124.003 55.1613 125.468 52.418C126.543 50.2625 126.543 50.1155 126.543 28.4625C126.543 7.44627 126.494 6.61346 125.517 4.60492C123.221 -0.146986 114.964 -1.02878 112.081 3.18425C111.544 3.91908 110.518 5.19279 109.785 6.0256C108.515 7.3483 108.221 7.44627 106.12 7.20133C104.85 7.05436 101.088 6.12358 97.7168 5.09481C88.4826 2.35144 83.499 1.12672 80.5675 0.734812C78.32 0.440879 77.7826 0.538857 77.0497 1.32268Z" fill="#990E0E"/>
<path d="M189.326 3.52718C189.229 3.8701 188.496 6.36853 187.714 9.1119L186.248 14.0598L187.616 19.1546C188.398 21.947 192.111 35.6148 195.922 49.4786C205.352 83.8688 206.183 87.004 206.183 87.6409C206.183 88.0328 202.665 88.1798 194.31 88.1798H182.389L180.825 93.8135C179.31 99.3002 179.31 99.4962 180.141 100.672L181.02 101.848L195.385 101.995L209.749 102.142L211.899 109C213.267 113.36 213.951 116.544 213.902 117.818C213.756 119.68 213.609 119.827 210.189 121.737C206.085 123.991 205.254 125.166 205.205 128.498C205.205 130.555 205.45 131.143 206.818 132.515C207.893 133.592 209.163 134.278 210.971 134.67C212.73 135.013 223.088 135.209 243.755 135.209C277.174 135.209 277.711 135.16 280.154 132.221C281.718 130.359 281.864 127.371 280.496 125.117C279.666 123.746 275.122 121.002 273.705 121.002C273.51 121.002 272.679 120.365 271.946 119.582C271.018 118.602 270.187 116.789 269.405 113.801C267.353 106.453 238.918 6.22156 238.38 4.50695L237.843 2.93931H213.707C194.799 2.93931 189.473 3.08628 189.326 3.52718Z" fill="#990E0E"/>
<path d="M299.16 4.11503C296.18 5.53571 295.105 7.25031 295.105 10.5815C295.105 13.7658 297.108 15.6764 301.847 17.0971C303.997 17.7829 305.561 18.5177 305.854 19.1056C306.196 19.6935 306.342 36.8395 306.342 69.0741C306.342 101.309 306.196 118.455 305.854 119.043C305.561 119.631 303.997 120.365 301.847 121.051C297.108 122.472 295.105 124.382 295.105 127.567C295.105 130.653 296.18 132.515 298.672 133.837L300.724 134.964H333.459H366.194L368.197 133.837C370.738 132.368 371.813 130.506 371.813 127.616C371.813 124.382 369.907 122.521 365.119 121.051C362.921 120.414 361.406 119.631 361.064 119.043C360.722 118.455 360.575 99.1532 360.575 61.3339C360.575 6.95638 360.526 4.50694 359.696 3.77211C358.865 3.03728 356.129 2.9393 330.234 2.9393H301.701L299.16 4.11503Z" fill="#990E0E"/>
<path d="M366.78 3.77215C365.754 4.94788 365.412 8.42608 365.803 13.227C366.096 16.6072 366.096 16.6072 367.855 17.1951C372.79 18.8117 376.699 21.898 377.529 24.8863C377.773 25.6211 377.92 33.2634 377.92 41.8854V57.5618L376.699 59.7173C375.331 62.1178 373.034 63.5874 370.005 63.9793C365.559 64.5672 365.95 63.8324 365.95 71.5236V78.382H367.22C371.666 78.382 375.819 81.1254 377.138 84.9955C377.578 86.3182 377.92 91.462 378.164 100.917C378.555 115.956 378.946 118.406 381.487 123.158C383.392 126.783 388.083 131.241 392.187 133.396C397.121 135.993 402.154 137.169 409.434 137.511C423.407 138.099 433.472 134.572 441.973 126.097C445.687 122.423 447.494 119.337 447.836 116.299C448.13 113.458 447.006 111.302 444.514 109.735C440.85 107.53 437.088 108.02 433.619 111.253C432.446 112.331 431.371 113.017 431.273 112.821C431.127 112.576 430.98 107.726 430.98 101.995C430.931 90.5312 430.638 88.3268 428.391 84.1137C425.264 78.333 418.033 73.5811 408.31 70.9847C404.597 70.005 403.571 69.5641 404.304 69.3191C416.909 64.4692 422.674 60.5991 426.681 54.2796C429.759 49.4787 430.589 46.4904 430.834 39.436C431.078 31.9897 430.394 28.6584 427.609 23.3187C424.482 17.342 419.743 12.933 412.561 9.35687C403.766 4.99687 395.9 3.52721 379.142 3.08631C368.148 2.84136 367.611 2.84136 366.78 3.77215Z" fill="#990E0E"/>
<path d="M465.132 3.38019C460.882 4.70289 459.269 6.61345 459.269 10.3366C459.269 13.7658 461.077 15.5784 465.963 17.0971C468.162 17.7339 469.676 18.5177 470.018 19.1056C470.702 20.3793 470.702 117.769 470.018 119.043C469.676 119.631 468.162 120.414 465.963 121.051C461.077 122.57 459.269 124.382 459.269 127.812C459.269 130.898 460.198 132.466 462.885 133.886C464.888 134.964 465.084 134.964 493.959 135.111L523.03 135.258L523.909 134.18C524.691 133.2 524.74 129.722 524.74 76.5694C524.74 38.946 524.886 19.6935 525.228 19.1056C525.521 18.5177 526.89 17.8319 528.551 17.342C532.85 16.1173 534.756 14.9415 535.684 13.031C537.345 9.55278 536.026 6.17255 532.313 4.213C530.407 3.18424 529.772 3.18424 498.356 3.08626C480.767 3.03727 465.816 3.18424 465.132 3.38019Z" fill="#990E0E"/>
<path d="M181.509 27.5317C181.411 27.8746 175.597 45.7065 168.611 67.1146C161.086 90.1393 155.077 107.677 153.953 109.98C150.875 116.201 147.113 119.484 140.468 121.688C136.169 123.06 134.41 125.509 134.996 129.183C135.387 131.388 136.462 132.613 139.247 133.935C141.348 134.915 142.374 134.964 158.692 135.111C176.819 135.258 180.141 135.013 182.437 133.2C184.392 131.682 185.027 128.84 184.001 126.293C183.121 123.942 181.607 122.766 177.112 121.002C171.591 118.847 170.223 117.083 170.614 112.772C170.76 111.498 175.402 96.6548 180.923 79.7537C186.493 62.9016 191.037 48.6458 191.037 48.1559C191.037 47.6661 189.766 42.7672 188.203 37.2315L185.418 27.1888L183.561 27.0418C182.389 26.9438 181.656 27.0908 181.509 27.5317Z" fill="#990E0E"/>
<path d="M565.585 87.3959C562.654 88.4736 561.97 89.5024 559.674 95.9199C556.889 103.807 554.69 107.628 550.244 112.282C545.749 117.034 540.912 119.63 534.365 120.904L530.114 121.737V127.42C530.114 135.993 527.72 135.209 554.153 135.209C574.575 135.209 575.943 135.16 576.676 134.327C577.409 133.494 577.507 131.339 577.458 112.87C577.458 90.7761 577.36 89.7963 574.917 87.9838C573.207 86.71 568.273 86.4161 565.585 87.3959Z" fill="#990E0E"/>
<path d="M114.231 95.0382C112.716 95.871 112.032 96.8508 109.931 101.064C108.563 103.856 106.462 107.334 105.29 108.902C99.9643 115.662 89.8995 121.296 79.1506 123.55L76.2191 124.138V130.898V137.658H79.7858C91.8538 137.609 106.169 130.849 116.82 120.071C121.12 115.711 122.293 114.193 124.003 110.715C127.96 102.729 127.472 97.5856 122.635 94.9892C120.387 93.7645 116.576 93.8135 114.231 95.0382Z" fill="#990E0E"/>
<path d="M319.095 150.2C302.532 152.6 289.535 158.822 279.177 169.207C270.041 178.368 264.813 188.46 261.832 202.716C260.318 209.721 260.22 225.005 261.588 232.207C267.256 262.286 288.167 281.538 320.072 285.898L325.935 286.682L327.156 285.556C328.329 284.478 328.378 284.233 328.231 278.844L328.084 273.308L325.153 272.133C321.489 270.614 320.072 269.536 318.801 267.43C317.824 265.813 317.824 264.882 317.824 218C317.824 171.118 317.824 170.187 318.801 168.57C320.072 166.464 321.489 165.386 325.153 163.867L328.084 162.692L328.231 157.205C328.329 152.11 328.28 151.62 327.303 150.591C326.081 149.269 325.593 149.22 319.095 150.2Z" fill="#990E0E"/>
<path d="M334.583 150.249C333.801 151.081 333.508 154.56 333.654 160.732L333.703 162.937L336.293 163.769C339.371 164.749 342.4 167.15 343.279 169.305C343.866 170.677 343.963 179.103 343.963 217.853C343.963 262.923 343.915 264.882 343.035 266.842C341.911 269.242 339.078 271.496 335.902 272.378L333.703 273.014L333.654 275.758C333.41 286.731 333.557 286.878 340.348 286.094C372.399 282.322 394.434 262.58 400.004 232.697C401.226 226.132 401.226 209.868 400.004 203.303C394.874 175.821 375.721 156.715 347.677 151.179C338.687 149.367 335.56 149.171 334.583 150.249Z" fill="#990E0E"/>
<path d="M803.721 149.759C802.5 149.857 799.764 150.249 797.614 150.689C770.253 155.931 754.325 173.224 755.498 196.445C756.475 215.257 767.566 226.916 794.438 237.498C797.272 238.624 803.624 240.976 808.607 242.788C819.307 246.609 823.558 248.716 826.734 251.851C829.665 254.693 830.447 257.24 829.665 260.963C828.541 265.911 823.265 269.928 814.812 272.182L811.588 273.063L811.441 278.697C811.294 283.645 811.392 284.478 812.223 285.507C813.151 286.682 813.298 286.682 817.353 286.388C832.157 285.262 845.007 280.755 855.072 273.112C866.798 264.294 872.856 251.508 871.977 237.596C870.999 222.556 862.987 211.925 845.642 202.814C840.023 199.874 835.772 198.16 823.998 194.142C811.783 190.027 803.721 186.108 800.692 182.826C797.028 178.907 796.49 175.086 799.031 170.726C800.594 168.129 804.943 165.092 809.047 163.818L812.027 162.888V157.205C812.027 149.171 811.93 149.122 803.721 149.759Z" fill="#990E0E"/>
<path d="M818.281 150.347C817.548 151.228 817.402 152.404 817.402 157.156V162.937L820.04 163.476C832.45 166.072 844.469 176.605 847.694 187.627C848.183 189.391 848.72 191.399 848.867 192.085C850.43 199.384 861.668 201.05 865.283 194.485L866.505 192.281L866.358 173.665C866.211 153.384 866.211 153.433 863.28 151.277C861.863 150.2 858.638 149.612 856.684 150.102C856 150.298 854.095 151.669 852.58 153.139C851.016 154.609 849.355 155.833 848.867 155.882C848.329 155.882 844.763 154.902 840.854 153.678C832.841 151.179 828.053 150.102 822.776 149.661C819.454 149.367 819.014 149.416 818.281 150.347Z" fill="#990E0E"/>
<path d="M945.46 150.2C917.953 154.217 898.165 169.991 890.494 193.995C887.758 202.569 887.025 207.663 887.074 218.245C887.074 228.484 887.66 232.746 890.25 241.27C893.377 251.459 898.067 259.347 905.543 266.793C916.194 277.472 929.141 283.547 946.437 285.898L952.3 286.682L953.522 285.556C954.694 284.478 954.743 284.233 954.596 278.844L954.45 273.308L951.518 272.133C947.854 270.614 946.437 269.536 945.167 267.43C944.19 265.813 944.19 264.882 944.19 217.951V170.187L945.558 168.08C946.828 166.121 949.808 164.308 953.864 162.937C954.596 162.692 954.694 161.957 954.694 157.107C954.694 151.914 954.596 151.473 953.57 150.493C952.3 149.269 951.86 149.269 945.46 150.2Z" fill="#990E0E"/>
<path d="M960.948 150.249C960.166 151.13 959.922 153.678 960.02 160.438L960.069 162.888L962.414 163.72C965.345 164.798 967.739 166.366 969.059 168.178C970.085 169.55 970.085 169.746 970.231 216.187C970.329 241.858 970.231 263.804 970.085 265.029C969.645 268.018 966.616 270.957 962.805 272.182L960.069 273.063L960.02 275.758C959.873 286.339 960.117 286.878 964.954 286.388C966.713 286.192 970.769 285.507 974.042 284.87C998.764 279.873 1016.3 264.931 1023.78 242.445C1026.27 235.048 1027.1 229.757 1027.35 219.715C1027.54 212.268 1027.44 209.966 1026.56 204.822C1021.73 176.213 1002.77 156.862 974.042 151.179C965.052 149.367 961.925 149.171 960.948 150.249Z" fill="#990E0E"/>
<path d="M177.063 152.306C172.031 153.531 169.588 157.989 171.689 162.104C172.666 163.916 173.985 164.749 178.236 166.072C180.336 166.758 181.998 167.591 182.291 168.08C182.584 168.668 182.731 186.451 182.633 217.363L182.486 265.764L181.411 267.822C180.239 269.977 178.333 271.594 175.89 272.427L174.425 272.965V279.824V286.682L185.076 286.437C200.222 286.143 208.674 284.429 218.397 279.628C222.794 277.472 224.163 276.444 227.729 272.867C232.224 268.36 234.276 264.882 235.84 259.102C236.573 256.26 236.719 251.655 236.915 212.121C237.11 188.019 237.403 167.982 237.599 167.689C237.794 167.346 239.553 166.562 241.507 165.974C246.393 164.504 248.201 162.692 248.201 159.262C248.201 156.176 247.273 154.609 244.585 153.188C242.582 152.11 242.533 152.11 210.58 152.012C192.991 151.963 177.894 152.11 177.063 152.306Z" fill="#990E0E"/>
<path d="M425.068 152.306C420.72 153.678 419.205 155.392 419.205 159.115C419.205 161.467 419.401 161.957 420.818 163.329C421.893 164.406 423.505 165.288 425.899 166.023C428.098 166.66 429.612 167.444 429.954 168.031C430.638 169.305 430.638 266.695 429.954 267.969C429.612 268.556 428.147 269.34 426.046 269.977C422.088 271.153 420.329 272.427 419.401 274.631C418.131 277.717 419.499 281.049 422.821 282.812C424.824 283.89 424.922 283.89 456.973 284.037C488.926 284.184 489.073 284.135 491.516 283.106C494.154 281.979 495.913 280.02 495.913 278.256C495.913 277.717 496.157 277.374 496.402 277.521C496.695 277.668 496.89 278.305 496.89 278.844C496.89 280.51 499.968 283.008 502.851 283.645C504.708 284.037 514.626 284.135 536.71 284.037C567.833 283.89 567.979 283.89 569.983 282.812C572.67 281.391 573.598 279.824 573.598 276.738C573.598 273.308 571.79 271.496 566.905 269.977C564.706 269.34 563.191 268.556 562.849 267.969C562.165 266.695 562.165 169.305 562.849 168.031C563.191 167.444 564.706 166.66 566.905 166.023C571.79 164.504 573.598 162.692 573.598 159.262C573.598 156.176 572.67 154.609 569.983 153.188L567.979 152.11H535.244H502.509L500.506 153.188C498.307 154.364 496.89 156.176 496.89 157.744C496.89 158.283 496.695 158.724 496.402 158.724C496.157 158.724 495.913 158.283 495.913 157.744C495.913 156.176 494.496 154.364 492.298 153.188C490.294 152.11 490.197 152.11 458.292 152.012C440.703 151.963 425.752 152.11 425.068 152.306ZM496.89 160.732C496.89 162.594 499.773 164.847 503.584 166.023C505.783 166.66 507.297 167.444 507.639 168.031C507.932 168.619 508.128 176.458 508.128 189.538V210.162H499.968C489.659 210.162 490.05 209.868 490.05 216.922C490.05 224.173 489.61 223.879 499.92 223.879H508.128V245.483C508.128 259.249 507.932 267.381 507.639 267.969C507.297 268.556 505.783 269.34 503.584 269.977C499.773 271.153 496.89 273.406 496.89 275.268C496.89 275.856 496.695 276.297 496.402 276.297C496.157 276.297 495.913 275.856 495.913 275.268C495.913 273.406 493.031 271.153 489.22 269.977C487.021 269.34 485.506 268.556 485.164 267.969C484.822 267.381 484.676 250.529 484.676 218C484.676 185.471 484.822 168.619 485.164 168.031C485.506 167.444 487.021 166.66 489.22 166.023C493.031 164.847 495.913 162.594 495.913 160.732C495.913 160.144 496.157 159.703 496.402 159.703C496.695 159.703 496.89 160.144 496.89 160.732Z" fill="#990E0E"/>
<path d="M601.594 152.355C597.099 153.286 595.096 155.343 595.096 159.213C595.096 163.231 596.659 164.749 602.62 166.562C604.281 167.101 606.431 168.031 607.311 168.619C608.337 169.354 612.783 175.331 619.281 184.688C624.948 192.918 634.476 206.684 640.485 215.306C646.446 223.928 659.638 242.935 669.752 257.534L688.171 284.135H704.099C718.952 284.135 720.076 284.086 720.858 283.253C721.59 282.42 721.639 280.167 721.737 261.061L721.835 239.751L717.486 233.382C713.822 228.043 691.054 195.024 667.455 160.83L661.299 151.865L632.473 151.914C616.643 151.963 602.718 152.159 601.594 152.355Z" fill="#990E0E"/>
<path d="M695.5 152.306C692.031 153.139 690.077 154.804 689.393 157.352C688.953 158.92 689.051 159.605 689.832 161.418C690.712 163.426 691.152 163.769 695.353 165.827C700.435 168.374 701.656 169.354 703.366 172.195C705.614 176.066 706.005 179.348 706.005 195.122V209.672L712.21 218.98C716.167 224.907 718.659 228.288 719.196 228.288C719.636 228.288 720.418 227.847 720.906 227.308C721.688 226.426 721.786 224.613 721.835 202.715C721.932 179.593 721.981 178.956 723.056 175.723C724.571 171.069 727.062 168.423 732.144 166.023C737.372 163.622 738.495 162.349 738.495 158.968C738.495 156.715 738.3 156.127 737.03 154.804C734.44 152.061 732.632 151.865 713.871 151.914C704.588 151.963 696.331 152.11 695.5 152.306Z" fill="#990E0E"/>
<path d="M1048.16 152.355C1043.67 153.286 1041.66 155.392 1041.66 159.164C1041.66 163.133 1043.32 164.749 1049.09 166.562C1050.85 167.101 1053 168.031 1053.88 168.619C1054.9 169.305 1059.25 175.135 1065.31 183.953C1075.18 198.209 1087.34 215.795 1099.12 232.697C1113.83 253.909 1121.45 264.931 1127.9 274.239L1134.74 284.135H1150.67C1166.25 284.135 1166.59 284.135 1167.52 283.106C1168.4 282.126 1168.45 281.098 1168.35 260.865L1168.3 239.604L1166.2 236.518C1164.44 233.97 1141.58 200.756 1114.02 160.83L1107.87 151.865L1079.04 151.914C1063.21 151.963 1049.28 152.159 1048.16 152.355Z" fill="#990E0E"/>
<path d="M1142.07 152.306C1138.06 153.286 1135.76 155.833 1135.86 159.066C1136.01 162.202 1137.13 163.475 1141.97 165.876C1147 168.374 1148.22 169.354 1149.93 172.195C1152.18 176.066 1152.57 179.348 1152.57 195.122V209.721L1158.78 218.98C1162.73 224.956 1165.23 228.288 1165.76 228.288C1166.2 228.288 1166.98 227.847 1167.42 227.357C1168.21 226.475 1168.3 224.32 1168.45 202.715C1168.65 180.279 1168.69 178.858 1169.67 175.674C1171.09 171.118 1173.58 168.423 1178.71 166.023C1183.94 163.622 1185.06 162.349 1185.06 158.968C1185.06 156.715 1184.87 156.127 1183.6 154.804C1181.01 152.061 1179.2 151.865 1160.44 151.914C1151.15 151.963 1142.9 152.11 1142.07 152.306Z" fill="#990E0E"/>
<path d="M611.708 184.933C611.219 185.52 611.073 193.702 610.975 221.037C610.877 255.623 610.877 256.554 609.851 259.64C608.581 263.462 606.48 266.989 604.575 268.311C603.793 268.85 601.692 269.977 599.933 270.761C596.073 272.524 594.607 274.239 594.607 276.884C594.607 279.579 595.78 281.489 598.174 282.763C600.177 283.89 600.47 283.89 618.792 283.89C636.381 283.89 637.456 283.841 639.264 282.91C641.805 281.636 643.026 279.922 643.124 277.423C643.222 274.239 642.244 273.014 637.847 270.81C633.254 268.507 631.105 266.646 629.492 263.462C627.001 258.514 626.854 257.044 626.854 228.68V202.373L620.698 193.261C615.714 185.863 614.346 184.198 613.467 184.198C612.832 184.198 612.05 184.541 611.708 184.933Z" fill="#990E0E"/>
<path d="M1058.32 184.884C1057.93 185.373 1057.79 194.877 1057.79 219.862C1057.79 252.096 1057.74 254.399 1056.81 257.828C1055 265.029 1053 267.675 1047.28 270.369C1042.59 272.622 1041.17 274.141 1041.17 276.884C1041.17 279.579 1042.2 281.244 1044.69 282.665L1046.79 283.89H1065.36C1082.95 283.89 1084.02 283.841 1085.83 282.91C1088.37 281.636 1089.59 279.922 1089.69 277.423C1089.79 274.239 1088.81 273.014 1084.41 270.81C1079.82 268.507 1077.67 266.646 1076.06 263.462C1073.47 258.367 1073.42 257.583 1073.42 228.924V202.373L1067.26 193.261C1062.28 185.863 1060.91 184.198 1060.03 184.198C1059.4 184.198 1058.62 184.492 1058.32 184.884Z" fill="#990E0E"/>
<path d="M148.236 231.668C135.778 233.676 126.592 243.131 126.543 254.056C126.494 269.389 140.224 281.587 161.917 285.457C166.168 286.192 166.51 286.192 167.731 285.36C169.05 284.527 169.05 284.478 169.05 278.55V272.573L165.777 271.594L162.454 270.614L165.63 268.948C169.734 266.695 173.399 263.07 175.206 259.395C176.428 256.799 176.623 255.917 176.623 252.047C176.623 248.128 176.477 247.295 175.109 244.405C170.858 235.489 159.23 229.953 148.236 231.668Z" fill="#990E0E"/>
<path d="M760.97 233.676C759.163 234.215 757.599 235.636 756.475 237.742C755.694 239.163 755.596 241.172 755.596 259.885C755.596 279.579 755.645 280.51 756.573 282.126C757.843 284.282 759.602 285.556 761.801 285.898C764.928 286.437 766.931 285.702 769.716 283.155C773.722 279.579 774.846 279.53 783.934 282.91C789.015 284.821 793.999 285.898 799.715 286.388C803.428 286.682 803.868 286.633 804.894 285.653C805.529 285.066 805.969 284.135 805.871 283.498C805.822 282.91 805.725 280.314 805.725 277.717L805.676 273.063L802.158 272.231C789.943 269.291 778.804 258.073 774.651 244.552C772.745 238.281 771.622 236.273 769.325 234.901C767.029 233.578 763.169 232.991 760.97 233.676Z" fill="#990E0E"/>
<path d="M616.105 298.685C607.262 299.566 598.711 301.771 591.774 305.004C568.615 315.635 554.495 337.631 553.224 364.917C551.612 400.875 570.374 426.545 603.5 433.551C605.991 434.089 611.073 434.775 614.737 435.118C623.678 435.902 623.434 436.098 623.434 427.917V421.891L621.626 421.548C619.183 421.107 615.665 419.246 614.053 417.531C613.32 416.796 612.245 415.033 611.61 413.71L610.486 411.261V366.632V322.052L611.952 319.113C613.711 315.635 616.691 313.43 620.747 312.499L623.434 311.911V305.935C623.434 298.097 623.287 297.95 616.105 298.685Z" fill="#990E0E"/>
<path d="M629.639 299.174C628.955 299.958 628.808 301.134 628.808 306.033V311.911L631.398 312.499C644.101 315.341 655.387 327.735 660.322 344.244C662.618 351.788 665.11 354.189 670.68 354.189C674.442 354.189 676.592 353.013 678.058 350.27C679.132 348.114 679.132 347.967 679.132 326.265C679.132 306.033 679.035 304.318 678.204 302.457C676.054 297.754 667.504 296.872 664.67 301.036C664.133 301.771 663.107 303.044 662.374 303.877C661.104 305.2 660.811 305.298 658.71 305.053C657.439 304.906 653.677 303.975 650.306 302.947C641.072 300.203 636.088 298.978 633.157 298.587C630.909 298.293 630.372 298.391 629.639 299.174Z" fill="#990E0E"/>
<path d="M753.153 298.88C741.964 300.84 735.026 302.898 728.773 306.033C713.236 313.822 702.194 326.657 697.015 342.921C694.279 351.494 693.546 356.589 693.546 367.171C693.595 374.764 693.79 377.507 694.669 381.965C697.552 396.417 703.366 407.489 713.04 416.796C723.3 426.643 736.346 432.571 752.958 434.824L758.821 435.608L760.042 434.481C761.215 433.404 761.263 433.159 761.117 427.77L760.97 422.234L758.234 421.107C754.668 419.638 752.616 418.168 751.541 416.258C750.759 414.788 750.71 411.31 750.71 366.926C750.71 320.044 750.71 319.113 751.687 317.496C752.958 315.39 754.374 314.312 758.039 312.793L760.97 311.618L761.117 306.131C761.215 301.036 761.166 300.546 760.189 299.517C759.016 298.244 757.55 298.097 753.153 298.88Z" fill="#990E0E"/>
<path d="M767.078 299.664C766.198 300.791 766.052 301.428 766.296 303.485C766.442 304.808 766.589 307.257 766.589 308.923V311.862L769.178 312.695C772.305 313.675 775.188 315.977 776.116 318.28C776.752 319.75 776.849 326.657 776.849 366.632C776.849 397.25 776.654 413.857 776.361 415.033C775.677 417.384 772.989 419.687 769.227 421.107L766.345 422.185L766.54 427.966C766.736 435.412 766.98 435.755 771.475 435.314C773.234 435.118 777.289 434.432 780.563 433.795C809.291 428.015 828.248 408.664 833.036 380.349C834.844 369.62 834.111 355.364 831.278 345.469C826.196 327.735 815.447 314.655 799.324 306.474C791.8 302.653 784.618 300.497 774.846 299.076C768.201 298.146 768.299 298.146 767.078 299.664Z" fill="#990E0E"/>
<path d="M1215.6 298.684C1194.54 300.742 1177.78 310.589 1170.94 324.942C1167.86 331.311 1167.03 335.377 1167.03 343.411C1166.98 349.486 1167.18 351.053 1168.16 354.189C1170.89 363.056 1175.68 369.424 1183.94 375.254C1191.36 380.496 1198.79 383.974 1216.72 390.44C1230.26 395.388 1234.85 397.593 1237.93 400.581C1240.96 403.569 1241.79 406.068 1241 409.742C1239.98 414.69 1235.83 418.07 1227.47 420.667L1222.93 422.038V427.966C1222.93 435.951 1222.83 435.853 1230.7 435.118C1241.3 434.089 1249.6 431.738 1257.62 427.623C1275.01 418.658 1284.29 404.108 1283.36 387.06C1283.07 381.475 1281.95 376.92 1279.85 372.755C1273.64 360.263 1261.33 351.935 1237.1 343.656C1223.22 338.953 1215.26 335.132 1212.08 331.752C1208.42 327.833 1207.88 324.012 1210.42 319.652C1211.98 317.055 1216.33 314.018 1220.44 312.744L1223.42 311.813V305.886C1223.42 298.048 1223.27 297.901 1215.6 298.684Z" fill="#990E0E"/>
<path d="M1229.67 299.174C1228.94 299.958 1228.79 301.085 1228.79 305.984V311.813L1232.36 312.646C1234.26 313.136 1237.88 314.508 1240.27 315.684C1250.09 320.582 1257.18 328.764 1259.52 338.169C1260.06 340.227 1260.84 342.529 1261.23 343.362C1262.8 346.351 1266.66 347.918 1270.86 347.281C1273.84 346.84 1275.5 345.665 1276.77 343.264C1277.7 341.354 1277.75 340.472 1277.75 322.738C1277.7 305.739 1277.6 304.024 1276.82 302.653C1275.55 300.448 1273.69 299.272 1271.1 298.978C1268.12 298.635 1265.53 299.811 1263.48 302.359C1262.6 303.436 1261.48 304.465 1260.89 304.661C1260.25 304.906 1257.91 304.416 1254 303.142C1245.74 300.448 1239 298.88 1234.41 298.537C1230.94 298.244 1230.4 298.342 1229.67 299.174Z" fill="#990E0E"/>
<path d="M261.881 301.232C257.631 302.555 256.018 304.465 256.018 308.188C256.018 311.618 257.875 313.528 262.761 314.949C264.911 315.635 266.474 316.369 266.767 316.957C267.109 317.545 267.256 334.74 267.256 367.122C267.256 415.866 267.256 416.356 266.279 417.286C265.741 417.776 263.933 418.56 262.272 419.05C260.269 419.589 258.754 420.422 257.679 421.499C256.214 422.969 256.018 423.459 256.018 425.663C256.018 428.75 256.947 430.317 259.634 431.738L261.637 432.816H294.372H327.107L329.111 431.689C331.651 430.219 332.726 428.358 332.726 425.467C332.726 422.234 330.772 420.324 325.984 418.903C323.834 418.217 322.27 417.482 321.977 416.894C321.635 416.307 321.489 396.662 321.489 359.186C321.489 304.808 321.44 302.359 320.609 301.624C319.779 300.889 317.091 300.791 291.392 300.84C275.855 300.84 262.565 301.036 261.881 301.232Z" fill="#990E0E"/>
<path d="M327.742 301.624C327.01 302.408 326.863 303.534 326.863 308.482V314.41L329.453 315.243C333.019 316.418 336.39 318.77 337.71 321.121C338.785 323.032 338.833 323.473 338.98 337.778C339.175 354.532 338.931 356.785 336.439 359.235C334.827 360.851 331.944 362.027 329.599 362.027C326.716 362.027 326.619 362.272 326.765 369.522L326.912 376.087L329.355 376.381C332.531 376.773 334.974 377.948 336.39 379.859C338.589 382.7 339.078 386.178 339.078 398.279C339.127 411.016 339.713 415.474 342.058 420.275C345.185 426.692 352.025 431.836 360.429 434.138C365.51 435.51 378.897 435.657 384.516 434.383C392.431 432.571 402.056 426.251 406.307 419.981C409.922 414.69 409.629 410.477 405.574 407.733C402.007 405.333 398.099 405.823 394.483 409.154C392.969 410.526 392.285 410.918 392.089 410.477C391.991 410.085 391.796 404.598 391.747 398.23L391.6 386.717L389.744 382.994C386.47 376.283 379.679 371.629 369.223 368.836C365.51 367.857 364.484 367.416 365.217 367.171C374.549 363.546 377.187 362.174 381.585 358.794C386.128 355.218 389.548 349.976 391.112 344.097C392.138 340.325 392.089 331.556 391.063 327.539C389.744 322.493 387.154 318.084 383.05 314.018C378.604 309.609 373.963 306.866 366.927 304.514C359.696 302.114 353.393 301.281 340.055 300.938C329.062 300.693 328.524 300.693 327.742 301.624Z" fill="#990E0E"/>
<path d="M421.013 301.379C419.987 301.673 418.375 302.653 417.447 303.583C415.932 305.053 415.785 305.494 415.785 307.943C415.785 310.393 415.981 310.883 417.398 312.254C418.473 313.332 420.085 314.214 422.479 314.949C424.678 315.586 426.192 316.369 426.534 316.957C427.218 318.231 427.218 415.621 426.534 416.894C426.192 417.482 424.678 418.266 422.479 418.903C417.593 420.422 415.785 422.234 415.785 425.663C415.785 428.75 416.714 430.317 419.401 431.738C421.404 432.816 421.6 432.816 450.426 432.963C477.054 433.061 479.497 433.012 480.327 432.277C481.207 431.444 481.256 429.24 481.256 366.926C481.256 305.053 481.207 302.359 480.376 301.624C479.546 300.889 476.858 300.791 451.159 300.84C433.716 300.889 422.137 301.085 421.013 301.379Z" fill="#990E0E"/>
<path d="M487.461 301.673C486.777 302.408 486.63 303.681 486.63 308.482V314.361L490.197 314.949C500.017 316.565 506.564 319.75 512.574 325.726C516.238 329.449 517.069 330.576 519.512 335.671C522.932 342.774 523.665 343.411 528.404 343.411C531.238 343.411 532.215 343.215 533.583 342.284C536.466 340.325 536.466 340.423 536.466 320.827V302.898L535.342 301.869C534.218 300.791 534.169 300.791 511.206 300.791C489.562 300.791 488.194 300.84 487.461 301.673Z" fill="#990E0E"/>
<path d="M856.537 301.428C854.437 302.114 851.798 304.71 851.505 306.425C851.065 308.531 851.945 311.226 853.459 312.597C854.241 313.283 856.44 314.361 858.345 314.949C860.495 315.586 862.01 316.369 862.352 316.957C863.036 318.231 863.036 415.621 862.352 416.894C862.058 417.482 860.495 418.217 858.345 418.903C853.459 420.324 851.603 422.234 851.603 425.663C851.603 428.75 852.531 430.317 855.218 431.738L857.221 432.816H889.957H922.692L924.695 431.689C927.236 430.219 928.311 428.358 928.311 425.467C928.311 422.332 926.405 420.373 921.715 418.903C919.858 418.315 918.001 417.433 917.708 416.992C917.22 416.404 917.073 404.108 917.073 359.333C917.073 304.808 917.024 302.359 916.194 301.624C915.363 300.889 912.676 300.791 886.732 300.84C867.677 300.889 857.661 301.085 856.537 301.428Z" fill="#990E0E"/>
<path d="M923.327 301.575C922.643 302.359 922.496 303.681 922.399 308.384L922.301 314.263L925.379 315.39C929.288 316.81 931.877 318.672 933.294 321.121C934.369 323.032 934.418 323.473 934.564 337.68C934.76 354.434 934.467 356.785 932.024 359.235C930.411 360.851 927.529 362.027 925.232 362.027C922.447 362.027 922.447 362.076 922.447 369.424V376.234H923.815C925.819 376.234 928.848 377.213 930.46 378.34C931.242 378.879 932.415 380.545 933.147 382.063C934.369 384.758 934.418 385.052 934.711 398.769C934.955 409.546 935.199 413.416 935.835 415.621C938.326 424.635 945.606 431.297 956.013 434.138C961.094 435.51 974.482 435.657 980.1 434.383C988.015 432.571 997.641 426.251 1001.89 419.981C1005.51 414.69 1005.21 410.477 1001.16 407.733C997.592 405.333 993.683 405.823 990.116 409.105C988.944 410.183 987.869 410.869 987.722 410.575C987.527 410.33 987.429 405.382 987.478 399.601C987.527 388.187 987.283 386.521 984.84 381.965C981.81 376.185 974.775 371.58 964.905 368.885C961.143 367.857 960.068 367.416 960.801 367.171C972.967 362.566 978.732 358.745 982.934 352.621C986.208 347.82 988.357 339.149 987.673 333.222C986.305 321.317 980.394 312.989 969.547 307.453C960.655 302.898 952.495 301.33 935.883 300.938C924.793 300.693 924.109 300.693 923.327 301.575Z" fill="#990E0E"/>
<path d="M1014.55 301.232C1010.64 302.212 1008.93 304.269 1008.93 307.992C1008.93 310.393 1009.12 310.883 1010.54 312.303C1011.66 313.43 1013.23 314.214 1015.67 314.998C1018.55 315.831 1019.33 316.271 1019.68 317.251C1020.36 319.015 1020.31 415.67 1019.68 416.894C1019.33 417.482 1017.82 418.266 1015.62 418.903C1013.23 419.638 1011.61 420.52 1010.54 421.597C1009.12 422.969 1008.93 423.459 1008.93 425.859C1008.93 428.848 1009.9 430.562 1012.49 431.983C1013.91 432.718 1016.65 432.816 1043.32 432.963C1070.24 433.11 1072.64 433.012 1073.47 432.277C1074.35 431.444 1074.4 429.338 1074.4 366.926C1074.4 305.053 1074.35 302.359 1073.52 301.624C1072.69 300.889 1070 300.791 1044.3 300.84C1028.76 300.889 1015.38 301.036 1014.55 301.232Z" fill="#990E0E"/>
<path d="M1079.77 307.502V314.41L1082.07 314.753C1087.1 315.488 1090.47 318.035 1091.99 322.199C1092.96 324.796 1093.35 405.333 1092.43 409.742C1091.35 414.984 1087.64 418.364 1082.21 419.099L1079.77 419.442V425.418C1079.77 433.257 1079.82 433.355 1086.22 432.865C1104.15 431.64 1120.13 424.978 1131.81 413.857C1139.28 406.754 1144.22 399.062 1147.39 389.461C1149.69 382.406 1150.32 377.067 1149.98 367.073C1149.44 351.837 1145.73 339.198 1138.5 327.98C1135.57 323.473 1126.92 314.802 1122.28 311.813C1111.87 305.053 1100.24 301.526 1086.27 300.938L1079.77 300.644V307.502Z" fill="#990E0E"/>
<path d="M507.395 337.484C504.024 338.316 502.46 340.325 500.066 346.987C498.21 352.229 494.008 356.344 489.122 357.814L486.874 358.451L486.728 365.358L486.581 372.217L489.22 373C494.594 374.568 497.965 378.193 500.701 385.444C502.998 391.518 505.05 393.38 509.349 393.38C512.281 393.38 514.773 392.155 515.848 390.244C516.58 388.873 516.678 386.472 516.678 365.211C516.678 342.921 516.629 341.648 515.75 340.325C514.137 337.973 510.473 336.7 507.395 337.484Z" fill="#990E0E"/>
<path d="M1172.31 382.602C1169.92 383.337 1167.81 385.835 1167.23 388.677C1166.84 390.342 1166.74 397.495 1166.84 410.281C1166.98 431.346 1166.98 431.297 1170.16 433.551C1173.53 435.951 1177.44 435.461 1181.15 432.081C1184.96 428.603 1185.7 428.554 1194.49 431.542C1201.53 433.942 1209 435.51 1213.45 435.51C1215.89 435.51 1217.45 434.04 1217.31 431.836C1217.26 431.003 1217.16 428.505 1217.16 426.202L1217.06 421.989L1213.69 421.205C1201.53 418.364 1190.19 406.95 1186.04 393.478C1184.13 387.207 1183.01 385.199 1180.71 383.827C1178.42 382.504 1174.56 381.916 1172.31 382.602Z" fill="#990E0E"/>
<path d="M526.352 389.853C524.349 390.93 523.323 392.302 521.075 396.809C514.87 409.301 504.805 416.551 490.441 418.903L486.63 419.54V425.467C486.63 430.611 486.728 431.542 487.51 432.228C488.34 432.963 490.734 433.061 512.134 433.061H535.831L536.905 431.885L537.98 430.758L537.834 412.093C537.687 394.115 537.638 393.38 536.661 392.057C534.511 389.118 529.626 388.089 526.352 389.853Z" fill="#990E0E"/>
<path d="M666.82 392.89C665.305 393.723 664.621 394.702 662.569 398.867C661.201 401.659 659.1 405.186 657.879 406.705C652.651 413.367 643.27 418.756 632.815 421.107L628.808 422.038V428.75V435.51H631.935C644.345 435.51 658.612 428.799 669.41 417.923C673.709 413.612 674.931 412.044 676.641 408.566C679.768 402.198 680.061 397.25 677.422 394.36C675.175 391.861 670.094 391.175 666.82 392.89Z" fill="#990E0E"/>
</g>
<defs>
<clipPath id="clip0_5_11">
<rect width="1284" height="436" fill="white"/>
</clipPath>
</defs>
</svg>
