<svg width="81" height="80" viewBox="0 0 81 80" fill="none" xmlns="http://www.w3.org/2000/svg">
<path d="M40.4 0C18.3088 0 0.400024 17.9087 0.400024 40C0.400024 62.0913 18.3088 80 40.4 80C62.4913 80 80.4 62.0913 80.4 40C80.4 17.9087 62.4913 0 40.4 0ZM40.4 77.5C19.69 77.5 2.90002 60.71 2.90002 40.0013C2.90002 19.29 19.69 2.5 40.4 2.5C61.11 2.5 77.9 19.29 77.9 40.0013C77.9 60.71 61.11 77.5 40.4 77.5Z" fill="#c41111"/>
<path d="M57.9 26.25H22.9C21.52 26.25 20.4 27.37 20.4 28.75V51.25C20.4 52.63 21.52 53.75 22.9 53.75H57.9C59.28 53.75 60.4 52.63 60.4 51.25V28.75C60.4 27.37 59.28 26.25 57.9 26.25ZM55.6563 28.75L40.4 43.75L25.2638 28.75H55.6563ZM22.9 51.25V30.0075L34.8863 41.9938L25.4763 51.25H22.9ZM29.1313 51.25L36.7325 43.8413L38.7075 45.815C39.6838 46.7913 41.2663 46.7913 42.2438 45.815L44.1575 43.9012L51.7588 51.25H29.1313ZM57.9 51.25H55.4763L46.0675 41.9938L57.9 30.16V51.25Z" fill="#c41111"/>
</svg>
