<svg width="50" height="50" viewBox="0 0 50 50" fill="none" xmlns="http://www.w3.org/2000/svg">
<g clip-path="url(#clip0_103_64)">
<path d="M49.3164 25.0977C49.3164 28.4961 49.248 31.9043 49.3359 35.3027C49.4824 41.3184 45.7031 45.9668 40.8887 48.0371C38.9551 48.8672 36.9238 49.3066 34.8242 49.3066C28.252 49.3164 21.6699 49.4043 15.0977 49.2773C10.1465 49.1797 6.07422 47.1094 3.1543 43.0273C1.62109 40.8789 0.888672 38.4375 0.888672 35.791C0.888672 28.7891 0.888672 21.7969 0.888672 14.7949C0.888672 9.08203 3.67188 5.08789 8.61328 2.49023C10.7617 1.36719 13.0957 0.888671 15.5273 0.878905C21.9043 0.878905 28.291 0.839842 34.668 0.898436C39.6191 0.937499 43.75 2.83203 46.7969 6.81641C48.4961 9.04297 49.3164 11.6016 49.3164 14.4141C49.3164 17.9688 49.3164 21.5332 49.3164 25.0977ZM4.49219 25.0977C4.49219 28.6816 4.49219 32.2559 4.49219 35.8398C4.49219 37.4414 4.86328 38.9453 5.69336 40.3027C7.87109 43.8672 11.1621 45.6055 15.2441 45.6738C21.7969 45.7715 28.3594 45.7129 34.9219 45.6934C36.5332 45.6934 38.0957 45.3613 39.5508 44.668C43.5156 42.7734 45.7324 39.7559 45.7129 35.2246C45.6738 28.291 45.7031 21.3574 45.7031 14.4238C45.7031 12.4609 45.1465 10.6641 43.9844 9.08203C41.7383 6.04492 38.6328 4.55078 34.9219 4.51172C28.3789 4.43359 21.8359 4.48242 15.293 4.49219C13.8965 4.49219 12.5488 4.77539 11.2402 5.26367C7.64648 6.60156 4.30664 9.99023 4.46289 14.9805C4.58008 18.3594 4.49219 21.7285 4.49219 25.0977Z" fill="#c41111"/>
<path d="M25.1562 35.4492C18.8574 35.4492 13.7793 30.4297 13.7695 24.1797C13.7598 18.0274 18.877 12.9883 25.1367 12.9883C31.416 12.9785 36.5137 18.0078 36.5234 24.209C36.5234 30.4004 31.4355 35.4395 25.1562 35.4492ZM25.1562 31.836C29.4434 31.836 32.9199 28.4082 32.9102 24.1895C32.9004 20.0098 29.4238 16.5918 25.1562 16.5918C20.8691 16.5918 17.373 20 17.373 24.209C17.3828 28.4277 20.8691 31.8457 25.1562 31.836Z" fill="#c41111"/>
<path d="M37.8418 9.57031C39.1602 9.57031 40.2344 10.6934 40.2344 12.0703C40.2246 13.4473 39.1406 14.5605 37.8223 14.5508C36.5234 14.541 35.459 13.4277 35.459 12.0801C35.4492 10.7031 36.5234 9.57031 37.8418 9.57031Z" fill="#c41111"/>
</g>
<defs>
<clipPath id="clip0_103_64">
<rect width="50" height="50" fill="#c41111"/>
</clipPath>
</defs>
</svg>
