<svg width="50" height="50" viewBox="0 0 50 50" fill="none" xmlns="http://www.w3.org/2000/svg">
<path d="M49.9761 39.4502C50.0821 40.2619 49.8347 40.9676 49.2351 41.5674L42.1952 48.5541C41.8776 48.907 41.4631 49.2072 40.9514 49.454C40.4397 49.7011 39.937 49.8599 39.4431 49.9304C39.4078 49.9304 39.3017 49.9394 39.1252 49.9571C38.949 49.9746 38.7196 49.9836 38.4373 49.9836C37.7667 49.9836 36.6815 49.8689 35.1818 49.6395C33.6821 49.41 31.8472 48.8453 29.6772 47.9457C27.5066 47.0458 25.0454 45.6959 22.2931 43.8964C19.5407 42.097 16.6117 39.6267 13.5064 36.486C11.0363 34.0512 8.98961 31.7222 7.36638 29.4992C5.74315 27.2759 4.43751 25.2204 3.44945 23.3325C2.46131 21.4447 1.72027 19.7332 1.22625 18.1982C0.732219 16.6632 0.396986 15.3399 0.220548 14.2283C0.0441096 13.1168 -0.0264657 12.2434 0.00882191 11.6082C0.0441096 10.973 0.0617534 10.6202 0.0617534 10.5496C0.132329 10.0556 0.291123 9.55272 0.538137 9.04105C0.78515 8.52938 1.0851 8.11475 1.43797 7.79716L8.47786 0.757276C8.97188 0.263249 9.53649 0.0162354 10.1717 0.0162354C10.6304 0.0162354 11.0362 0.148564 11.3891 0.413221C11.742 0.677879 12.0419 1.00429 12.2889 1.39245L17.9526 12.1375C18.2702 12.7021 18.3584 13.3197 18.2172 13.9901C18.0761 14.6606 17.7762 15.2252 17.3174 15.6839L14.7238 18.2776C14.6532 18.3482 14.5914 18.4629 14.5385 18.6216C14.4856 18.7804 14.4591 18.9128 14.4591 19.0186C14.6003 19.7597 14.9179 20.6066 15.4119 21.5593C15.8353 22.4062 16.4882 23.4384 17.3703 24.6558C18.2525 25.8733 19.5052 27.2759 21.1285 28.8638C22.7164 30.4872 24.1279 31.7486 25.363 32.6486C26.5978 33.5481 27.6303 34.21 28.4596 34.6334C29.2888 35.0569 29.924 35.3127 30.365 35.4007L31.0265 35.5331C31.0971 35.5331 31.212 35.5065 31.3706 35.4537C31.5294 35.4007 31.6441 35.339 31.7148 35.2683L34.7318 32.1983C35.3673 31.6338 36.108 31.3515 36.955 31.3515C37.555 31.3515 38.0312 31.4573 38.384 31.6691H38.4369L48.6526 37.7033C49.3939 38.1624 49.8349 38.7444 49.9761 39.4502Z" fill="#D6D6D6"/>
</svg>
