<svg width="1399" height="514" viewBox="0 0 1399 514" fill="none" xmlns="http://www.w3.org/2000/svg">
<g clip-path="url(#clip0_103_93)">
<path d="M61.5616 1.02875C41.9694 3.28223 25.3575 12.3941 14.5109 26.8458C8.74564 34.5371 5.08126 42.3753 2.73605 52.026C-1.9055 71.1317 0.781712 92.6377 9.67395 107.628C20.1785 125.215 37.6698 135.111 62.1479 137.266C71.089 138.05 70.8447 138.246 70.8447 130.065V124.04L69.037 123.697C66.594 123.256 63.0762 121.394 61.4639 119.68C60.731 118.945 59.6561 117.181 59.021 115.858L57.8972 113.409V68.7802V24.2004L59.363 21.2611C61.1219 17.7829 64.1023 15.5784 68.1575 14.6476L70.8447 14.0598V8.08313C70.8447 -0.0490112 70.8447 -0.0490112 61.5616 1.02875Z" fill="#990E0E"/>
<path d="M61.5616 1.02875C41.9694 3.28223 25.3575 12.3941 14.5109 26.8458C8.74564 34.5371 5.08126 42.3753 2.73605 52.026C-1.9055 71.1317 0.781712 92.6377 9.67395 107.628C20.1785 125.215 37.6698 135.111 62.1479 137.266C71.089 138.05 70.8447 138.246 70.8447 130.065V124.04L69.037 123.697C66.594 123.256 63.0762 121.394 61.4639 119.68C60.731 118.945 59.6561 117.181 59.021 115.858L57.8972 113.409V68.7802V24.2004L59.363 21.2611C61.1219 17.7829 64.1023 15.5784 68.1575 14.6476L70.8447 14.0598V8.08313C70.8447 -0.0490112 70.8447 -0.0490112 61.5616 1.02875Z" fill="url(#paint0_linear_103_93)" fill-opacity="0.15"/>
<path d="M77.0497 1.32268C76.3657 2.1065 76.2191 3.28223 76.2191 8.18111V14.0598L78.8086 14.6476C91.5118 17.489 102.798 29.8831 107.733 46.3923C110.029 53.9366 112.521 56.3371 118.091 56.3371C121.853 56.3371 124.003 55.1613 125.468 52.418C126.543 50.2625 126.543 50.1155 126.543 28.4625C126.543 7.44627 126.494 6.61346 125.517 4.60492C123.221 -0.146984 114.964 -1.02879 112.081 3.18425C111.544 3.91908 110.518 5.19279 109.785 6.0256C108.515 7.3483 108.221 7.44627 106.12 7.20133C104.85 7.05436 101.088 6.12358 97.7168 5.09481C88.4826 2.35144 83.499 1.12672 80.5675 0.734814C78.32 0.44088 77.7826 0.538857 77.0497 1.32268Z" fill="#990E0E"/>
<path d="M77.0497 1.32268C76.3657 2.1065 76.2191 3.28223 76.2191 8.18111V14.0598L78.8086 14.6476C91.5118 17.489 102.798 29.8831 107.733 46.3923C110.029 53.9366 112.521 56.3371 118.091 56.3371C121.853 56.3371 124.003 55.1613 125.468 52.418C126.543 50.2625 126.543 50.1155 126.543 28.4625C126.543 7.44627 126.494 6.61346 125.517 4.60492C123.221 -0.146984 114.964 -1.02879 112.081 3.18425C111.544 3.91908 110.518 5.19279 109.785 6.0256C108.515 7.3483 108.221 7.44627 106.12 7.20133C104.85 7.05436 101.088 6.12358 97.7168 5.09481C88.4826 2.35144 83.499 1.12672 80.5675 0.734814C78.32 0.44088 77.7826 0.538857 77.0497 1.32268Z" fill="url(#paint1_linear_103_93)" fill-opacity="0.15"/>
<path d="M189.326 3.52718C189.229 3.8701 188.496 6.36853 187.714 9.1119L186.248 14.0598L187.616 19.1546C188.398 21.947 192.111 35.6148 195.922 49.4786C205.352 83.8688 206.183 87.004 206.183 87.6409C206.183 88.0328 202.665 88.1798 194.31 88.1798H182.389L180.825 93.8135C179.31 99.3002 179.31 99.4962 180.141 100.672L181.02 101.848L195.385 101.995L209.749 102.142L211.899 109C213.267 113.36 213.951 116.544 213.902 117.818C213.756 119.68 213.609 119.827 210.189 121.737C206.085 123.991 205.254 125.166 205.205 128.498C205.205 130.555 205.45 131.143 206.818 132.515C207.893 133.592 209.163 134.278 210.971 134.67C212.73 135.013 223.088 135.209 243.755 135.209C277.174 135.209 277.711 135.16 280.154 132.221C281.718 130.359 281.864 127.371 280.496 125.117C279.666 123.746 275.122 121.002 273.705 121.002C273.51 121.002 272.679 120.365 271.946 119.582C271.018 118.602 270.187 116.789 269.405 113.801C267.353 106.453 238.918 6.22156 238.38 4.50696L237.843 2.93932H213.707C194.799 2.93932 189.473 3.08627 189.326 3.52718Z" fill="#990E0E"/>
<path d="M189.326 3.52718C189.229 3.8701 188.496 6.36853 187.714 9.1119L186.248 14.0598L187.616 19.1546C188.398 21.947 192.111 35.6148 195.922 49.4786C205.352 83.8688 206.183 87.004 206.183 87.6409C206.183 88.0328 202.665 88.1798 194.31 88.1798H182.389L180.825 93.8135C179.31 99.3002 179.31 99.4962 180.141 100.672L181.02 101.848L195.385 101.995L209.749 102.142L211.899 109C213.267 113.36 213.951 116.544 213.902 117.818C213.756 119.68 213.609 119.827 210.189 121.737C206.085 123.991 205.254 125.166 205.205 128.498C205.205 130.555 205.45 131.143 206.818 132.515C207.893 133.592 209.163 134.278 210.971 134.67C212.73 135.013 223.088 135.209 243.755 135.209C277.174 135.209 277.711 135.16 280.154 132.221C281.718 130.359 281.864 127.371 280.496 125.117C279.666 123.746 275.122 121.002 273.705 121.002C273.51 121.002 272.679 120.365 271.946 119.582C271.018 118.602 270.187 116.789 269.405 113.801C267.353 106.453 238.918 6.22156 238.38 4.50696L237.843 2.93932H213.707C194.799 2.93932 189.473 3.08627 189.326 3.52718Z" fill="url(#paint2_linear_103_93)" fill-opacity="0.15"/>
<path d="M299.16 4.11504C296.18 5.53571 295.105 7.25031 295.105 10.5816C295.105 13.7658 297.108 15.6764 301.847 17.0971C303.997 17.7829 305.561 18.5177 305.854 19.1056C306.196 19.6935 306.342 36.8395 306.342 69.0741C306.342 101.309 306.196 118.455 305.854 119.043C305.561 119.631 303.997 120.365 301.847 121.051C297.108 122.472 295.105 124.382 295.105 127.567C295.105 130.653 296.18 132.515 298.672 133.837L300.724 134.964H333.459H366.194L368.197 133.837C370.738 132.368 371.813 130.506 371.813 127.616C371.813 124.382 369.907 122.521 365.119 121.051C362.921 120.414 361.406 119.631 361.064 119.043C360.722 118.455 360.575 99.1532 360.575 61.3339C360.575 6.95638 360.526 4.50694 359.696 3.77211C358.865 3.03728 356.129 2.9393 330.234 2.9393H301.701L299.16 4.11504Z" fill="#990E0E"/>
<path d="M299.16 4.11504C296.18 5.53571 295.105 7.25031 295.105 10.5816C295.105 13.7658 297.108 15.6764 301.847 17.0971C303.997 17.7829 305.561 18.5177 305.854 19.1056C306.196 19.6935 306.342 36.8395 306.342 69.0741C306.342 101.309 306.196 118.455 305.854 119.043C305.561 119.631 303.997 120.365 301.847 121.051C297.108 122.472 295.105 124.382 295.105 127.567C295.105 130.653 296.18 132.515 298.672 133.837L300.724 134.964H333.459H366.194L368.197 133.837C370.738 132.368 371.813 130.506 371.813 127.616C371.813 124.382 369.907 122.521 365.119 121.051C362.921 120.414 361.406 119.631 361.064 119.043C360.722 118.455 360.575 99.1532 360.575 61.3339C360.575 6.95638 360.526 4.50694 359.696 3.77211C358.865 3.03728 356.129 2.9393 330.234 2.9393H301.701L299.16 4.11504Z" fill="url(#paint3_linear_103_93)" fill-opacity="0.15"/>
<path d="M366.78 3.77216C365.754 4.94788 365.412 8.42609 365.803 13.227C366.096 16.6072 366.096 16.6072 367.855 17.1951C372.79 18.8117 376.699 21.898 377.529 24.8863C377.773 25.6211 377.92 33.2634 377.92 41.8854V57.5618L376.699 59.7173C375.331 62.1178 373.034 63.5874 370.005 63.9793C365.559 64.5672 365.95 63.8324 365.95 71.5236V78.382H367.22C371.666 78.382 375.819 81.1254 377.138 84.9955C377.578 86.3182 377.92 91.462 378.164 100.917C378.555 115.956 378.946 118.406 381.487 123.158C383.392 126.783 388.083 131.241 392.187 133.396C397.121 135.993 402.154 137.169 409.434 137.511C423.407 138.099 433.472 134.572 441.973 126.097C445.687 122.423 447.494 119.337 447.836 116.299C448.13 113.458 447.006 111.302 444.514 109.735C440.85 107.53 437.088 108.02 433.619 111.253C432.446 112.331 431.371 113.017 431.273 112.821C431.127 112.576 430.98 107.726 430.98 101.995C430.931 90.5312 430.638 88.3268 428.391 84.1137C425.264 78.333 418.033 73.5811 408.31 70.9847C404.597 70.005 403.571 69.5641 404.304 69.3191C416.909 64.4692 422.674 60.5991 426.681 54.2796C429.759 49.4787 430.589 46.4903 430.834 39.436C431.078 31.9897 430.394 28.6584 427.609 23.3187C424.482 17.342 419.743 12.9331 412.561 9.35687C403.766 4.99687 395.9 3.52721 379.142 3.0863C368.148 2.84137 367.611 2.84137 366.78 3.77216Z" fill="#990E0E"/>
<path d="M366.78 3.77216C365.754 4.94788 365.412 8.42609 365.803 13.227C366.096 16.6072 366.096 16.6072 367.855 17.1951C372.79 18.8117 376.699 21.898 377.529 24.8863C377.773 25.6211 377.92 33.2634 377.92 41.8854V57.5618L376.699 59.7173C375.331 62.1178 373.034 63.5874 370.005 63.9793C365.559 64.5672 365.95 63.8324 365.95 71.5236V78.382H367.22C371.666 78.382 375.819 81.1254 377.138 84.9955C377.578 86.3182 377.92 91.462 378.164 100.917C378.555 115.956 378.946 118.406 381.487 123.158C383.392 126.783 388.083 131.241 392.187 133.396C397.121 135.993 402.154 137.169 409.434 137.511C423.407 138.099 433.472 134.572 441.973 126.097C445.687 122.423 447.494 119.337 447.836 116.299C448.13 113.458 447.006 111.302 444.514 109.735C440.85 107.53 437.088 108.02 433.619 111.253C432.446 112.331 431.371 113.017 431.273 112.821C431.127 112.576 430.98 107.726 430.98 101.995C430.931 90.5312 430.638 88.3268 428.391 84.1137C425.264 78.333 418.033 73.5811 408.31 70.9847C404.597 70.005 403.571 69.5641 404.304 69.3191C416.909 64.4692 422.674 60.5991 426.681 54.2796C429.759 49.4787 430.589 46.4903 430.834 39.436C431.078 31.9897 430.394 28.6584 427.609 23.3187C424.482 17.342 419.743 12.9331 412.561 9.35687C403.766 4.99687 395.9 3.52721 379.142 3.0863C368.148 2.84137 367.611 2.84137 366.78 3.77216Z" fill="url(#paint4_linear_103_93)" fill-opacity="0.15"/>
<path d="M465.132 3.38019C460.882 4.7029 459.269 6.61345 459.269 10.3366C459.269 13.7658 461.077 15.5784 465.963 17.0971C468.162 17.7339 469.676 18.5177 470.018 19.1056C470.702 20.3793 470.702 117.769 470.018 119.043C469.676 119.631 468.162 120.414 465.963 121.051C461.077 122.57 459.269 124.382 459.269 127.812C459.269 130.898 460.198 132.466 462.885 133.886C464.888 134.964 465.084 134.964 493.959 135.111L523.03 135.258L523.909 134.18C524.691 133.2 524.74 129.722 524.74 76.5694C524.74 38.946 524.886 19.6935 525.228 19.1056C525.521 18.5177 526.89 17.8319 528.551 17.342C532.85 16.1173 534.756 14.9415 535.684 13.031C537.345 9.55278 536.026 6.17256 532.313 4.213C530.407 3.18423 529.772 3.18423 498.356 3.08626C480.767 3.03728 465.816 3.18423 465.132 3.38019Z" fill="#990E0E"/>
<path d="M465.132 3.38019C460.882 4.7029 459.269 6.61345 459.269 10.3366C459.269 13.7658 461.077 15.5784 465.963 17.0971C468.162 17.7339 469.676 18.5177 470.018 19.1056C470.702 20.3793 470.702 117.769 470.018 119.043C469.676 119.631 468.162 120.414 465.963 121.051C461.077 122.57 459.269 124.382 459.269 127.812C459.269 130.898 460.198 132.466 462.885 133.886C464.888 134.964 465.084 134.964 493.959 135.111L523.03 135.258L523.909 134.18C524.691 133.2 524.74 129.722 524.74 76.5694C524.74 38.946 524.886 19.6935 525.228 19.1056C525.521 18.5177 526.89 17.8319 528.551 17.342C532.85 16.1173 534.756 14.9415 535.684 13.031C537.345 9.55278 536.026 6.17256 532.313 4.213C530.407 3.18423 529.772 3.18423 498.356 3.08626C480.767 3.03728 465.816 3.18423 465.132 3.38019Z" fill="url(#paint5_linear_103_93)" fill-opacity="0.15"/>
<path d="M181.509 27.5317C181.411 27.8746 175.597 45.7065 168.611 67.1146C161.086 90.1393 155.077 107.677 153.953 109.98C150.875 116.201 147.113 119.484 140.468 121.688C136.169 123.06 134.41 125.509 134.996 129.183C135.387 131.388 136.462 132.613 139.247 133.935C141.348 134.915 142.374 134.964 158.692 135.111C176.819 135.258 180.141 135.013 182.437 133.2C184.392 131.682 185.027 128.84 184.001 126.293C183.121 123.942 181.607 122.766 177.112 121.002C171.591 118.847 170.223 117.083 170.614 112.772C170.76 111.498 175.402 96.6548 180.923 79.7537C186.493 62.9016 191.037 48.6458 191.037 48.156C191.037 47.6661 189.766 42.7672 188.203 37.2315L185.418 27.1888L183.561 27.0418C182.389 26.9438 181.656 27.0908 181.509 27.5317Z" fill="#990E0E"/>
<path d="M181.509 27.5317C181.411 27.8746 175.597 45.7065 168.611 67.1146C161.086 90.1393 155.077 107.677 153.953 109.98C150.875 116.201 147.113 119.484 140.468 121.688C136.169 123.06 134.41 125.509 134.996 129.183C135.387 131.388 136.462 132.613 139.247 133.935C141.348 134.915 142.374 134.964 158.692 135.111C176.819 135.258 180.141 135.013 182.437 133.2C184.392 131.682 185.027 128.84 184.001 126.293C183.121 123.942 181.607 122.766 177.112 121.002C171.591 118.847 170.223 117.083 170.614 112.772C170.76 111.498 175.402 96.6548 180.923 79.7537C186.493 62.9016 191.037 48.6458 191.037 48.156C191.037 47.6661 189.766 42.7672 188.203 37.2315L185.418 27.1888L183.561 27.0418C182.389 26.9438 181.656 27.0908 181.509 27.5317Z" fill="url(#paint6_linear_103_93)" fill-opacity="0.15"/>
<path d="M565.585 87.3959C562.654 88.4736 561.97 89.5024 559.674 95.9199C556.889 103.807 554.69 107.628 550.244 112.282C545.749 117.034 540.912 119.63 534.365 120.904L530.114 121.737V127.42C530.114 135.993 527.72 135.209 554.153 135.209C574.575 135.209 575.943 135.16 576.676 134.327C577.409 133.494 577.507 131.339 577.458 112.87C577.458 90.7761 577.36 89.7963 574.917 87.9837C573.207 86.71 568.273 86.4161 565.585 87.3959Z" fill="#990E0E"/>
<path d="M565.585 87.3959C562.654 88.4736 561.97 89.5024 559.674 95.9199C556.889 103.807 554.69 107.628 550.244 112.282C545.749 117.034 540.912 119.63 534.365 120.904L530.114 121.737V127.42C530.114 135.993 527.72 135.209 554.153 135.209C574.575 135.209 575.943 135.16 576.676 134.327C577.409 133.494 577.507 131.339 577.458 112.87C577.458 90.7761 577.36 89.7963 574.917 87.9837C573.207 86.71 568.273 86.4161 565.585 87.3959Z" fill="url(#paint7_linear_103_93)" fill-opacity="0.15"/>
<path d="M114.231 95.0382C112.716 95.871 112.032 96.8508 109.931 101.064C108.563 103.856 106.462 107.334 105.29 108.902C99.9643 115.662 89.8995 121.296 79.1506 123.55L76.2191 124.138V130.898V137.658H79.7858C91.8538 137.609 106.169 130.849 116.82 120.071C121.12 115.711 122.293 114.193 124.003 110.715C127.96 102.729 127.472 97.5856 122.635 94.9892C120.387 93.7645 116.576 93.8135 114.231 95.0382Z" fill="#990E0E"/>
<path d="M114.231 95.0382C112.716 95.871 112.032 96.8508 109.931 101.064C108.563 103.856 106.462 107.334 105.29 108.902C99.9643 115.662 89.8995 121.296 79.1506 123.55L76.2191 124.138V130.898V137.658H79.7858C91.8538 137.609 106.169 130.849 116.82 120.071C121.12 115.711 122.293 114.193 124.003 110.715C127.96 102.729 127.472 97.5856 122.635 94.9892C120.387 93.7645 116.576 93.8135 114.231 95.0382Z" fill="url(#paint8_linear_103_93)" fill-opacity="0.15"/>
<path d="M319.095 150.2C302.532 152.6 289.535 158.822 279.177 169.207C270.041 178.368 264.813 188.46 261.832 202.716C260.318 209.721 260.22 225.005 261.588 232.207C267.256 262.286 288.167 281.538 320.072 285.898L325.935 286.682L327.156 285.556C328.329 284.478 328.378 284.233 328.231 278.844L328.084 273.308L325.153 272.133C321.489 270.614 320.072 269.536 318.801 267.43C317.824 265.813 317.824 264.882 317.824 218C317.824 171.118 317.824 170.187 318.801 168.57C320.072 166.464 321.489 165.386 325.153 163.867L328.084 162.692L328.231 157.205C328.329 152.11 328.28 151.62 327.303 150.591C326.081 149.269 325.593 149.22 319.095 150.2Z" fill="#990E0E"/>
<path d="M319.095 150.2C302.532 152.6 289.535 158.822 279.177 169.207C270.041 178.368 264.813 188.46 261.832 202.716C260.318 209.721 260.22 225.005 261.588 232.207C267.256 262.286 288.167 281.538 320.072 285.898L325.935 286.682L327.156 285.556C328.329 284.478 328.378 284.233 328.231 278.844L328.084 273.308L325.153 272.133C321.489 270.614 320.072 269.536 318.801 267.43C317.824 265.813 317.824 264.882 317.824 218C317.824 171.118 317.824 170.187 318.801 168.57C320.072 166.464 321.489 165.386 325.153 163.867L328.084 162.692L328.231 157.205C328.329 152.11 328.28 151.62 327.303 150.591C326.081 149.269 325.593 149.22 319.095 150.2Z" fill="url(#paint9_linear_103_93)" fill-opacity="0.15"/>
<path d="M334.583 150.249C333.801 151.081 333.508 154.56 333.654 160.732L333.703 162.937L336.293 163.769C339.371 164.749 342.4 167.15 343.279 169.305C343.866 170.677 343.963 179.103 343.963 217.853C343.963 262.923 343.915 264.882 343.035 266.842C341.911 269.242 339.078 271.496 335.902 272.378L333.703 273.014L333.654 275.758C333.41 286.731 333.557 286.878 340.348 286.094C372.399 282.322 394.434 262.58 400.004 232.697C401.226 226.132 401.226 209.868 400.004 203.303C394.874 175.821 375.721 156.715 347.677 151.179C338.687 149.367 335.56 149.171 334.583 150.249Z" fill="#990E0E"/>
<path d="M334.583 150.249C333.801 151.081 333.508 154.56 333.654 160.732L333.703 162.937L336.293 163.769C339.371 164.749 342.4 167.15 343.279 169.305C343.866 170.677 343.963 179.103 343.963 217.853C343.963 262.923 343.915 264.882 343.035 266.842C341.911 269.242 339.078 271.496 335.902 272.378L333.703 273.014L333.654 275.758C333.41 286.731 333.557 286.878 340.348 286.094C372.399 282.322 394.434 262.58 400.004 232.697C401.226 226.132 401.226 209.868 400.004 203.303C394.874 175.821 375.721 156.715 347.677 151.179C338.687 149.367 335.56 149.171 334.583 150.249Z" fill="url(#paint10_linear_103_93)" fill-opacity="0.15"/>
<path d="M803.721 149.759C802.5 149.857 799.764 150.249 797.614 150.689C770.253 155.931 754.325 173.224 755.498 196.445C756.475 215.257 767.566 226.916 794.438 237.498C797.272 238.624 803.624 240.976 808.607 242.788C819.307 246.609 823.558 248.716 826.734 251.851C829.665 254.693 830.447 257.24 829.665 260.963C828.541 265.911 823.265 269.928 814.812 272.182L811.588 273.063L811.441 278.697C811.294 283.645 811.392 284.478 812.223 285.507C813.151 286.682 813.298 286.682 817.353 286.388C832.157 285.262 845.007 280.755 855.072 273.112C866.798 264.294 872.856 251.508 871.977 237.596C870.999 222.556 862.987 211.925 845.642 202.813C840.023 199.874 835.773 198.16 823.998 194.142C811.783 190.027 803.721 186.108 800.692 182.826C797.028 178.907 796.49 175.086 799.031 170.726C800.594 168.129 804.943 165.092 809.047 163.818L812.027 162.888V157.205C812.027 149.171 811.93 149.122 803.721 149.759Z" fill="#990E0E"/>
<path d="M803.721 149.759C802.5 149.857 799.764 150.249 797.614 150.689C770.253 155.931 754.325 173.224 755.498 196.445C756.475 215.257 767.566 226.916 794.438 237.498C797.272 238.624 803.624 240.976 808.607 242.788C819.307 246.609 823.558 248.716 826.734 251.851C829.665 254.693 830.447 257.24 829.665 260.963C828.541 265.911 823.265 269.928 814.812 272.182L811.588 273.063L811.441 278.697C811.294 283.645 811.392 284.478 812.223 285.507C813.151 286.682 813.298 286.682 817.353 286.388C832.157 285.262 845.007 280.755 855.072 273.112C866.798 264.294 872.856 251.508 871.977 237.596C870.999 222.556 862.987 211.925 845.642 202.813C840.023 199.874 835.773 198.16 823.998 194.142C811.783 190.027 803.721 186.108 800.692 182.826C797.028 178.907 796.49 175.086 799.031 170.726C800.594 168.129 804.943 165.092 809.047 163.818L812.027 162.888V157.205C812.027 149.171 811.93 149.122 803.721 149.759Z" fill="url(#paint11_linear_103_93)" fill-opacity="0.15"/>
<path d="M818.281 150.347C817.548 151.228 817.402 152.404 817.402 157.156V162.937L820.04 163.476C832.45 166.072 844.469 176.605 847.694 187.627C848.183 189.391 848.72 191.399 848.867 192.085C850.43 199.384 861.668 201.05 865.283 194.485L866.505 192.281L866.358 173.665C866.211 153.384 866.211 153.433 863.28 151.277C861.863 150.2 858.638 149.612 856.684 150.102C856 150.298 854.094 151.669 852.58 153.139C851.016 154.609 849.355 155.833 848.867 155.882C848.329 155.882 844.763 154.902 840.854 153.678C832.841 151.179 828.053 150.102 822.776 149.661C819.454 149.367 819.014 149.416 818.281 150.347Z" fill="#990E0E"/>
<path d="M818.281 150.347C817.548 151.228 817.402 152.404 817.402 157.156V162.937L820.04 163.476C832.45 166.072 844.469 176.605 847.694 187.627C848.183 189.391 848.72 191.399 848.867 192.085C850.43 199.384 861.668 201.05 865.283 194.485L866.505 192.281L866.358 173.665C866.211 153.384 866.211 153.433 863.28 151.277C861.863 150.2 858.638 149.612 856.684 150.102C856 150.298 854.094 151.669 852.58 153.139C851.016 154.609 849.355 155.833 848.867 155.882C848.329 155.882 844.763 154.902 840.854 153.678C832.841 151.179 828.053 150.102 822.776 149.661C819.454 149.367 819.014 149.416 818.281 150.347Z" fill="url(#paint12_linear_103_93)" fill-opacity="0.15"/>
<path d="M945.46 150.2C917.953 154.217 898.165 169.991 890.494 193.995C887.758 202.569 887.025 207.663 887.074 218.245C887.074 228.484 887.66 232.746 890.25 241.27C893.377 251.459 898.067 259.347 905.543 266.793C916.194 277.472 929.141 283.547 946.437 285.898L952.3 286.682L953.522 285.556C954.694 284.478 954.743 284.233 954.596 278.844L954.45 273.308L951.518 272.133C947.854 270.614 946.437 269.536 945.167 267.43C944.19 265.813 944.19 264.882 944.19 217.951V170.187L945.558 168.08C946.828 166.121 949.808 164.308 953.864 162.937C954.596 162.692 954.694 161.957 954.694 157.107C954.694 151.914 954.596 151.473 953.57 150.493C952.3 149.269 951.86 149.269 945.46 150.2Z" fill="#990E0E"/>
<path d="M945.46 150.2C917.953 154.217 898.165 169.991 890.494 193.995C887.758 202.569 887.025 207.663 887.074 218.245C887.074 228.484 887.66 232.746 890.25 241.27C893.377 251.459 898.067 259.347 905.543 266.793C916.194 277.472 929.141 283.547 946.437 285.898L952.3 286.682L953.522 285.556C954.694 284.478 954.743 284.233 954.596 278.844L954.45 273.308L951.518 272.133C947.854 270.614 946.437 269.536 945.167 267.43C944.19 265.813 944.19 264.882 944.19 217.951V170.187L945.558 168.08C946.828 166.121 949.808 164.308 953.864 162.937C954.596 162.692 954.694 161.957 954.694 157.107C954.694 151.914 954.596 151.473 953.57 150.493C952.3 149.269 951.86 149.269 945.46 150.2Z" fill="url(#paint13_linear_103_93)" fill-opacity="0.15"/>
<path d="M960.948 150.249C960.166 151.13 959.922 153.678 960.02 160.438L960.069 162.888L962.414 163.72C965.345 164.798 967.739 166.366 969.059 168.178C970.085 169.55 970.085 169.746 970.231 216.187C970.329 241.858 970.231 263.804 970.085 265.029C969.645 268.018 966.616 270.957 962.805 272.182L960.069 273.063L960.02 275.758C959.873 286.339 960.117 286.878 964.954 286.388C966.713 286.192 970.769 285.507 974.042 284.87C998.764 279.873 1016.3 264.931 1023.78 242.445C1026.27 235.048 1027.1 229.757 1027.35 219.715C1027.54 212.268 1027.44 209.966 1026.56 204.822C1021.73 176.213 1002.77 156.862 974.042 151.179C965.052 149.367 961.925 149.171 960.948 150.249Z" fill="#990E0E"/>
<path d="M960.948 150.249C960.166 151.13 959.922 153.678 960.02 160.438L960.069 162.888L962.414 163.72C965.345 164.798 967.739 166.366 969.059 168.178C970.085 169.55 970.085 169.746 970.231 216.187C970.329 241.858 970.231 263.804 970.085 265.029C969.645 268.018 966.616 270.957 962.805 272.182L960.069 273.063L960.02 275.758C959.873 286.339 960.117 286.878 964.954 286.388C966.713 286.192 970.769 285.507 974.042 284.87C998.764 279.873 1016.3 264.931 1023.78 242.445C1026.27 235.048 1027.1 229.757 1027.35 219.715C1027.54 212.268 1027.44 209.966 1026.56 204.822C1021.73 176.213 1002.77 156.862 974.042 151.179C965.052 149.367 961.925 149.171 960.948 150.249Z" fill="url(#paint14_linear_103_93)" fill-opacity="0.15"/>
<path d="M177.063 152.306C172.031 153.531 169.588 157.989 171.689 162.104C172.666 163.916 173.985 164.749 178.236 166.072C180.336 166.758 181.998 167.591 182.291 168.08C182.584 168.668 182.731 186.451 182.633 217.363L182.486 265.764L181.411 267.822C180.239 269.977 178.333 271.594 175.89 272.427L174.425 272.965V279.824V286.682L185.076 286.437C200.222 286.143 208.674 284.429 218.397 279.628C222.794 277.472 224.163 276.444 227.729 272.867C232.224 268.36 234.276 264.882 235.84 259.102C236.573 256.26 236.719 251.655 236.915 212.121C237.11 188.019 237.403 167.982 237.599 167.689C237.794 167.346 239.553 166.562 241.507 165.974C246.393 164.504 248.201 162.692 248.201 159.262C248.201 156.176 247.273 154.609 244.585 153.188C242.582 152.11 242.533 152.11 210.58 152.012C192.991 151.963 177.894 152.11 177.063 152.306Z" fill="#990E0E"/>
<path d="M177.063 152.306C172.031 153.531 169.588 157.989 171.689 162.104C172.666 163.916 173.985 164.749 178.236 166.072C180.336 166.758 181.998 167.591 182.291 168.08C182.584 168.668 182.731 186.451 182.633 217.363L182.486 265.764L181.411 267.822C180.239 269.977 178.333 271.594 175.89 272.427L174.425 272.965V279.824V286.682L185.076 286.437C200.222 286.143 208.674 284.429 218.397 279.628C222.794 277.472 224.163 276.444 227.729 272.867C232.224 268.36 234.276 264.882 235.84 259.102C236.573 256.26 236.719 251.655 236.915 212.121C237.11 188.019 237.403 167.982 237.599 167.689C237.794 167.346 239.553 166.562 241.507 165.974C246.393 164.504 248.201 162.692 248.201 159.262C248.201 156.176 247.273 154.609 244.585 153.188C242.582 152.11 242.533 152.11 210.58 152.012C192.991 151.963 177.894 152.11 177.063 152.306Z" fill="url(#paint15_linear_103_93)" fill-opacity="0.15"/>
<path d="M425.068 152.306C420.72 153.678 419.205 155.392 419.205 159.115C419.205 161.467 419.401 161.957 420.818 163.329C421.893 164.406 423.505 165.288 425.899 166.023C428.098 166.66 429.612 167.444 429.954 168.031C430.638 169.305 430.638 266.695 429.954 267.969C429.612 268.556 428.147 269.34 426.046 269.977C422.088 271.153 420.329 272.426 419.401 274.631C418.131 277.717 419.499 281.049 422.821 282.812C424.824 283.89 424.922 283.89 456.973 284.037C488.926 284.184 489.073 284.135 491.516 283.106C494.154 281.979 495.913 280.02 495.913 278.256C495.913 277.717 496.157 277.374 496.402 277.521C496.695 277.668 496.89 278.305 496.89 278.844C496.89 280.51 499.968 283.008 502.851 283.645C504.708 284.037 514.626 284.135 536.71 284.037C567.833 283.89 567.979 283.89 569.983 282.812C572.67 281.391 573.598 279.824 573.598 276.738C573.598 273.308 571.79 271.496 566.905 269.977C564.706 269.34 563.191 268.556 562.849 267.969C562.165 266.695 562.165 169.305 562.849 168.031C563.191 167.444 564.706 166.66 566.905 166.023C571.79 164.504 573.598 162.692 573.598 159.262C573.598 156.176 572.67 154.609 569.983 153.188L567.979 152.11H535.244H502.509L500.506 153.188C498.307 154.364 496.89 156.176 496.89 157.744C496.89 158.283 496.695 158.724 496.402 158.724C496.157 158.724 495.913 158.283 495.913 157.744C495.913 156.176 494.496 154.364 492.298 153.188C490.294 152.11 490.197 152.11 458.292 152.012C440.703 151.963 425.752 152.11 425.068 152.306ZM496.89 160.732C496.89 162.594 499.773 164.847 503.584 166.023C505.783 166.66 507.297 167.444 507.639 168.031C507.932 168.619 508.128 176.457 508.128 189.537V210.162H499.968C489.659 210.162 490.05 209.868 490.05 216.922C490.05 224.173 489.61 223.879 499.92 223.879H508.128V245.483C508.128 259.249 507.932 267.381 507.639 267.969C507.297 268.556 505.783 269.34 503.584 269.977C499.773 271.153 496.89 273.406 496.89 275.268C496.89 275.856 496.695 276.297 496.402 276.297C496.157 276.297 495.913 275.856 495.913 275.268C495.913 273.406 493.031 271.153 489.22 269.977C487.021 269.34 485.506 268.556 485.164 267.969C484.822 267.381 484.676 250.529 484.676 218C484.676 185.471 484.822 168.619 485.164 168.031C485.506 167.444 487.021 166.66 489.22 166.023C493.031 164.847 495.913 162.594 495.913 160.732C495.913 160.144 496.157 159.703 496.402 159.703C496.695 159.703 496.89 160.144 496.89 160.732Z" fill="#990E0E"/>
<path d="M425.068 152.306C420.72 153.678 419.205 155.392 419.205 159.115C419.205 161.467 419.401 161.957 420.818 163.329C421.893 164.406 423.505 165.288 425.899 166.023C428.098 166.66 429.612 167.444 429.954 168.031C430.638 169.305 430.638 266.695 429.954 267.969C429.612 268.556 428.147 269.34 426.046 269.977C422.088 271.153 420.329 272.426 419.401 274.631C418.131 277.717 419.499 281.049 422.821 282.812C424.824 283.89 424.922 283.89 456.973 284.037C488.926 284.184 489.073 284.135 491.516 283.106C494.154 281.979 495.913 280.02 495.913 278.256C495.913 277.717 496.157 277.374 496.402 277.521C496.695 277.668 496.89 278.305 496.89 278.844C496.89 280.51 499.968 283.008 502.851 283.645C504.708 284.037 514.626 284.135 536.71 284.037C567.833 283.89 567.979 283.89 569.983 282.812C572.67 281.391 573.598 279.824 573.598 276.738C573.598 273.308 571.79 271.496 566.905 269.977C564.706 269.34 563.191 268.556 562.849 267.969C562.165 266.695 562.165 169.305 562.849 168.031C563.191 167.444 564.706 166.66 566.905 166.023C571.79 164.504 573.598 162.692 573.598 159.262C573.598 156.176 572.67 154.609 569.983 153.188L567.979 152.11H535.244H502.509L500.506 153.188C498.307 154.364 496.89 156.176 496.89 157.744C496.89 158.283 496.695 158.724 496.402 158.724C496.157 158.724 495.913 158.283 495.913 157.744C495.913 156.176 494.496 154.364 492.298 153.188C490.294 152.11 490.197 152.11 458.292 152.012C440.703 151.963 425.752 152.11 425.068 152.306ZM496.89 160.732C496.89 162.594 499.773 164.847 503.584 166.023C505.783 166.66 507.297 167.444 507.639 168.031C507.932 168.619 508.128 176.457 508.128 189.537V210.162H499.968C489.659 210.162 490.05 209.868 490.05 216.922C490.05 224.173 489.61 223.879 499.92 223.879H508.128V245.483C508.128 259.249 507.932 267.381 507.639 267.969C507.297 268.556 505.783 269.34 503.584 269.977C499.773 271.153 496.89 273.406 496.89 275.268C496.89 275.856 496.695 276.297 496.402 276.297C496.157 276.297 495.913 275.856 495.913 275.268C495.913 273.406 493.031 271.153 489.22 269.977C487.021 269.34 485.506 268.556 485.164 267.969C484.822 267.381 484.676 250.529 484.676 218C484.676 185.471 484.822 168.619 485.164 168.031C485.506 167.444 487.021 166.66 489.22 166.023C493.031 164.847 495.913 162.594 495.913 160.732C495.913 160.144 496.157 159.703 496.402 159.703C496.695 159.703 496.89 160.144 496.89 160.732Z" fill="url(#paint16_linear_103_93)" fill-opacity="0.15"/>
<path d="M601.594 152.355C597.099 153.286 595.096 155.343 595.096 159.213C595.096 163.231 596.659 164.749 602.62 166.562C604.281 167.101 606.431 168.031 607.311 168.619C608.337 169.354 612.783 175.331 619.281 184.688C624.948 192.918 634.476 206.684 640.485 215.306C646.446 223.928 659.638 242.935 669.752 257.534L688.171 284.135H704.099C718.952 284.135 720.076 284.086 720.858 283.253C721.59 282.42 721.639 280.167 721.737 261.061L721.835 239.751L717.486 233.382C713.822 228.043 691.054 195.024 667.455 160.83L661.299 151.865L632.473 151.914C616.643 151.963 602.718 152.159 601.594 152.355Z" fill="#990E0E"/>
<path d="M601.594 152.355C597.099 153.286 595.096 155.343 595.096 159.213C595.096 163.231 596.659 164.749 602.62 166.562C604.281 167.101 606.431 168.031 607.311 168.619C608.337 169.354 612.783 175.331 619.281 184.688C624.948 192.918 634.476 206.684 640.485 215.306C646.446 223.928 659.638 242.935 669.752 257.534L688.171 284.135H704.099C718.952 284.135 720.076 284.086 720.858 283.253C721.59 282.42 721.639 280.167 721.737 261.061L721.835 239.751L717.486 233.382C713.822 228.043 691.054 195.024 667.455 160.83L661.299 151.865L632.473 151.914C616.643 151.963 602.718 152.159 601.594 152.355Z" fill="url(#paint17_linear_103_93)" fill-opacity="0.15"/>
<path d="M695.5 152.306C692.031 153.139 690.077 154.804 689.393 157.352C688.953 158.92 689.051 159.605 689.832 161.418C690.712 163.426 691.152 163.769 695.353 165.827C700.435 168.374 701.656 169.354 703.366 172.195C705.614 176.066 706.005 179.348 706.005 195.122V209.672L712.21 218.98C716.167 224.907 718.659 228.288 719.196 228.288C719.636 228.288 720.418 227.847 720.906 227.308C721.688 226.426 721.786 224.613 721.835 202.715C721.932 179.593 721.981 178.956 723.056 175.723C724.571 171.069 727.062 168.423 732.144 166.023C737.372 163.622 738.495 162.349 738.495 158.968C738.495 156.715 738.3 156.127 737.03 154.804C734.44 152.061 732.632 151.865 713.871 151.914C704.588 151.963 696.331 152.11 695.5 152.306Z" fill="#990E0E"/>
<path d="M695.5 152.306C692.031 153.139 690.077 154.804 689.393 157.352C688.953 158.92 689.051 159.605 689.832 161.418C690.712 163.426 691.152 163.769 695.353 165.827C700.435 168.374 701.656 169.354 703.366 172.195C705.614 176.066 706.005 179.348 706.005 195.122V209.672L712.21 218.98C716.167 224.907 718.659 228.288 719.196 228.288C719.636 228.288 720.418 227.847 720.906 227.308C721.688 226.426 721.786 224.613 721.835 202.715C721.932 179.593 721.981 178.956 723.056 175.723C724.571 171.069 727.062 168.423 732.144 166.023C737.372 163.622 738.495 162.349 738.495 158.968C738.495 156.715 738.3 156.127 737.03 154.804C734.44 152.061 732.632 151.865 713.871 151.914C704.588 151.963 696.331 152.11 695.5 152.306Z" fill="url(#paint18_linear_103_93)" fill-opacity="0.15"/>
<path d="M1048.16 152.355C1043.67 153.286 1041.66 155.392 1041.66 159.164C1041.66 163.133 1043.32 164.749 1049.09 166.562C1050.85 167.101 1053 168.031 1053.88 168.619C1054.9 169.305 1059.25 175.135 1065.31 183.953C1075.18 198.209 1087.34 215.795 1099.12 232.697C1113.83 253.909 1121.45 264.931 1127.9 274.239L1134.74 284.135H1150.67C1166.25 284.135 1166.59 284.135 1167.52 283.106C1168.4 282.126 1168.45 281.098 1168.35 260.865L1168.3 239.604L1166.2 236.518C1164.44 233.97 1141.58 200.756 1114.02 160.83L1107.87 151.865L1079.04 151.914C1063.21 151.963 1049.28 152.159 1048.16 152.355Z" fill="#990E0E"/>
<path d="M1048.16 152.355C1043.67 153.286 1041.66 155.392 1041.66 159.164C1041.66 163.133 1043.32 164.749 1049.09 166.562C1050.85 167.101 1053 168.031 1053.88 168.619C1054.9 169.305 1059.25 175.135 1065.31 183.953C1075.18 198.209 1087.34 215.795 1099.12 232.697C1113.83 253.909 1121.45 264.931 1127.9 274.239L1134.74 284.135H1150.67C1166.25 284.135 1166.59 284.135 1167.52 283.106C1168.4 282.126 1168.45 281.098 1168.35 260.865L1168.3 239.604L1166.2 236.518C1164.44 233.97 1141.58 200.756 1114.02 160.83L1107.87 151.865L1079.04 151.914C1063.21 151.963 1049.28 152.159 1048.16 152.355Z" fill="url(#paint19_linear_103_93)" fill-opacity="0.15"/>
<path d="M1142.07 152.306C1138.06 153.286 1135.76 155.833 1135.86 159.066C1136.01 162.202 1137.13 163.475 1141.97 165.876C1147 168.374 1148.22 169.354 1149.93 172.195C1152.18 176.066 1152.57 179.348 1152.57 195.122V209.721L1158.78 218.98C1162.73 224.956 1165.23 228.288 1165.76 228.288C1166.2 228.288 1166.98 227.847 1167.42 227.357C1168.21 226.475 1168.3 224.32 1168.45 202.715C1168.65 180.279 1168.69 178.858 1169.67 175.674C1171.09 171.118 1173.58 168.423 1178.71 166.023C1183.94 163.622 1185.06 162.349 1185.06 158.968C1185.06 156.715 1184.87 156.127 1183.6 154.804C1181.01 152.061 1179.2 151.865 1160.44 151.914C1151.15 151.963 1142.9 152.11 1142.07 152.306Z" fill="#990E0E"/>
<path d="M1142.07 152.306C1138.06 153.286 1135.76 155.833 1135.86 159.066C1136.01 162.202 1137.13 163.475 1141.97 165.876C1147 168.374 1148.22 169.354 1149.93 172.195C1152.18 176.066 1152.57 179.348 1152.57 195.122V209.721L1158.78 218.98C1162.73 224.956 1165.23 228.288 1165.76 228.288C1166.2 228.288 1166.98 227.847 1167.42 227.357C1168.21 226.475 1168.3 224.32 1168.45 202.715C1168.65 180.279 1168.69 178.858 1169.67 175.674C1171.09 171.118 1173.58 168.423 1178.71 166.023C1183.94 163.622 1185.06 162.349 1185.06 158.968C1185.06 156.715 1184.87 156.127 1183.6 154.804C1181.01 152.061 1179.2 151.865 1160.44 151.914C1151.15 151.963 1142.9 152.11 1142.07 152.306Z" fill="url(#paint20_linear_103_93)" fill-opacity="0.15"/>
<path d="M611.708 184.933C611.219 185.52 611.073 193.702 610.975 221.037C610.877 255.623 610.877 256.554 609.851 259.64C608.581 263.462 606.48 266.989 604.575 268.311C603.793 268.85 601.692 269.977 599.933 270.761C596.073 272.524 594.607 274.239 594.607 276.884C594.607 279.579 595.78 281.489 598.174 282.763C600.177 283.89 600.47 283.89 618.792 283.89C636.381 283.89 637.456 283.841 639.264 282.91C641.805 281.636 643.026 279.922 643.124 277.423C643.222 274.239 642.244 273.014 637.847 270.81C633.254 268.507 631.105 266.646 629.492 263.462C627.001 258.514 626.854 257.044 626.854 228.68V202.373L620.698 193.261C615.714 185.863 614.346 184.198 613.467 184.198C612.832 184.198 612.05 184.541 611.708 184.933Z" fill="#990E0E"/>
<path d="M611.708 184.933C611.219 185.52 611.073 193.702 610.975 221.037C610.877 255.623 610.877 256.554 609.851 259.64C608.581 263.462 606.48 266.989 604.575 268.311C603.793 268.85 601.692 269.977 599.933 270.761C596.073 272.524 594.607 274.239 594.607 276.884C594.607 279.579 595.78 281.489 598.174 282.763C600.177 283.89 600.47 283.89 618.792 283.89C636.381 283.89 637.456 283.841 639.264 282.91C641.805 281.636 643.026 279.922 643.124 277.423C643.222 274.239 642.244 273.014 637.847 270.81C633.254 268.507 631.105 266.646 629.492 263.462C627.001 258.514 626.854 257.044 626.854 228.68V202.373L620.698 193.261C615.714 185.863 614.346 184.198 613.467 184.198C612.832 184.198 612.05 184.541 611.708 184.933Z" fill="url(#paint21_linear_103_93)" fill-opacity="0.15"/>
<path d="M1058.32 184.884C1057.93 185.373 1057.79 194.877 1057.79 219.862C1057.79 252.096 1057.74 254.399 1056.81 257.828C1055 265.029 1053 267.675 1047.28 270.369C1042.59 272.622 1041.17 274.141 1041.17 276.884C1041.17 279.579 1042.2 281.244 1044.69 282.665L1046.79 283.89H1065.36C1082.95 283.89 1084.02 283.841 1085.83 282.91C1088.37 281.636 1089.59 279.922 1089.69 277.423C1089.79 274.239 1088.81 273.014 1084.41 270.81C1079.82 268.507 1077.67 266.646 1076.06 263.462C1073.47 258.367 1073.42 257.583 1073.42 228.924V202.373L1067.26 193.261C1062.28 185.863 1060.91 184.198 1060.03 184.198C1059.4 184.198 1058.62 184.492 1058.32 184.884Z" fill="#990E0E"/>
<path d="M1058.32 184.884C1057.93 185.373 1057.79 194.877 1057.79 219.862C1057.79 252.096 1057.74 254.399 1056.81 257.828C1055 265.029 1053 267.675 1047.28 270.369C1042.59 272.622 1041.17 274.141 1041.17 276.884C1041.17 279.579 1042.2 281.244 1044.69 282.665L1046.79 283.89H1065.36C1082.95 283.89 1084.02 283.841 1085.83 282.91C1088.37 281.636 1089.59 279.922 1089.69 277.423C1089.79 274.239 1088.81 273.014 1084.41 270.81C1079.82 268.507 1077.67 266.646 1076.06 263.462C1073.47 258.367 1073.42 257.583 1073.42 228.924V202.373L1067.26 193.261C1062.28 185.863 1060.91 184.198 1060.03 184.198C1059.4 184.198 1058.62 184.492 1058.32 184.884Z" fill="url(#paint22_linear_103_93)" fill-opacity="0.15"/>
<path d="M148.236 231.668C135.778 233.676 126.592 243.131 126.543 254.056C126.494 269.389 140.224 281.587 161.917 285.457C166.168 286.192 166.51 286.192 167.731 285.36C169.05 284.527 169.05 284.478 169.05 278.55V272.573L165.777 271.594L162.454 270.614L165.63 268.948C169.734 266.695 173.399 263.07 175.206 259.395C176.428 256.799 176.623 255.917 176.623 252.047C176.623 248.128 176.477 247.295 175.109 244.405C170.858 235.489 159.23 229.953 148.236 231.668Z" fill="#990E0E"/>
<path d="M148.236 231.668C135.778 233.676 126.592 243.131 126.543 254.056C126.494 269.389 140.224 281.587 161.917 285.457C166.168 286.192 166.51 286.192 167.731 285.36C169.05 284.527 169.05 284.478 169.05 278.55V272.573L165.777 271.594L162.454 270.614L165.63 268.948C169.734 266.695 173.399 263.07 175.206 259.395C176.428 256.799 176.623 255.917 176.623 252.047C176.623 248.128 176.477 247.295 175.109 244.405C170.858 235.489 159.23 229.953 148.236 231.668Z" fill="url(#paint23_linear_103_93)" fill-opacity="0.15"/>
<path d="M760.97 233.676C759.163 234.215 757.599 235.636 756.475 237.742C755.694 239.163 755.596 241.172 755.596 259.885C755.596 279.579 755.645 280.51 756.573 282.126C757.843 284.282 759.602 285.556 761.801 285.898C764.928 286.437 766.931 285.702 769.716 283.155C773.722 279.579 774.846 279.53 783.934 282.91C789.015 284.821 793.999 285.898 799.715 286.388C803.428 286.682 803.868 286.633 804.894 285.653C805.529 285.066 805.969 284.135 805.871 283.498C805.822 282.91 805.725 280.314 805.725 277.717L805.676 273.063L802.158 272.231C789.943 269.291 778.804 258.073 774.651 244.552C772.745 238.281 771.621 236.273 769.325 234.901C767.029 233.578 763.169 232.991 760.97 233.676Z" fill="#990E0E"/>
<path d="M760.97 233.676C759.163 234.215 757.599 235.636 756.475 237.742C755.694 239.163 755.596 241.172 755.596 259.885C755.596 279.579 755.645 280.51 756.573 282.126C757.843 284.282 759.602 285.556 761.801 285.898C764.928 286.437 766.931 285.702 769.716 283.155C773.722 279.579 774.846 279.53 783.934 282.91C789.015 284.821 793.999 285.898 799.715 286.388C803.428 286.682 803.868 286.633 804.894 285.653C805.529 285.066 805.969 284.135 805.871 283.498C805.822 282.91 805.725 280.314 805.725 277.717L805.676 273.063L802.158 272.231C789.943 269.291 778.804 258.073 774.651 244.552C772.745 238.281 771.621 236.273 769.325 234.901C767.029 233.578 763.169 232.991 760.97 233.676Z" fill="url(#paint24_linear_103_93)" fill-opacity="0.15"/>
<path d="M616.105 298.685C607.262 299.566 598.711 301.771 591.774 305.004C568.615 315.635 554.495 337.631 553.224 364.917C551.612 400.875 570.374 426.545 603.5 433.551C605.991 434.089 611.073 434.775 614.737 435.118C623.678 435.902 623.434 436.098 623.434 427.917V421.891L621.626 421.548C619.183 421.107 615.665 419.246 614.053 417.531C613.32 416.796 612.245 415.033 611.61 413.71L610.486 411.261V366.632V322.052L611.952 319.113C613.711 315.635 616.691 313.43 620.747 312.499L623.434 311.911V305.935C623.434 298.097 623.287 297.95 616.105 298.685Z" fill="#990E0E"/>
<path d="M616.105 298.685C607.262 299.566 598.711 301.771 591.774 305.004C568.615 315.635 554.495 337.631 553.224 364.917C551.612 400.875 570.374 426.545 603.5 433.551C605.991 434.089 611.073 434.775 614.737 435.118C623.678 435.902 623.434 436.098 623.434 427.917V421.891L621.626 421.548C619.183 421.107 615.665 419.246 614.053 417.531C613.32 416.796 612.245 415.033 611.61 413.71L610.486 411.261V366.632V322.052L611.952 319.113C613.711 315.635 616.691 313.43 620.747 312.499L623.434 311.911V305.935C623.434 298.097 623.287 297.95 616.105 298.685Z" fill="url(#paint25_linear_103_93)" fill-opacity="0.15"/>
<path d="M629.639 299.174C628.955 299.958 628.808 301.134 628.808 306.033V311.911L631.398 312.499C644.101 315.341 655.387 327.735 660.322 344.244C662.618 351.788 665.11 354.189 670.68 354.189C674.442 354.189 676.592 353.013 678.058 350.27C679.132 348.114 679.132 347.967 679.132 326.265C679.132 306.033 679.035 304.318 678.204 302.457C676.054 297.754 667.504 296.872 664.67 301.036C664.133 301.771 663.107 303.044 662.374 303.877C661.104 305.2 660.811 305.298 658.71 305.053C657.439 304.906 653.677 303.975 650.306 302.947C641.072 300.203 636.088 298.978 633.157 298.587C630.909 298.293 630.372 298.391 629.639 299.174Z" fill="#990E0E"/>
<path d="M629.639 299.174C628.955 299.958 628.808 301.134 628.808 306.033V311.911L631.398 312.499C644.101 315.341 655.387 327.735 660.322 344.244C662.618 351.788 665.11 354.189 670.68 354.189C674.442 354.189 676.592 353.013 678.058 350.27C679.132 348.114 679.132 347.967 679.132 326.265C679.132 306.033 679.035 304.318 678.204 302.457C676.054 297.754 667.504 296.872 664.67 301.036C664.133 301.771 663.107 303.044 662.374 303.877C661.104 305.2 660.811 305.298 658.71 305.053C657.439 304.906 653.677 303.975 650.306 302.947C641.072 300.203 636.088 298.978 633.157 298.587C630.909 298.293 630.372 298.391 629.639 299.174Z" fill="url(#paint26_linear_103_93)" fill-opacity="0.15"/>
<path d="M753.153 298.88C741.964 300.84 735.026 302.898 728.773 306.033C713.236 313.822 702.194 326.657 697.015 342.921C694.279 351.494 693.546 356.589 693.546 367.171C693.595 374.764 693.79 377.507 694.669 381.965C697.552 396.417 703.366 407.489 713.04 416.796C723.3 426.643 736.346 432.571 752.958 434.824L758.821 435.608L760.042 434.481C761.215 433.404 761.263 433.159 761.117 427.77L760.97 422.234L758.234 421.107C754.668 419.638 752.616 418.168 751.541 416.258C750.759 414.788 750.71 411.31 750.71 366.926C750.71 320.044 750.71 319.113 751.687 317.496C752.958 315.39 754.374 314.312 758.039 312.793L760.97 311.618L761.117 306.131C761.215 301.036 761.166 300.546 760.189 299.517C759.016 298.244 757.55 298.097 753.153 298.88Z" fill="#990E0E"/>
<path d="M753.153 298.88C741.964 300.84 735.026 302.898 728.773 306.033C713.236 313.822 702.194 326.657 697.015 342.921C694.279 351.494 693.546 356.589 693.546 367.171C693.595 374.764 693.79 377.507 694.669 381.965C697.552 396.417 703.366 407.489 713.04 416.796C723.3 426.643 736.346 432.571 752.958 434.824L758.821 435.608L760.042 434.481C761.215 433.404 761.263 433.159 761.117 427.77L760.97 422.234L758.234 421.107C754.668 419.638 752.616 418.168 751.541 416.258C750.759 414.788 750.71 411.31 750.71 366.926C750.71 320.044 750.71 319.113 751.687 317.496C752.958 315.39 754.374 314.312 758.039 312.793L760.97 311.618L761.117 306.131C761.215 301.036 761.166 300.546 760.189 299.517C759.016 298.244 757.55 298.097 753.153 298.88Z" fill="url(#paint27_linear_103_93)" fill-opacity="0.15"/>
<path d="M767.078 299.664C766.198 300.791 766.052 301.428 766.296 303.485C766.442 304.808 766.589 307.257 766.589 308.923V311.862L769.178 312.695C772.305 313.675 775.188 315.978 776.116 318.28C776.752 319.75 776.849 326.657 776.849 366.632C776.849 397.25 776.654 413.857 776.361 415.033C775.677 417.384 772.989 419.687 769.227 421.107L766.345 422.185L766.54 427.966C766.736 435.412 766.98 435.755 771.475 435.314C773.234 435.118 777.289 434.432 780.562 433.795C809.291 428.015 828.248 408.664 833.036 380.349C834.844 369.62 834.111 355.364 831.278 345.469C826.196 327.735 815.447 314.655 799.324 306.474C791.8 302.653 784.618 300.497 774.846 299.076C768.201 298.146 768.299 298.146 767.078 299.664Z" fill="#990E0E"/>
<path d="M767.078 299.664C766.198 300.791 766.052 301.428 766.296 303.485C766.442 304.808 766.589 307.257 766.589 308.923V311.862L769.178 312.695C772.305 313.675 775.188 315.978 776.116 318.28C776.752 319.75 776.849 326.657 776.849 366.632C776.849 397.25 776.654 413.857 776.361 415.033C775.677 417.384 772.989 419.687 769.227 421.107L766.345 422.185L766.54 427.966C766.736 435.412 766.98 435.755 771.475 435.314C773.234 435.118 777.289 434.432 780.562 433.795C809.291 428.015 828.248 408.664 833.036 380.349C834.844 369.62 834.111 355.364 831.278 345.469C826.196 327.735 815.447 314.655 799.324 306.474C791.8 302.653 784.618 300.497 774.846 299.076C768.201 298.146 768.299 298.146 767.078 299.664Z" fill="url(#paint28_linear_103_93)" fill-opacity="0.15"/>
<path d="M1215.6 298.684C1194.54 300.742 1177.78 310.589 1170.94 324.942C1167.86 331.311 1167.03 335.377 1167.03 343.411C1166.98 349.486 1167.18 351.053 1168.16 354.189C1170.89 363.056 1175.68 369.424 1183.94 375.254C1191.36 380.496 1198.79 383.974 1216.72 390.44C1230.26 395.388 1234.85 397.593 1237.93 400.581C1240.96 403.569 1241.79 406.068 1241 409.742C1239.98 414.69 1235.83 418.07 1227.47 420.667L1222.93 422.038V427.966C1222.93 435.951 1222.83 435.853 1230.7 435.118C1241.3 434.089 1249.6 431.738 1257.62 427.623C1275.01 418.658 1284.29 404.108 1283.36 387.06C1283.07 381.475 1281.95 376.92 1279.85 372.755C1273.64 360.263 1261.33 351.935 1237.1 343.656C1223.22 338.953 1215.26 335.132 1212.08 331.752C1208.42 327.833 1207.88 324.012 1210.42 319.652C1211.98 317.055 1216.33 314.018 1220.44 312.744L1223.42 311.813V305.886C1223.42 298.048 1223.27 297.901 1215.6 298.684Z" fill="#990E0E"/>
<path d="M1215.6 298.684C1194.54 300.742 1177.78 310.589 1170.94 324.942C1167.86 331.311 1167.03 335.377 1167.03 343.411C1166.98 349.486 1167.18 351.053 1168.16 354.189C1170.89 363.056 1175.68 369.424 1183.94 375.254C1191.36 380.496 1198.79 383.974 1216.72 390.44C1230.26 395.388 1234.85 397.593 1237.93 400.581C1240.96 403.569 1241.79 406.068 1241 409.742C1239.98 414.69 1235.83 418.07 1227.47 420.667L1222.93 422.038V427.966C1222.93 435.951 1222.83 435.853 1230.7 435.118C1241.3 434.089 1249.6 431.738 1257.62 427.623C1275.01 418.658 1284.29 404.108 1283.36 387.06C1283.07 381.475 1281.95 376.92 1279.85 372.755C1273.64 360.263 1261.33 351.935 1237.1 343.656C1223.22 338.953 1215.26 335.132 1212.08 331.752C1208.42 327.833 1207.88 324.012 1210.42 319.652C1211.98 317.055 1216.33 314.018 1220.44 312.744L1223.42 311.813V305.886C1223.42 298.048 1223.27 297.901 1215.6 298.684Z" fill="url(#paint29_linear_103_93)" fill-opacity="0.15"/>
<path d="M1229.67 299.174C1228.94 299.958 1228.79 301.085 1228.79 305.984V311.813L1232.36 312.646C1234.26 313.136 1237.88 314.508 1240.27 315.684C1250.09 320.582 1257.18 328.764 1259.52 338.169C1260.06 340.227 1260.84 342.529 1261.23 343.362C1262.8 346.351 1266.66 347.918 1270.86 347.281C1273.84 346.84 1275.5 345.665 1276.77 343.264C1277.7 341.354 1277.75 340.472 1277.75 322.738C1277.7 305.739 1277.6 304.024 1276.82 302.653C1275.55 300.448 1273.69 299.272 1271.1 298.978C1268.12 298.635 1265.53 299.811 1263.48 302.359C1262.6 303.436 1261.48 304.465 1260.89 304.661C1260.25 304.906 1257.91 304.416 1254 303.142C1245.74 300.448 1239 298.88 1234.41 298.537C1230.94 298.244 1230.4 298.342 1229.67 299.174Z" fill="#990E0E"/>
<path d="M1229.67 299.174C1228.94 299.958 1228.79 301.085 1228.79 305.984V311.813L1232.36 312.646C1234.26 313.136 1237.88 314.508 1240.27 315.684C1250.09 320.582 1257.18 328.764 1259.52 338.169C1260.06 340.227 1260.84 342.529 1261.23 343.362C1262.8 346.351 1266.66 347.918 1270.86 347.281C1273.84 346.84 1275.5 345.665 1276.77 343.264C1277.7 341.354 1277.75 340.472 1277.75 322.738C1277.7 305.739 1277.6 304.024 1276.82 302.653C1275.55 300.448 1273.69 299.272 1271.1 298.978C1268.12 298.635 1265.53 299.811 1263.48 302.359C1262.6 303.436 1261.48 304.465 1260.89 304.661C1260.25 304.906 1257.91 304.416 1254 303.142C1245.74 300.448 1239 298.88 1234.41 298.537C1230.94 298.244 1230.4 298.342 1229.67 299.174Z" fill="url(#paint30_linear_103_93)" fill-opacity="0.15"/>
<path d="M261.881 301.232C257.631 302.555 256.018 304.465 256.018 308.188C256.018 311.618 257.875 313.528 262.761 314.949C264.911 315.635 266.474 316.369 266.767 316.957C267.109 317.545 267.256 334.74 267.256 367.122C267.256 415.866 267.256 416.356 266.279 417.286C265.741 417.776 263.933 418.56 262.272 419.05C260.269 419.589 258.754 420.422 257.679 421.499C256.214 422.969 256.018 423.459 256.018 425.663C256.018 428.75 256.947 430.317 259.634 431.738L261.637 432.816H294.372H327.107L329.111 431.689C331.651 430.219 332.726 428.358 332.726 425.467C332.726 422.234 330.772 420.324 325.984 418.903C323.834 418.217 322.27 417.482 321.977 416.894C321.635 416.307 321.489 396.662 321.489 359.186C321.489 304.808 321.44 302.359 320.609 301.624C319.779 300.889 317.091 300.791 291.392 300.84C275.855 300.84 262.565 301.036 261.881 301.232Z" fill="#990E0E"/>
<path d="M261.881 301.232C257.631 302.555 256.018 304.465 256.018 308.188C256.018 311.618 257.875 313.528 262.761 314.949C264.911 315.635 266.474 316.369 266.767 316.957C267.109 317.545 267.256 334.74 267.256 367.122C267.256 415.866 267.256 416.356 266.279 417.286C265.741 417.776 263.933 418.56 262.272 419.05C260.269 419.589 258.754 420.422 257.679 421.499C256.214 422.969 256.018 423.459 256.018 425.663C256.018 428.75 256.947 430.317 259.634 431.738L261.637 432.816H294.372H327.107L329.111 431.689C331.651 430.219 332.726 428.358 332.726 425.467C332.726 422.234 330.772 420.324 325.984 418.903C323.834 418.217 322.27 417.482 321.977 416.894C321.635 416.307 321.489 396.662 321.489 359.186C321.489 304.808 321.44 302.359 320.609 301.624C319.779 300.889 317.091 300.791 291.392 300.84C275.855 300.84 262.565 301.036 261.881 301.232Z" fill="url(#paint31_linear_103_93)" fill-opacity="0.15"/>
<path d="M327.742 301.624C327.01 302.408 326.863 303.534 326.863 308.482V314.41L329.453 315.243C333.019 316.418 336.39 318.77 337.71 321.121C338.785 323.032 338.833 323.473 338.98 337.778C339.175 354.532 338.931 356.785 336.439 359.235C334.827 360.851 331.944 362.027 329.599 362.027C326.716 362.027 326.619 362.272 326.765 369.522L326.912 376.087L329.355 376.381C332.531 376.773 334.974 377.948 336.39 379.859C338.589 382.7 339.078 386.178 339.078 398.279C339.127 411.016 339.713 415.474 342.058 420.275C345.185 426.692 352.025 431.836 360.429 434.138C365.51 435.51 378.897 435.657 384.516 434.383C392.431 432.571 402.056 426.251 406.307 419.981C409.922 414.69 409.629 410.477 405.574 407.733C402.007 405.333 398.099 405.823 394.483 409.154C392.969 410.526 392.285 410.918 392.089 410.477C391.991 410.085 391.796 404.598 391.747 398.23L391.6 386.717L389.744 382.994C386.47 376.283 379.679 371.629 369.223 368.836C365.51 367.857 364.484 367.416 365.217 367.171C374.549 363.546 377.187 362.174 381.585 358.794C386.128 355.218 389.548 349.976 391.112 344.097C392.138 340.325 392.089 331.556 391.063 327.539C389.744 322.493 387.154 318.084 383.05 314.018C378.604 309.609 373.963 306.866 366.927 304.514C359.696 302.114 353.393 301.281 340.055 300.938C329.062 300.693 328.524 300.693 327.742 301.624Z" fill="#990E0E"/>
<path d="M327.742 301.624C327.01 302.408 326.863 303.534 326.863 308.482V314.41L329.453 315.243C333.019 316.418 336.39 318.77 337.71 321.121C338.785 323.032 338.833 323.473 338.98 337.778C339.175 354.532 338.931 356.785 336.439 359.235C334.827 360.851 331.944 362.027 329.599 362.027C326.716 362.027 326.619 362.272 326.765 369.522L326.912 376.087L329.355 376.381C332.531 376.773 334.974 377.948 336.39 379.859C338.589 382.7 339.078 386.178 339.078 398.279C339.127 411.016 339.713 415.474 342.058 420.275C345.185 426.692 352.025 431.836 360.429 434.138C365.51 435.51 378.897 435.657 384.516 434.383C392.431 432.571 402.056 426.251 406.307 419.981C409.922 414.69 409.629 410.477 405.574 407.733C402.007 405.333 398.099 405.823 394.483 409.154C392.969 410.526 392.285 410.918 392.089 410.477C391.991 410.085 391.796 404.598 391.747 398.23L391.6 386.717L389.744 382.994C386.47 376.283 379.679 371.629 369.223 368.836C365.51 367.857 364.484 367.416 365.217 367.171C374.549 363.546 377.187 362.174 381.585 358.794C386.128 355.218 389.548 349.976 391.112 344.097C392.138 340.325 392.089 331.556 391.063 327.539C389.744 322.493 387.154 318.084 383.05 314.018C378.604 309.609 373.963 306.866 366.927 304.514C359.696 302.114 353.393 301.281 340.055 300.938C329.062 300.693 328.524 300.693 327.742 301.624Z" fill="url(#paint32_linear_103_93)" fill-opacity="0.15"/>
<path d="M421.013 301.379C419.987 301.673 418.375 302.653 417.447 303.583C415.932 305.053 415.785 305.494 415.785 307.943C415.785 310.393 415.981 310.883 417.398 312.254C418.473 313.332 420.085 314.214 422.479 314.949C424.678 315.586 426.192 316.369 426.534 316.957C427.218 318.231 427.218 415.621 426.534 416.894C426.192 417.482 424.678 418.266 422.479 418.903C417.593 420.422 415.785 422.234 415.785 425.663C415.785 428.75 416.714 430.317 419.401 431.738C421.404 432.816 421.6 432.816 450.426 432.963C477.054 433.061 479.497 433.012 480.327 432.277C481.207 431.444 481.256 429.24 481.256 366.926C481.256 305.053 481.207 302.359 480.376 301.624C479.546 300.889 476.858 300.791 451.159 300.84C433.716 300.889 422.137 301.085 421.013 301.379Z" fill="#990E0E"/>
<path d="M421.013 301.379C419.987 301.673 418.375 302.653 417.447 303.583C415.932 305.053 415.785 305.494 415.785 307.943C415.785 310.393 415.981 310.883 417.398 312.254C418.473 313.332 420.085 314.214 422.479 314.949C424.678 315.586 426.192 316.369 426.534 316.957C427.218 318.231 427.218 415.621 426.534 416.894C426.192 417.482 424.678 418.266 422.479 418.903C417.593 420.422 415.785 422.234 415.785 425.663C415.785 428.75 416.714 430.317 419.401 431.738C421.404 432.816 421.6 432.816 450.426 432.963C477.054 433.061 479.497 433.012 480.327 432.277C481.207 431.444 481.256 429.24 481.256 366.926C481.256 305.053 481.207 302.359 480.376 301.624C479.546 300.889 476.858 300.791 451.159 300.84C433.716 300.889 422.137 301.085 421.013 301.379Z" fill="url(#paint33_linear_103_93)" fill-opacity="0.15"/>
<path d="M487.461 301.673C486.777 302.408 486.63 303.681 486.63 308.482V314.361L490.197 314.949C500.017 316.565 506.564 319.75 512.574 325.726C516.238 329.449 517.069 330.576 519.512 335.671C522.932 342.774 523.665 343.411 528.404 343.411C531.238 343.411 532.215 343.215 533.583 342.284C536.466 340.325 536.466 340.423 536.466 320.827V302.898L535.342 301.869C534.218 300.791 534.169 300.791 511.206 300.791C489.562 300.791 488.194 300.84 487.461 301.673Z" fill="#990E0E"/>
<path d="M487.461 301.673C486.777 302.408 486.63 303.681 486.63 308.482V314.361L490.197 314.949C500.017 316.565 506.564 319.75 512.574 325.726C516.238 329.449 517.069 330.576 519.512 335.671C522.932 342.774 523.665 343.411 528.404 343.411C531.238 343.411 532.215 343.215 533.583 342.284C536.466 340.325 536.466 340.423 536.466 320.827V302.898L535.342 301.869C534.218 300.791 534.169 300.791 511.206 300.791C489.562 300.791 488.194 300.84 487.461 301.673Z" fill="url(#paint34_linear_103_93)" fill-opacity="0.15"/>
<path d="M856.537 301.428C854.437 302.114 851.798 304.71 851.505 306.425C851.065 308.531 851.945 311.226 853.459 312.597C854.241 313.283 856.44 314.361 858.345 314.949C860.495 315.586 862.01 316.369 862.352 316.957C863.036 318.231 863.036 415.621 862.352 416.894C862.058 417.482 860.495 418.217 858.345 418.903C853.459 420.324 851.603 422.234 851.603 425.663C851.603 428.75 852.531 430.317 855.218 431.738L857.221 432.816H889.957H922.692L924.695 431.689C927.236 430.219 928.311 428.358 928.311 425.467C928.311 422.332 926.405 420.373 921.715 418.903C919.858 418.315 918.001 417.433 917.708 416.992C917.22 416.404 917.073 404.108 917.073 359.333C917.073 304.808 917.024 302.359 916.194 301.624C915.363 300.889 912.676 300.791 886.732 300.84C867.677 300.889 857.661 301.085 856.537 301.428Z" fill="#990E0E"/>
<path d="M856.537 301.428C854.437 302.114 851.798 304.71 851.505 306.425C851.065 308.531 851.945 311.226 853.459 312.597C854.241 313.283 856.44 314.361 858.345 314.949C860.495 315.586 862.01 316.369 862.352 316.957C863.036 318.231 863.036 415.621 862.352 416.894C862.058 417.482 860.495 418.217 858.345 418.903C853.459 420.324 851.603 422.234 851.603 425.663C851.603 428.75 852.531 430.317 855.218 431.738L857.221 432.816H889.957H922.692L924.695 431.689C927.236 430.219 928.311 428.358 928.311 425.467C928.311 422.332 926.405 420.373 921.715 418.903C919.858 418.315 918.001 417.433 917.708 416.992C917.22 416.404 917.073 404.108 917.073 359.333C917.073 304.808 917.024 302.359 916.194 301.624C915.363 300.889 912.676 300.791 886.732 300.84C867.677 300.889 857.661 301.085 856.537 301.428Z" fill="url(#paint35_linear_103_93)" fill-opacity="0.15"/>
<path d="M923.327 301.575C922.643 302.359 922.496 303.681 922.399 308.384L922.301 314.263L925.379 315.39C929.288 316.81 931.877 318.672 933.294 321.121C934.369 323.032 934.418 323.473 934.564 337.68C934.76 354.434 934.467 356.785 932.024 359.235C930.411 360.851 927.529 362.027 925.232 362.027C922.447 362.027 922.447 362.076 922.447 369.424V376.234H923.815C925.819 376.234 928.848 377.213 930.46 378.34C931.242 378.879 932.415 380.545 933.147 382.063C934.369 384.758 934.418 385.052 934.711 398.769C934.955 409.546 935.199 413.416 935.835 415.621C938.326 424.635 945.606 431.297 956.013 434.138C961.094 435.51 974.482 435.657 980.1 434.383C988.015 432.571 997.641 426.251 1001.89 419.981C1005.51 414.69 1005.21 410.477 1001.16 407.733C997.592 405.333 993.683 405.823 990.116 409.105C988.944 410.183 987.869 410.869 987.722 410.575C987.527 410.33 987.429 405.382 987.478 399.601C987.527 388.187 987.283 386.521 984.84 381.965C981.81 376.185 974.775 371.58 964.905 368.885C961.143 367.857 960.068 367.416 960.801 367.171C972.967 362.566 978.732 358.745 982.934 352.621C986.208 347.82 988.357 339.149 987.673 333.222C986.305 321.317 980.394 312.989 969.547 307.453C960.655 302.898 952.495 301.33 935.883 300.938C924.793 300.693 924.109 300.693 923.327 301.575Z" fill="#990E0E"/>
<path d="M923.327 301.575C922.643 302.359 922.496 303.681 922.399 308.384L922.301 314.263L925.379 315.39C929.288 316.81 931.877 318.672 933.294 321.121C934.369 323.032 934.418 323.473 934.564 337.68C934.76 354.434 934.467 356.785 932.024 359.235C930.411 360.851 927.529 362.027 925.232 362.027C922.447 362.027 922.447 362.076 922.447 369.424V376.234H923.815C925.819 376.234 928.848 377.213 930.46 378.34C931.242 378.879 932.415 380.545 933.147 382.063C934.369 384.758 934.418 385.052 934.711 398.769C934.955 409.546 935.199 413.416 935.835 415.621C938.326 424.635 945.606 431.297 956.013 434.138C961.094 435.51 974.482 435.657 980.1 434.383C988.015 432.571 997.641 426.251 1001.89 419.981C1005.51 414.69 1005.21 410.477 1001.16 407.733C997.592 405.333 993.683 405.823 990.116 409.105C988.944 410.183 987.869 410.869 987.722 410.575C987.527 410.33 987.429 405.382 987.478 399.601C987.527 388.187 987.283 386.521 984.84 381.965C981.81 376.185 974.775 371.58 964.905 368.885C961.143 367.857 960.068 367.416 960.801 367.171C972.967 362.566 978.732 358.745 982.934 352.621C986.208 347.82 988.357 339.149 987.673 333.222C986.305 321.317 980.394 312.989 969.547 307.453C960.655 302.898 952.495 301.33 935.883 300.938C924.793 300.693 924.109 300.693 923.327 301.575Z" fill="url(#paint36_linear_103_93)" fill-opacity="0.15"/>
<path d="M1014.55 301.232C1010.64 302.212 1008.93 304.269 1008.93 307.992C1008.93 310.393 1009.12 310.883 1010.54 312.303C1011.66 313.43 1013.23 314.214 1015.67 314.998C1018.55 315.831 1019.33 316.271 1019.68 317.251C1020.36 319.015 1020.31 415.67 1019.68 416.894C1019.33 417.482 1017.82 418.266 1015.62 418.903C1013.23 419.638 1011.61 420.52 1010.54 421.597C1009.12 422.969 1008.93 423.459 1008.93 425.859C1008.93 428.848 1009.9 430.562 1012.49 431.983C1013.91 432.718 1016.65 432.816 1043.32 432.963C1070.24 433.11 1072.64 433.012 1073.47 432.277C1074.35 431.444 1074.4 429.338 1074.4 366.926C1074.4 305.053 1074.35 302.359 1073.52 301.624C1072.69 300.889 1070 300.791 1044.3 300.84C1028.76 300.889 1015.38 301.036 1014.55 301.232Z" fill="#990E0E"/>
<path d="M1014.55 301.232C1010.64 302.212 1008.93 304.269 1008.93 307.992C1008.93 310.393 1009.12 310.883 1010.54 312.303C1011.66 313.43 1013.23 314.214 1015.67 314.998C1018.55 315.831 1019.33 316.271 1019.68 317.251C1020.36 319.015 1020.31 415.67 1019.68 416.894C1019.33 417.482 1017.82 418.266 1015.62 418.903C1013.23 419.638 1011.61 420.52 1010.54 421.597C1009.12 422.969 1008.93 423.459 1008.93 425.859C1008.93 428.848 1009.9 430.562 1012.49 431.983C1013.91 432.718 1016.65 432.816 1043.32 432.963C1070.24 433.11 1072.64 433.012 1073.47 432.277C1074.35 431.444 1074.4 429.338 1074.4 366.926C1074.4 305.053 1074.35 302.359 1073.52 301.624C1072.69 300.889 1070 300.791 1044.3 300.84C1028.76 300.889 1015.38 301.036 1014.55 301.232Z" fill="url(#paint37_linear_103_93)" fill-opacity="0.15"/>
<path d="M1079.77 307.502V314.41L1082.07 314.753C1087.1 315.488 1090.47 318.035 1091.99 322.199C1092.96 324.796 1093.35 405.333 1092.43 409.742C1091.35 414.984 1087.64 418.364 1082.21 419.099L1079.77 419.442V425.418C1079.77 433.257 1079.82 433.355 1086.22 432.865C1104.15 431.64 1120.13 424.978 1131.81 413.857C1139.28 406.754 1144.22 399.062 1147.39 389.461C1149.69 382.406 1150.32 377.067 1149.98 367.073C1149.44 351.837 1145.73 339.198 1138.5 327.98C1135.57 323.473 1126.92 314.802 1122.28 311.813C1111.87 305.053 1100.24 301.526 1086.27 300.938L1079.77 300.644V307.502Z" fill="#990E0E"/>
<path d="M1079.77 307.502V314.41L1082.07 314.753C1087.1 315.488 1090.47 318.035 1091.99 322.199C1092.96 324.796 1093.35 405.333 1092.43 409.742C1091.35 414.984 1087.64 418.364 1082.21 419.099L1079.77 419.442V425.418C1079.77 433.257 1079.82 433.355 1086.22 432.865C1104.15 431.64 1120.13 424.978 1131.81 413.857C1139.28 406.754 1144.22 399.062 1147.39 389.461C1149.69 382.406 1150.32 377.067 1149.98 367.073C1149.44 351.837 1145.73 339.198 1138.5 327.98C1135.57 323.473 1126.92 314.802 1122.28 311.813C1111.87 305.053 1100.24 301.526 1086.27 300.938L1079.77 300.644V307.502Z" fill="url(#paint38_linear_103_93)" fill-opacity="0.15"/>
<path d="M507.395 337.484C504.024 338.316 502.46 340.325 500.066 346.987C498.21 352.229 494.008 356.344 489.122 357.814L486.874 358.451L486.728 365.358L486.581 372.217L489.22 373C494.594 374.568 497.965 378.193 500.701 385.444C502.998 391.518 505.05 393.38 509.349 393.38C512.281 393.38 514.773 392.155 515.848 390.244C516.58 388.873 516.678 386.472 516.678 365.211C516.678 342.921 516.629 341.648 515.75 340.325C514.137 337.973 510.473 336.7 507.395 337.484Z" fill="#990E0E"/>
<path d="M507.395 337.484C504.024 338.316 502.46 340.325 500.066 346.987C498.21 352.229 494.008 356.344 489.122 357.814L486.874 358.451L486.728 365.358L486.581 372.217L489.22 373C494.594 374.568 497.965 378.193 500.701 385.444C502.998 391.518 505.05 393.38 509.349 393.38C512.281 393.38 514.773 392.155 515.848 390.244C516.58 388.873 516.678 386.472 516.678 365.211C516.678 342.921 516.629 341.648 515.75 340.325C514.137 337.973 510.473 336.7 507.395 337.484Z" fill="url(#paint39_linear_103_93)" fill-opacity="0.15"/>
<path d="M1172.31 382.602C1169.92 383.337 1167.81 385.835 1167.23 388.677C1166.84 390.342 1166.74 397.495 1166.84 410.281C1166.98 431.346 1166.98 431.297 1170.16 433.551C1173.53 435.951 1177.44 435.461 1181.15 432.081C1184.96 428.603 1185.7 428.554 1194.49 431.542C1201.53 433.942 1209 435.51 1213.45 435.51C1215.89 435.51 1217.45 434.04 1217.31 431.836C1217.26 431.003 1217.16 428.505 1217.16 426.202L1217.06 421.989L1213.69 421.205C1201.53 418.364 1190.19 406.95 1186.04 393.478C1184.13 387.207 1183.01 385.199 1180.71 383.827C1178.42 382.504 1174.56 381.916 1172.31 382.602Z" fill="#990E0E"/>
<path d="M1172.31 382.602C1169.92 383.337 1167.81 385.835 1167.23 388.677C1166.84 390.342 1166.74 397.495 1166.84 410.281C1166.98 431.346 1166.98 431.297 1170.16 433.551C1173.53 435.951 1177.44 435.461 1181.15 432.081C1184.96 428.603 1185.7 428.554 1194.49 431.542C1201.53 433.942 1209 435.51 1213.45 435.51C1215.89 435.51 1217.45 434.04 1217.31 431.836C1217.26 431.003 1217.16 428.505 1217.16 426.202L1217.06 421.989L1213.69 421.205C1201.53 418.364 1190.19 406.95 1186.04 393.478C1184.13 387.207 1183.01 385.199 1180.71 383.827C1178.42 382.504 1174.56 381.916 1172.31 382.602Z" fill="url(#paint40_linear_103_93)" fill-opacity="0.15"/>
<path d="M526.352 389.853C524.349 390.93 523.323 392.302 521.075 396.809C514.87 409.301 504.805 416.551 490.441 418.903L486.63 419.54V425.467C486.63 430.611 486.728 431.542 487.51 432.228C488.34 432.963 490.734 433.061 512.134 433.061H535.831L536.905 431.885L537.98 430.758L537.834 412.093C537.687 394.115 537.638 393.38 536.661 392.057C534.511 389.118 529.626 388.089 526.352 389.853Z" fill="#990E0E"/>
<path d="M526.352 389.853C524.349 390.93 523.323 392.302 521.075 396.809C514.87 409.301 504.805 416.551 490.441 418.903L486.63 419.54V425.467C486.63 430.611 486.728 431.542 487.51 432.228C488.34 432.963 490.734 433.061 512.134 433.061H535.831L536.905 431.885L537.98 430.758L537.834 412.093C537.687 394.115 537.638 393.38 536.661 392.057C534.511 389.118 529.626 388.089 526.352 389.853Z" fill="url(#paint41_linear_103_93)" fill-opacity="0.15"/>
<path d="M666.82 392.89C665.305 393.723 664.621 394.702 662.569 398.867C661.201 401.659 659.1 405.186 657.879 406.705C652.651 413.367 643.27 418.756 632.815 421.107L628.808 422.038V428.75V435.51H631.935C644.345 435.51 658.612 428.799 669.41 417.923C673.709 413.612 674.931 412.044 676.641 408.566C679.768 402.198 680.061 397.25 677.422 394.36C675.175 391.861 670.094 391.175 666.82 392.89Z" fill="#990E0E"/>
<path d="M666.82 392.89C665.305 393.723 664.621 394.702 662.569 398.867C661.201 401.659 659.1 405.186 657.879 406.705C652.651 413.367 643.27 418.756 632.815 421.107L628.808 422.038V428.75V435.51H631.935C644.345 435.51 658.612 428.799 669.41 417.923C673.709 413.612 674.931 412.044 676.641 408.566C679.768 402.198 680.061 397.25 677.422 394.36C675.175 391.861 670.094 391.175 666.82 392.89Z" fill="url(#paint42_linear_103_93)" fill-opacity="0.15"/>
</g>
<path d="M451.265 476H447.037C446.787 474.784 446.35 473.716 445.725 472.795C445.111 471.875 444.361 471.102 443.475 470.477C442.6 469.841 441.628 469.364 440.56 469.045C439.492 468.727 438.378 468.568 437.219 468.568C435.106 468.568 433.191 469.102 431.475 470.17C429.77 471.239 428.412 472.812 427.401 474.892C426.401 476.972 425.901 479.523 425.901 482.545C425.901 485.568 426.401 488.119 427.401 490.199C428.412 492.278 429.77 493.852 431.475 494.92C433.191 495.989 435.106 496.523 437.219 496.523C438.378 496.523 439.492 496.364 440.56 496.045C441.628 495.727 442.6 495.256 443.475 494.631C444.361 493.994 445.111 493.216 445.725 492.295C446.35 491.364 446.787 490.295 447.037 489.091H451.265C450.947 490.875 450.367 492.472 449.526 493.881C448.685 495.29 447.64 496.489 446.39 497.477C445.14 498.455 443.736 499.199 442.18 499.71C440.634 500.222 438.981 500.477 437.219 500.477C434.242 500.477 431.594 499.75 429.276 498.295C426.958 496.841 425.134 494.773 423.805 492.091C422.475 489.409 421.81 486.227 421.81 482.545C421.81 478.864 422.475 475.682 423.805 473C425.134 470.318 426.958 468.25 429.276 466.795C431.594 465.341 434.242 464.614 437.219 464.614C438.981 464.614 440.634 464.869 442.18 465.381C443.736 465.892 445.14 466.642 446.39 467.631C447.64 468.608 448.685 469.801 449.526 471.21C450.367 472.608 450.947 474.205 451.265 476ZM484.19 482.545C484.19 486.227 483.525 489.409 482.196 492.091C480.866 494.773 479.043 496.841 476.724 498.295C474.406 499.75 471.758 500.477 468.781 500.477C465.804 500.477 463.156 499.75 460.838 498.295C458.52 496.841 456.696 494.773 455.366 492.091C454.037 489.409 453.372 486.227 453.372 482.545C453.372 478.864 454.037 475.682 455.366 473C456.696 470.318 458.52 468.25 460.838 466.795C463.156 465.341 465.804 464.614 468.781 464.614C471.758 464.614 474.406 465.341 476.724 466.795C479.043 468.25 480.866 470.318 482.196 473C483.525 475.682 484.19 478.864 484.19 482.545ZM480.099 482.545C480.099 479.523 479.594 476.972 478.582 474.892C477.582 472.812 476.224 471.239 474.508 470.17C472.804 469.102 470.895 468.568 468.781 468.568C466.668 468.568 464.753 469.102 463.037 470.17C461.332 471.239 459.974 472.812 458.963 474.892C457.963 476.972 457.463 479.523 457.463 482.545C457.463 485.568 457.963 488.119 458.963 490.199C459.974 492.278 461.332 493.852 463.037 494.92C464.753 495.989 466.668 496.523 468.781 496.523C470.895 496.523 472.804 495.989 474.508 494.92C476.224 493.852 477.582 492.278 478.582 490.199C479.594 488.119 480.099 485.568 480.099 482.545ZM487.938 500V465.091H500.143C502.575 465.091 504.58 465.511 506.16 466.352C507.739 467.182 508.915 468.301 509.688 469.71C510.461 471.108 510.847 472.659 510.847 474.364C510.847 475.864 510.58 477.102 510.046 478.08C509.523 479.057 508.83 479.83 507.967 480.398C507.114 480.966 506.188 481.386 505.188 481.659V482C506.256 482.068 507.33 482.443 508.41 483.125C509.489 483.807 510.393 484.784 511.12 486.057C511.847 487.33 512.211 488.886 512.211 490.727C512.211 492.477 511.813 494.051 511.018 495.449C510.222 496.847 508.967 497.955 507.251 498.773C505.535 499.591 503.302 500 500.552 500H487.938ZM492.165 496.25H500.552C503.313 496.25 505.273 495.716 506.433 494.648C507.603 493.568 508.188 492.261 508.188 490.727C508.188 489.545 507.887 488.455 507.285 487.455C506.683 486.443 505.825 485.636 504.711 485.034C503.597 484.42 502.279 484.114 500.756 484.114H492.165V496.25ZM492.165 480.432H500.006C501.279 480.432 502.427 480.182 503.45 479.682C504.484 479.182 505.302 478.477 505.904 477.568C506.518 476.659 506.825 475.591 506.825 474.364C506.825 472.83 506.29 471.528 505.222 470.46C504.154 469.381 502.461 468.841 500.143 468.841H492.165V480.432ZM515.797 500V465.091H527.592C530.331 465.091 532.57 465.585 534.308 466.574C536.058 467.551 537.354 468.875 538.195 470.545C539.036 472.216 539.456 474.08 539.456 476.136C539.456 478.193 539.036 480.062 538.195 481.744C537.365 483.426 536.081 484.767 534.342 485.767C532.604 486.756 530.377 487.25 527.661 487.25H519.206V483.5H527.524C529.399 483.5 530.905 483.176 532.041 482.528C533.178 481.881 534.002 481.006 534.513 479.903C535.036 478.79 535.297 477.534 535.297 476.136C535.297 474.739 535.036 473.489 534.513 472.386C534.002 471.284 533.172 470.42 532.024 469.795C530.877 469.159 529.354 468.841 527.456 468.841H520.024V500H515.797ZM542.906 500V465.091H563.974V468.841H547.133V480.636H562.883V484.386H547.133V496.25H564.247V500H542.906ZM568.233 465.091H573.279L585.142 494.068H585.551L597.415 465.091H602.46V500H598.506V473.477H598.165L587.256 500H583.438L572.529 473.477H572.188V500H568.233V465.091ZM607.576 500V465.091H628.645V468.841H611.804V480.636H627.554V484.386H611.804V496.25H628.917V500H607.576ZM632.904 500V465.091H637.131V480.636H655.745V465.091H659.972V500H655.745V484.386H637.131V500H632.904ZM665.075 500V465.091H669.302V480.636H687.916V465.091H692.143V500H687.916V484.386H669.302V500H665.075ZM698.678 500H694.246L707.065 465.091H711.428L724.246 500H719.815L709.383 470.614H709.11L698.678 500ZM700.315 486.364H718.178V490.114H700.315V486.364ZM750.051 500H745.824V468.841H738.392C736.506 468.841 734.989 469.131 733.841 469.71C732.693 470.278 731.858 471.085 731.335 472.131C730.812 473.176 730.551 474.398 730.551 475.795C730.551 477.193 730.807 478.398 731.318 479.409C731.841 480.409 732.67 481.182 733.807 481.727C734.955 482.273 736.46 482.545 738.324 482.545H747.733V486.364H738.187C735.483 486.364 733.261 485.915 731.523 485.017C729.784 484.108 728.494 482.858 727.653 481.267C726.812 479.676 726.392 477.852 726.392 475.795C726.392 473.739 726.812 471.903 727.653 470.29C728.494 468.676 729.79 467.409 731.54 466.489C733.29 465.557 735.528 465.091 738.256 465.091H750.051V500ZM733.619 484.318H738.392L729.937 500H725.028L733.619 484.318ZM793.398 476H789.171C788.921 474.784 788.483 473.716 787.858 472.795C787.244 471.875 786.494 471.102 785.608 470.477C784.733 469.841 783.761 469.364 782.693 469.045C781.625 468.727 780.512 468.568 779.352 468.568C777.239 468.568 775.324 469.102 773.608 470.17C771.904 471.239 770.546 472.812 769.534 474.892C768.534 476.972 768.034 479.523 768.034 482.545C768.034 485.568 768.534 488.119 769.534 490.199C770.546 492.278 771.904 493.852 773.608 494.92C775.324 495.989 777.239 496.523 779.352 496.523C780.512 496.523 781.625 496.364 782.693 496.045C783.761 495.727 784.733 495.256 785.608 494.631C786.494 493.994 787.244 493.216 787.858 492.295C788.483 491.364 788.921 490.295 789.171 489.091H793.398C793.08 490.875 792.5 492.472 791.659 493.881C790.818 495.29 789.773 496.489 788.523 497.477C787.273 498.455 785.869 499.199 784.313 499.71C782.767 500.222 781.114 500.477 779.352 500.477C776.375 500.477 773.727 499.75 771.409 498.295C769.091 496.841 767.267 494.773 765.938 492.091C764.608 489.409 763.943 486.227 763.943 482.545C763.943 478.864 764.608 475.682 765.938 473C767.267 470.318 769.091 468.25 771.409 466.795C773.727 465.341 776.375 464.614 779.352 464.614C781.114 464.614 782.767 464.869 784.313 465.381C785.869 465.892 787.273 466.642 788.523 467.631C789.773 468.608 790.818 469.801 791.659 471.21C792.5 472.608 793.08 474.205 793.398 476ZM794.96 468.841V465.091H821.142V468.841H810.164V500H805.937V468.841H794.96ZM826.147 500.477V496.523H828.328C829.169 496.523 829.874 496.358 830.442 496.028C831.022 495.699 831.499 495.273 831.874 494.75C832.26 494.227 832.578 493.682 832.828 493.114L833.374 491.818L821.306 465.091H825.874L835.488 486.773L844.283 465.091H848.783L836.715 494.341C836.238 495.432 835.692 496.443 835.078 497.375C834.476 498.307 833.652 499.057 832.607 499.625C831.573 500.193 830.169 500.477 828.397 500.477H826.147ZM847.899 508.455V496.25H850.149C850.922 495.545 851.649 494.551 852.331 493.267C853.024 491.972 853.609 490.244 854.086 488.085C854.575 485.915 854.899 483.159 855.058 479.818L855.808 465.091H876.535V496.25H880.558V508.386H876.535V500H851.922V508.455H847.899ZM855.194 496.25H872.512V468.841H859.626L859.081 479.818C858.944 482.364 858.706 484.67 858.365 486.739C858.024 488.795 857.586 490.619 857.052 492.21C856.518 493.79 855.899 495.136 855.194 496.25ZM883.586 465.091H887.745V492.568H888.086L907.177 465.091H911.267V500H907.04V472.591H906.699L887.677 500H883.586V465.091ZM940.094 500H935.866V468.841H928.434C926.548 468.841 925.031 469.131 923.883 469.71C922.736 470.278 921.9 471.085 921.378 472.131C920.855 473.176 920.594 474.398 920.594 475.795C920.594 477.193 920.849 478.398 921.361 479.409C921.883 480.409 922.713 481.182 923.849 481.727C924.997 482.273 926.503 482.545 928.366 482.545H937.775V486.364H928.23C925.525 486.364 923.304 485.915 921.565 485.017C919.827 484.108 918.537 482.858 917.696 481.267C916.855 479.676 916.434 477.852 916.434 475.795C916.434 473.739 916.855 471.903 917.696 470.29C918.537 468.676 919.832 467.409 921.582 466.489C923.332 465.557 925.571 465.091 928.298 465.091H940.094V500ZM923.662 484.318H928.434L919.98 500H915.071L923.662 484.318ZM966.531 500.477C964.281 500.477 962.276 500.091 960.514 499.318C958.764 498.545 957.372 497.472 956.338 496.097C955.315 494.71 954.759 493.102 954.668 491.273H958.963C959.054 492.398 959.44 493.369 960.122 494.188C960.804 494.994 961.696 495.619 962.798 496.062C963.901 496.506 965.122 496.727 966.463 496.727C967.963 496.727 969.293 496.466 970.452 495.943C971.611 495.42 972.52 494.693 973.179 493.761C973.838 492.83 974.168 491.75 974.168 490.523C974.168 489.239 973.849 488.108 973.213 487.131C972.577 486.142 971.645 485.369 970.418 484.812C969.19 484.256 967.69 483.977 965.918 483.977H963.122V480.227H965.918C967.304 480.227 968.52 479.977 969.565 479.477C970.622 478.977 971.446 478.273 972.037 477.364C972.639 476.455 972.94 475.386 972.94 474.159C972.94 472.977 972.679 471.949 972.156 471.074C971.634 470.199 970.895 469.517 969.94 469.028C968.997 468.54 967.884 468.295 966.599 468.295C965.395 468.295 964.259 468.517 963.19 468.96C962.134 469.392 961.27 470.023 960.599 470.852C959.929 471.67 959.565 472.659 959.509 473.818H955.418C955.486 471.989 956.037 470.386 957.071 469.011C958.105 467.625 959.457 466.545 961.128 465.773C962.81 465 964.656 464.614 966.668 464.614C968.827 464.614 970.679 465.051 972.224 465.926C973.77 466.79 974.957 467.932 975.787 469.352C976.617 470.773 977.031 472.307 977.031 473.955C977.031 475.92 976.514 477.597 975.48 478.983C974.457 480.369 973.065 481.33 971.304 481.864V482.136C973.509 482.5 975.23 483.437 976.469 484.949C977.707 486.449 978.327 488.307 978.327 490.523C978.327 492.42 977.81 494.125 976.776 495.636C975.753 497.136 974.355 498.318 972.582 499.182C970.81 500.045 968.793 500.477 966.531 500.477ZM982.552 500V465.091H994.757C997.188 465.091 999.194 465.511 1000.77 466.352C1002.35 467.182 1003.53 468.301 1004.3 469.71C1005.07 471.108 1005.46 472.659 1005.46 474.364C1005.46 475.864 1005.19 477.102 1004.66 478.08C1004.14 479.057 1003.44 479.83 1002.58 480.398C1001.73 480.966 1000.8 481.386 999.802 481.659V482C1000.87 482.068 1001.94 482.443 1003.02 483.125C1004.1 483.807 1005.01 484.784 1005.73 486.057C1006.46 487.33 1006.82 488.886 1006.82 490.727C1006.82 492.477 1006.43 494.051 1005.63 495.449C1004.84 496.847 1003.58 497.955 1001.86 498.773C1000.15 499.591 997.916 500 995.166 500H982.552ZM986.779 496.25H995.166C997.927 496.25 999.887 495.716 1001.05 494.648C1002.22 493.568 1002.8 492.261 1002.8 490.727C1002.8 489.545 1002.5 488.455 1001.9 487.455C1001.3 486.443 1000.44 485.636 999.325 485.034C998.211 484.42 996.893 484.114 995.37 484.114H986.779V496.25ZM986.779 480.432H994.62C995.893 480.432 997.041 480.182 998.063 479.682C999.097 479.182 999.916 478.477 1000.52 477.568C1001.13 476.659 1001.44 475.591 1001.44 474.364C1001.44 472.83 1000.9 471.528 999.836 470.46C998.768 469.381 997.075 468.841 994.757 468.841H986.779V480.432ZM1012.25 500.477V496.523H1014.43C1015.27 496.523 1015.98 496.358 1016.55 496.028C1017.13 495.699 1017.6 495.273 1017.98 494.75C1018.37 494.227 1018.68 493.682 1018.93 493.114L1019.48 491.818L1007.41 465.091H1011.98L1021.59 486.773L1030.39 465.091H1034.89L1022.82 494.341C1022.34 495.432 1021.8 496.443 1021.18 497.375C1020.58 498.307 1019.76 499.057 1018.71 499.625C1017.68 500.193 1016.27 500.477 1014.5 500.477H1012.25ZM1057.53 500L1045.53 483.977H1041.23V500H1037V465.091H1041.23V480.227H1043.07L1057.05 465.091H1062.09L1047.98 480.432L1062.57 500H1057.53ZM1092.49 482.545C1092.49 486.227 1091.82 489.409 1090.49 492.091C1089.17 494.773 1087.34 496.841 1085.02 498.295C1082.7 499.75 1080.06 500.477 1077.08 500.477C1074.1 500.477 1071.45 499.75 1069.14 498.295C1066.82 496.841 1064.99 494.773 1063.67 492.091C1062.34 489.409 1061.67 486.227 1061.67 482.545C1061.67 478.864 1062.34 475.682 1063.67 473C1064.99 470.318 1066.82 468.25 1069.14 466.795C1071.45 465.341 1074.1 464.614 1077.08 464.614C1080.06 464.614 1082.7 465.341 1085.02 466.795C1087.34 468.25 1089.17 470.318 1090.49 473C1091.82 475.682 1092.49 478.864 1092.49 482.545ZM1088.4 482.545C1088.4 479.523 1087.89 476.972 1086.88 474.892C1085.88 472.812 1084.52 471.239 1082.81 470.17C1081.1 469.102 1079.19 468.568 1077.08 468.568C1074.97 468.568 1073.05 469.102 1071.34 470.17C1069.63 471.239 1068.27 472.812 1067.26 474.892C1066.26 476.972 1065.76 479.523 1065.76 482.545C1065.76 485.568 1066.26 488.119 1067.26 490.199C1068.27 492.278 1069.63 493.852 1071.34 494.92C1073.05 495.989 1074.97 496.523 1077.08 496.523C1079.19 496.523 1081.1 495.989 1082.81 494.92C1084.52 493.852 1085.88 492.278 1086.88 490.199C1087.89 488.119 1088.4 485.568 1088.4 482.545ZM1107.42 500.477C1105.17 500.477 1103.16 500.091 1101.4 499.318C1099.65 498.545 1098.26 497.472 1097.23 496.097C1096.2 494.71 1095.65 493.102 1095.56 491.273H1099.85C1099.94 492.398 1100.33 493.369 1101.01 494.188C1101.69 494.994 1102.58 495.619 1103.69 496.062C1104.79 496.506 1106.01 496.727 1107.35 496.727C1108.85 496.727 1110.18 496.466 1111.34 495.943C1112.5 495.42 1113.41 494.693 1114.07 493.761C1114.73 492.83 1115.06 491.75 1115.06 490.523C1115.06 489.239 1114.74 488.108 1114.1 487.131C1113.46 486.142 1112.53 485.369 1111.31 484.812C1110.08 484.256 1108.58 483.977 1106.81 483.977H1104.01V480.227H1106.81C1108.19 480.227 1109.41 479.977 1110.45 479.477C1111.51 478.977 1112.33 478.273 1112.92 477.364C1113.53 476.455 1113.83 475.386 1113.83 474.159C1113.83 472.977 1113.57 471.949 1113.04 471.074C1112.52 470.199 1111.78 469.517 1110.83 469.028C1109.88 468.54 1108.77 468.295 1107.49 468.295C1106.28 468.295 1105.15 468.517 1104.08 468.96C1103.02 469.392 1102.16 470.023 1101.49 470.852C1100.82 471.67 1100.45 472.659 1100.4 473.818H1096.31C1096.37 471.989 1096.92 470.386 1097.96 469.011C1098.99 467.625 1100.34 466.545 1102.02 465.773C1103.7 465 1105.54 464.614 1107.56 464.614C1109.71 464.614 1111.57 465.051 1113.11 465.926C1114.66 466.79 1115.84 467.932 1116.67 469.352C1117.5 470.773 1117.92 472.307 1117.92 473.955C1117.92 475.92 1117.4 477.597 1116.37 478.983C1115.34 480.369 1113.95 481.33 1112.19 481.864V482.136C1114.4 482.5 1116.12 483.437 1117.36 484.949C1118.59 486.449 1119.21 488.307 1119.21 490.523C1119.21 492.42 1118.7 494.125 1117.66 495.636C1116.64 497.136 1115.24 498.318 1113.47 499.182C1111.7 500.045 1109.68 500.477 1107.42 500.477ZM1124.87 500H1120.44L1133.26 465.091H1137.62L1150.44 500H1146.01L1135.58 470.614H1135.3L1124.87 500ZM1126.51 486.364H1144.37V490.114H1126.51V486.364ZM1178.63 465.091V500H1174.4V468.841H1156.81V500H1152.59V465.091H1178.63ZM1183.8 465.091H1187.96V492.568H1188.3L1207.39 465.091H1211.48V500H1207.25V472.591H1206.91L1187.89 500H1183.8V465.091ZM1244.67 476H1240.44C1240.19 474.784 1239.75 473.716 1239.13 472.795C1238.52 471.875 1237.77 471.102 1236.88 470.477C1236 469.841 1235.03 469.364 1233.96 469.045C1232.9 468.727 1231.78 468.568 1230.62 468.568C1228.51 468.568 1226.6 469.102 1224.88 470.17C1223.17 471.239 1221.82 472.812 1220.81 474.892C1219.81 476.972 1219.31 479.523 1219.31 482.545C1219.31 485.568 1219.81 488.119 1220.81 490.199C1221.82 492.278 1223.17 493.852 1224.88 494.92C1226.6 495.989 1228.51 496.523 1230.62 496.523C1231.78 496.523 1232.9 496.364 1233.96 496.045C1235.03 495.727 1236 495.256 1236.88 494.631C1237.77 493.994 1238.52 493.216 1239.13 492.295C1239.75 491.364 1240.19 490.295 1240.44 489.091H1244.67C1244.35 490.875 1243.77 492.472 1242.93 493.881C1242.09 495.29 1241.04 496.489 1239.79 497.477C1238.54 498.455 1237.14 499.199 1235.58 499.71C1234.04 500.222 1232.39 500.477 1230.62 500.477C1227.65 500.477 1225 499.75 1222.68 498.295C1220.36 496.841 1218.54 494.773 1217.21 492.091C1215.88 489.409 1215.21 486.227 1215.21 482.545C1215.21 478.864 1215.88 475.682 1217.21 473C1218.54 470.318 1220.36 468.25 1222.68 466.795C1225 465.341 1227.65 464.614 1230.62 464.614C1232.39 464.614 1234.04 464.869 1235.58 465.381C1237.14 465.892 1238.54 466.642 1239.79 467.631C1241.04 468.608 1242.09 469.801 1242.93 471.21C1243.77 472.608 1244.35 474.205 1244.67 476ZM1248.14 465.091H1252.3V492.568H1252.64L1271.73 465.091H1275.82V500H1271.59V472.591H1271.25L1252.23 500H1248.14V465.091Z" fill="#B3B0B0"/>
<defs>
<linearGradient id="paint0_linear_103_93" x1="35.5349" y1="179.491" x2="20.2223" y2="-37.4824" gradientUnits="userSpaceOnUse">
<stop/>
<stop offset="1" stop-opacity="0"/>
</linearGradient>
<linearGradient id="paint1_linear_103_93" x1="101.285" y1="73.3969" x2="97.7188" y2="-15.3079" gradientUnits="userSpaceOnUse">
<stop/>
<stop offset="1" stop-opacity="0"/>
</linearGradient>
<linearGradient id="paint2_linear_103_93" x1="230.313" y1="175.605" x2="220.44" y2="-34.3144" gradientUnits="userSpaceOnUse">
<stop/>
<stop offset="1" stop-opacity="0"/>
</linearGradient>
<linearGradient id="paint3_linear_103_93" x1="333.312" y1="175.285" x2="320.273" y2="-33.8962" gradientUnits="userSpaceOnUse">
<stop/>
<stop offset="1" stop-opacity="0"/>
</linearGradient>
<linearGradient id="paint4_linear_103_93" x1="406.606" y1="178.69" x2="393.955" y2="-34.6916" gradientUnits="userSpaceOnUse">
<stop/>
<stop offset="1" stop-opacity="0"/>
</linearGradient>
<linearGradient id="paint5_linear_103_93" x1="497.683" y1="175.627" x2="484.683" y2="-33.8092" gradientUnits="userSpaceOnUse">
<stop/>
<stop offset="1" stop-opacity="0"/>
</linearGradient>
<linearGradient id="paint6_linear_103_93" x1="162.854" y1="168.172" x2="150.916" y2="-2.99017" gradientUnits="userSpaceOnUse">
<stop/>
<stop offset="1" stop-opacity="0"/>
</linearGradient>
<linearGradient id="paint7_linear_103_93" x1="553.672" y1="150.014" x2="550.828" y2="73.1118" gradientUnits="userSpaceOnUse">
<stop/>
<stop offset="1" stop-opacity="0"/>
</linearGradient>
<linearGradient id="paint8_linear_103_93" x1="101.339" y1="150.963" x2="99.174" y2="81.7399" gradientUnits="userSpaceOnUse">
<stop/>
<stop offset="1" stop-opacity="0"/>
</linearGradient>
<linearGradient id="paint9_linear_103_93" x1="294.328" y1="328.571" x2="278.399" y2="111.581" gradientUnits="userSpaceOnUse">
<stop/>
<stop offset="1" stop-opacity="0"/>
</linearGradient>
<linearGradient id="paint10_linear_103_93" x1="367.127" y1="328.149" x2="351.205" y2="111.754" gradientUnits="userSpaceOnUse">
<stop/>
<stop offset="1" stop-opacity="0"/>
</linearGradient>
<linearGradient id="paint11_linear_103_93" x1="813.525" y1="328.403" x2="804.267" y2="110.832" gradientUnits="userSpaceOnUse">
<stop/>
<stop offset="1" stop-opacity="0"/>
</linearGradient>
<linearGradient id="paint12_linear_103_93" x1="841.859" y1="213.589" x2="839.035" y2="135.604" gradientUnits="userSpaceOnUse">
<stop/>
<stop offset="1" stop-opacity="0"/>
</linearGradient>
<linearGradient id="paint13_linear_103_93" x1="920.753" y1="328.568" x2="904.816" y2="111.596" gradientUnits="userSpaceOnUse">
<stop/>
<stop offset="1" stop-opacity="0"/>
</linearGradient>
<linearGradient id="paint14_linear_103_93" x1="993.582" y1="328.326" x2="977.655" y2="111.715" gradientUnits="userSpaceOnUse">
<stop/>
<stop offset="1" stop-opacity="0"/>
</linearGradient>
<linearGradient id="paint15_linear_103_93" x1="209.419" y1="327.814" x2="195.95" y2="114.448" gradientUnits="userSpaceOnUse">
<stop/>
<stop offset="1" stop-opacity="0"/>
</linearGradient>
<linearGradient id="paint16_linear_103_93" x1="495.968" y1="324.441" x2="489.476" y2="114.535" gradientUnits="userSpaceOnUse">
<stop/>
<stop offset="1" stop-opacity="0"/>
</linearGradient>
<linearGradient id="paint17_linear_103_93" x1="658.222" y1="324.531" x2="650.282" y2="114.447" gradientUnits="userSpaceOnUse">
<stop/>
<stop offset="1" stop-opacity="0"/>
</linearGradient>
<linearGradient id="paint18_linear_103_93" x1="713.719" y1="251.614" x2="706.933" y2="130.508" gradientUnits="userSpaceOnUse">
<stop/>
<stop offset="1" stop-opacity="0"/>
</linearGradient>
<linearGradient id="paint19_linear_103_93" x1="1104.78" y1="324.531" x2="1096.84" y2="114.447" gradientUnits="userSpaceOnUse">
<stop/>
<stop offset="1" stop-opacity="0"/>
</linearGradient>
<linearGradient id="paint20_linear_103_93" x1="1160.37" y1="251.614" x2="1153.56" y2="130.511" gradientUnits="userSpaceOnUse">
<stop/>
<stop offset="1" stop-opacity="0"/>
</linearGradient>
<linearGradient id="paint21_linear_103_93" x1="618.776" y1="314.337" x2="607.042" y2="156.643" gradientUnits="userSpaceOnUse">
<stop/>
<stop offset="1" stop-opacity="0"/>
</linearGradient>
<linearGradient id="paint22_linear_103_93" x1="1065.34" y1="314.337" x2="1053.61" y2="156.643" gradientUnits="userSpaceOnUse">
<stop/>
<stop offset="1" stop-opacity="0"/>
</linearGradient>
<linearGradient id="paint23_linear_103_93" x1="151.487" y1="302.684" x2="148.058" y2="215.911" gradientUnits="userSpaceOnUse">
<stop/>
<stop offset="1" stop-opacity="0"/>
</linearGradient>
<linearGradient id="paint24_linear_103_93" x1="780.644" y1="302.781" x2="777.412" y2="218.353" gradientUnits="userSpaceOnUse">
<stop/>
<stop offset="1" stop-opacity="0"/>
</linearGradient>
<linearGradient id="paint25_linear_103_93" x1="588.146" y1="477.338" x2="572.828" y2="260.393" gradientUnits="userSpaceOnUse">
<stop/>
<stop offset="1" stop-opacity="0"/>
</linearGradient>
<linearGradient id="paint26_linear_103_93" x1="653.874" y1="371.238" x2="650.313" y2="282.59" gradientUnits="userSpaceOnUse">
<stop/>
<stop offset="1" stop-opacity="0"/>
</linearGradient>
<linearGradient id="paint27_linear_103_93" x1="727.231" y1="477.513" x2="711.282" y2="260.444" gradientUnits="userSpaceOnUse">
<stop/>
<stop offset="1" stop-opacity="0"/>
</linearGradient>
<linearGradient id="paint28_linear_103_93" x1="799.976" y1="477.281" x2="784.121" y2="260.531" gradientUnits="userSpaceOnUse">
<stop/>
<stop offset="1" stop-opacity="0"/>
</linearGradient>
<linearGradient id="paint29_linear_103_93" x1="1225" y1="477.294" x2="1215.72" y2="259.685" gradientUnits="userSpaceOnUse">
<stop/>
<stop offset="1" stop-opacity="0"/>
</linearGradient>
<linearGradient id="paint30_linear_103_93" x1="1253.17" y1="362.397" x2="1250.35" y2="284.507" gradientUnits="userSpaceOnUse">
<stop/>
<stop offset="1" stop-opacity="0"/>
</linearGradient>
<linearGradient id="paint31_linear_103_93" x1="294.225" y1="473.125" x2="281.194" y2="264.004" gradientUnits="userSpaceOnUse">
<stop/>
<stop offset="1" stop-opacity="0"/>
</linearGradient>
<linearGradient id="paint32_linear_103_93" x1="367.619" y1="476.323" x2="354.98" y2="263.207" gradientUnits="userSpaceOnUse">
<stop/>
<stop offset="1" stop-opacity="0"/>
</linearGradient>
<linearGradient id="paint33_linear_103_93" x1="448.395" y1="473.366" x2="433.107" y2="264.257" gradientUnits="userSpaceOnUse">
<stop/>
<stop offset="1" stop-opacity="0"/>
</linearGradient>
<linearGradient id="paint34_linear_103_93" x1="511.452" y1="356.428" x2="509.355" y2="288.702" gradientUnits="userSpaceOnUse">
<stop/>
<stop offset="1" stop-opacity="0"/>
</linearGradient>
<linearGradient id="paint35_linear_103_93" x1="889.704" y1="473.125" x2="876.708" y2="264" gradientUnits="userSpaceOnUse">
<stop/>
<stop offset="1" stop-opacity="0"/>
</linearGradient>
<linearGradient id="paint36_linear_103_93" x1="963.2" y1="476.323" x2="950.561" y2="263.205" gradientUnits="userSpaceOnUse">
<stop/>
<stop offset="1" stop-opacity="0"/>
</linearGradient>
<linearGradient id="paint37_linear_103_93" x1="1041.54" y1="473.393" x2="1026.24" y2="264.252" gradientUnits="userSpaceOnUse">
<stop/>
<stop offset="1" stop-opacity="0"/>
</linearGradient>
<linearGradient id="paint38_linear_103_93" x1="1114.78" y1="473.463" x2="1100.49" y2="263.867" gradientUnits="userSpaceOnUse">
<stop/>
<stop offset="1" stop-opacity="0"/>
</linearGradient>
<linearGradient id="paint39_linear_103_93" x1="501.572" y1="410.521" x2="495.57" y2="321.652" gradientUnits="userSpaceOnUse">
<stop/>
<stop offset="1" stop-opacity="0"/>
</linearGradient>
<linearGradient id="paint40_linear_103_93" x1="1191.96" y1="451.757" x2="1188.74" y2="367.267" gradientUnits="userSpaceOnUse">
<stop/>
<stop offset="1" stop-opacity="0"/>
</linearGradient>
<linearGradient id="paint41_linear_103_93" x1="512.207" y1="446.521" x2="510.03" y2="376.487" gradientUnits="userSpaceOnUse">
<stop/>
<stop offset="1" stop-opacity="0"/>
</linearGradient>
<linearGradient id="paint42_linear_103_93" x1="653.914" y1="448.816" x2="651.746" y2="379.587" gradientUnits="userSpaceOnUse">
<stop/>
<stop offset="1" stop-opacity="0"/>
</linearGradient>
<clipPath id="clip0_103_93">
<rect width="1284" height="436" fill="white"/>
</clipPath>
</defs>
</svg>
