<?xml version="1.0" encoding="utf-8"?><!-- Uploaded to: SVG Repo, www.svgrepo.com, Generator: SVG Repo Mixer Tools -->
<svg version="1.1" id="designs" xmlns="http://www.w3.org/2000/svg" xmlns:xlink="http://www.w3.org/1999/xlink" 
	 width="800px" height="800px" viewBox="0 0 32 32" xml:space="preserve">
<style type="text/css">
	.sketchy_een{fill:white;}
</style>
<path class="sketchy_een" d="M30.896,23.912c-0.036-0.872-0.023-1.745-0.008-2.615c0.015-0.9,0.03-1.797,0.049-2.695
	c0.019-0.929,0.011-1.861,0.027-2.79c0.013-0.731,0.034-1.464,0.036-2.195c0.004-0.746-0.008-1.489-0.017-2.235
	c-0.017-1.508-0.03-3.02-0.224-4.52c-0.017-0.127-0.037-0.242-0.076-0.349c0.034-0.061,0.075-0.119,0.094-0.187
	c0.063-0.228,0.03-0.475-0.089-0.68c-0.165-0.281-0.446-0.416-0.762-0.437c-0.393-0.025-0.786-0.034-1.176-0.059
	c-0.38-0.021-0.756-0.051-1.136-0.074c-0.817-0.044-1.643-0.03-2.461-0.036c-0.609-0.005-1.219-0.009-1.828-0.009
	c-1.023,0-2.047,0.011-3.07,0.047c-1.635,0.059-3.274,0.116-4.913,0.106c-0.815-0.006-1.635-0.008-2.45,0.011
	c-0.83,0.019-1.66,0.061-2.488,0.084C9.107,5.315,7.813,5.298,6.518,5.311C5.088,5.328,3.66,5.319,2.23,5.357
	C1.9,5.367,1.617,5.555,1.462,5.825C1.186,5.99,0.976,6.272,1.002,6.602c0.08,1.016,0.144,2.03,0.146,3.05
	c0,0.446-0.038,0.891-0.049,1.337c-0.011,0.482-0.015,0.961-0.004,1.443c0.025,0.948,0.093,1.895,0.112,2.843
	c0.019,0.915,0.017,1.829,0.023,2.744c0.008,1.312,0.019,2.623,0.015,3.935C1.243,22.6,1.268,23.244,1.266,23.89
	c-0.002,0.613-0.021,1.229,0.019,1.842c0.032,0.509,0.401,0.938,0.936,0.938c0.096,0,0.188-0.027,0.279-0.056
	c0.819,0.001,1.637-0.023,2.458-0.036c0.794-0.011,1.586,0.027,2.383,0.036c1.54,0.013,3.082,0.027,4.621,0.074
	c0.756,0.021,1.508,0.076,2.264,0.072c0.853-0.004,1.705-0.008,2.556-0.017c1.789-0.017,3.576-0.082,5.365-0.08
	c1.284,0,2.568,0.006,3.853,0.017c0.67,0.004,1.339,0.017,2.007,0.04c0.478,0.017,0.955,0.019,1.432,0.036
	c0.101,0.082,0.215,0.146,0.343,0.181c0.577,0.158,1.227-0.294,1.202-0.915c-0.013-0.317-0.044-0.632-0.057-0.948
	C30.908,24.687,30.91,24.298,30.896,23.912z M22.049,24.977c-0.739-0.002-1.479-0.004-2.218-0.002
	c-0.915,0.002-1.829,0.017-2.744,0.008c-0.858-0.008-1.715-0.015-2.573-0.019c-0.279,0-0.555,0.002-0.834,0.004
	c-0.49,0.002-0.982,0.006-1.472-0.011c-0.367-0.013-0.735-0.008-1.103-0.015c-0.393-0.008-0.788-0.027-1.183-0.038
	c-0.27-0.007-0.541,0-0.811,0.001c0.116-0.449,0.221-0.898,0.339-1.347c0.141-0.526,0.288-1.05,0.433-1.575
	c1.855,0.021,3.71,0.048,5.565,0.031c1.8-0.017,3.599-0.07,5.399-0.065c0.518,0.002,1.038-0.011,1.557-0.031
	c0.204,0.581,0.406,1.162,0.629,1.737c0.129,0.336,0.266,0.67,0.395,1.005c0.04,0.104,0.077,0.209,0.115,0.314
	C23.046,24.975,22.548,24.978,22.049,24.977z M27.414,24.987c-0.694-0.027-1.384-0.023-2.077-0.017
	c-0.012-0.03-0.015-0.06-0.029-0.09c-0.012-0.025-0.024-0.05-0.036-0.075c-0.094-0.248-0.178-0.5-0.271-0.747
	c-0.131-0.353-0.268-0.705-0.393-1.06c-0.262-0.739-0.498-1.489-0.746-2.235c-0.127-0.381-0.464-0.649-0.853-0.649
	c-0.077,0-0.155,0.01-0.235,0.032c-0.014,0.004-0.025,0.015-0.039,0.02c-0.022,0-0.042-0.013-0.065-0.011
	c-0.435,0.036-0.872,0.004-1.307,0.034c-0.424,0.027-0.849,0.053-1.274,0.065c-0.904,0.027-1.808,0.027-2.712,0.03
	c-1.789,0.004-3.58-0.011-5.369-0.084c-0.733-0.032-1.466-0.065-2.199-0.08c-0.006,0-0.012,0-0.018,0
	c-0.236,0-0.448,0.102-0.611,0.256c-0.023-0.002-0.047-0.009-0.07-0.009c-0.41,0-0.802,0.273-0.909,0.685
	c-0.31,1.185-0.568,2.383-0.881,3.567c-0.025,0.096-0.023,0.192-0.017,0.287c-0.336,0-0.672,0.002-1.009,0
	c-0.349-0.002-0.697,0-1.046,0.004c-0.279,0.002-0.558,0.004-0.836,0.002c-0.434-0.001-0.866-0.012-1.299-0.021
	c-0.001-0.128-0.002-0.255-0.004-0.383c-0.006-0.431-0.011-0.862-0.019-1.293c-0.021-0.906-0.023-1.812-0.021-2.718
	c0.008-1.793,0.03-3.586,0.006-5.378c-0.008-0.703-0.047-1.405-0.089-2.108c-0.04-0.699-0.046-1.398-0.051-2.099
	c-0.004-1.266-0.002-2.53-0.066-3.794c0.795-0.031,1.591-0.067,2.388-0.086c0.904-0.023,1.81-0.023,2.714-0.027
	c0.336,0,0.674,0.004,1.01,0.008c0.494,0.004,0.991,0.011,1.487-0.002c0.422-0.013,0.845-0.044,1.267-0.065
	c0.418-0.021,0.839-0.027,1.257-0.034c0.807-0.015,1.616-0.006,2.423-0.006c0.83,0,1.658-0.006,2.486-0.021
	c1.618-0.03,3.236-0.07,4.854-0.07c1.238,0,2.473-0.008,3.711-0.008c0.549,0,1.092,0.044,1.641,0.08
	c0.268,0.017,0.537,0.02,0.806,0.026c0.003,0.066,0.008,0.131,0.025,0.197c0.005,0.032,0.01,0.063,0.015,0.095
	c0.116,0.945,0.2,1.89,0.243,2.841c0.042,0.944,0.034,1.89,0.032,2.832c-0.004,0.957-0.034,1.911-0.055,2.868
	c-0.021,0.923-0.013,1.846-0.03,2.769c-0.025,1.364-0.057,2.729-0.082,4.093c-0.013,0.598-0.013,1.195,0,1.793
	c0.004,0.202,0.013,0.405,0.021,0.608c-0.135,0-0.27,0.001-0.404,0.001C28.259,25.006,27.837,25.002,27.414,24.987z M26.268,14.118
	c-0.053-0.213-0.15-0.422-0.239-0.621c-0.152-0.344-0.424-0.597-0.663-0.879c-0.013-0.017-0.026-0.034-0.038-0.05
	c-0.063-0.084-0.129-0.167-0.194-0.249c-0.095-0.12-0.237-0.201-0.357-0.292c-0.133-0.078-0.279-0.116-0.433-0.116
	c-0.114,0-0.227,0.023-0.331,0.067c-0.128-0.077-0.275-0.121-0.43-0.123c-0.017-0.001-0.031-0.011-0.049-0.011
	c-0.016,0-0.031,0.001-0.047,0.002c-0.826,0.059-1.658,0.025-2.484,0.025c-0.805,0-1.609,0.002-2.414-0.006
	c-1.647-0.017-3.295,0.002-4.942,0.049c-0.781,0.022-1.562,0.048-2.343,0.083c-0.011,0-0.021-0.005-0.032-0.005
	c-0.026,0-0.054,0.009-0.081,0.011c-0.259,0.012-0.517,0.031-0.775,0.046c-0.22,0.002-0.438,0.015-0.656,0.039
	c-0.122,0.009-0.244,0.012-0.365,0.022c-0.191,0.016-0.357,0.076-0.506,0.188c-0.095,0.038-0.189,0.076-0.281,0.122
	c-0.429,0.213-0.735,0.56-1.018,0.934c-0.106,0.141-0.182,0.308-0.253,0.469c-0.099,0.22-0.188,0.439-0.249,0.672
	c-0.154,0.583-0.112,1.179,0.11,1.736c0.142,0.353,0.319,0.674,0.613,0.927c0.192,0.165,0.397,0.315,0.621,0.433
	c0.144,0.078,0.292,0.146,0.439,0.211c0.201,0.089,0.405,0.186,0.616,0.247c0.107,0.048,0.222,0.077,0.345,0.077
	c0.931,0.008,1.861,0.025,2.792,0.044c0.773,0.017,1.548,0.019,2.321,0.034c0.815,0.017,1.628,0.036,2.444,0.034
	c0.8-0.002,1.603-0.015,2.404-0.002c0.524,0.006,1.048,0.002,1.571,0.008c0.247,0.004,0.494,0.019,0.741,0.025
	c0.256,0.008,0.513-0.008,0.769-0.021c0.119-0.006,0.23-0.037,0.333-0.084c0.043,0.004,0.086,0.012,0.129,0.015
	c0.56,0.049,1.111-0.074,1.584-0.387c0.507-0.336,0.902-0.83,1.172-1.373c0.247-0.49,0.323-1.026,0.283-1.569
	C26.357,14.606,26.327,14.357,26.268,14.118z M8.717,15.355c-0.001-0.055,0.001-0.108,0.004-0.162
	c0.027-0.139,0.063-0.274,0.111-0.408c0.076-0.157,0.16-0.308,0.257-0.453c0.084-0.097,0.174-0.188,0.271-0.274
	c0.05-0.033,0.102-0.063,0.155-0.091c0.124-0.04,0.25-0.069,0.378-0.093c0.221-0.011,0.442-0.007,0.662-0.005
	c0.216,0,0.419-0.066,0.589-0.179c0.086,0.087,0.166,0.178,0.244,0.273c0.055,0.078,0.105,0.159,0.15,0.243
	c0.03,0.092,0.054,0.185,0.072,0.281c0.012,0.18,0.009,0.359-0.005,0.538c-0.022,0.103-0.051,0.202-0.087,0.301
	c-0.097,0.196-0.21,0.383-0.337,0.561c-0.113,0.132-0.235,0.251-0.366,0.363c-0.086,0.055-0.172,0.106-0.261,0.151
	c-0.081,0.023-0.161,0.043-0.244,0.06c-0.08,0.004-0.158,0.004-0.237,0c-0.082-0.02-0.161-0.045-0.24-0.074
	c-0.281-0.126-0.556-0.262-0.812-0.433c-0.047-0.041-0.091-0.084-0.135-0.129c-0.026-0.043-0.049-0.087-0.072-0.131
	C8.776,15.583,8.743,15.47,8.717,15.355z M19.287,16.629c-0.372,0.002-0.741,0.004-1.111,0.002c-0.822-0.002-1.645,0-2.465-0.025
	c-0.792-0.025-1.584-0.027-2.376-0.049c-0.223-0.006-0.445-0.02-0.668-0.03c0.108-0.164,0.207-0.333,0.29-0.515
	c0.093-0.203,0.169-0.403,0.215-0.621c0.051-0.234,0.072-0.477,0.093-0.716c0.032-0.396-0.058-0.768-0.204-1.128
	c0.508-0.026,1.015-0.06,1.524-0.072c0.813-0.019,1.624-0.006,2.437-0.006c0.815,0,1.631,0.004,2.444,0.006
	c0.347,0.001,0.693,0.001,1.039,0.002c-0.08,0.163-0.15,0.331-0.218,0.496c-0.07,0.171-0.11,0.363-0.144,0.545
	c-0.046,0.26-0.095,0.541-0.089,0.807c0.002,0.095,0.006,0.19,0.019,0.283c0.017,0.137,0.036,0.272,0.061,0.41
	c0.027,0.15,0.108,0.315,0.169,0.45c0.026,0.056,0.059,0.105,0.087,0.158C20.023,16.626,19.654,16.627,19.287,16.629z
	 M24.763,15.636c-0.069,0.134-0.149,0.261-0.237,0.385c-0.096,0.118-0.196,0.231-0.307,0.333c-0.096,0.066-0.194,0.126-0.297,0.181
	c-0.057,0.017-0.113,0.032-0.17,0.045c-0.214,0.011-0.428-0.002-0.642-0.025c-0.284-0.047-0.568-0.114-0.838-0.212
	c-0.049-0.025-0.097-0.051-0.144-0.08c-0.058-0.053-0.114-0.108-0.167-0.166c-0.075-0.111-0.142-0.227-0.202-0.347
	c-0.025-0.077-0.045-0.155-0.061-0.234c-0.01-0.168-0.009-0.334,0.005-0.502c0.04-0.233,0.098-0.46,0.178-0.683
	c0.053-0.113,0.111-0.221,0.18-0.326c0.07-0.08,0.144-0.155,0.223-0.226c0.07-0.046,0.142-0.089,0.217-0.128
	c0.116-0.037,0.233-0.064,0.354-0.086c0.243-0.024,0.486-0.038,0.733-0.041c0.164-0.002,0.32-0.042,0.458-0.112
	c0.091,0.122,0.183,0.242,0.283,0.357c0.065,0.072,0.133,0.142,0.198,0.215c0.071,0.105,0.133,0.213,0.188,0.327
	c0.048,0.135,0.083,0.27,0.11,0.41c0.021,0.204,0.029,0.407,0.016,0.611C24.822,15.436,24.796,15.537,24.763,15.636z M5.949,23.019
	c0,0.458-0.384,0.843-0.843,0.843c-0.46,0-0.843-0.384-0.843-0.843c0-0.46,0.382-0.843,0.843-0.843
	C5.566,22.177,5.949,22.561,5.949,23.019z M27.904,22.98c0,0.408-0.342,0.75-0.75,0.75s-0.75-0.342-0.75-0.75s0.342-0.75,0.75-0.75
	S27.904,22.573,27.904,22.98z M27.93,9.535c0,0.429-0.357,0.786-0.786,0.786s-0.786-0.357-0.786-0.786s0.357-0.786,0.786-0.786
	S27.93,9.107,27.93,9.535z M6.094,9.463c0,0.448-0.374,0.822-0.822,0.822c-0.448,0-0.822-0.374-0.822-0.822
	c0-0.448,0.374-0.822,0.822-0.822C5.72,8.642,6.094,9.016,6.094,9.463z"/>
</svg>