<svg width="518" height="29" viewBox="0 0 518 29" fill="none" xmlns="http://www.w3.org/2000/svg">
<g clip-path="url(#clip0_12_17)">
<path d="M9.46916 0.571833C4.34878 2.20564 1.2976 6.12676 0.35068 12.2535C-0.982021 20.7901 3.75258 28.3056 10.6967 28.6732L12.8009 28.7958L12.9061 27.5704C12.9763 26.5493 12.8009 26.1817 11.854 25.5282C11.2227 25.0789 10.0654 24.5887 9.29381 24.4662L7.89096 24.2211L9.22367 24.1803L10.5213 24.0986V18.2169C10.5213 13.1521 10.4512 12.2127 9.92509 11.6C9.32888 10.9056 9.32888 10.8648 9.92509 11.1507C10.4512 11.3958 10.5213 11.069 10.5213 7.96479C10.5213 5.02394 10.6265 4.37042 11.2227 3.67606C11.6085 3.22676 12.1696 2.85916 12.4853 2.85916C12.8711 2.85916 12.9763 2.5324 12.9061 1.51127C12.7658 -0.040844 11.9943 -0.285913 9.46916 0.571833ZM9.01324 10.4563C8.90803 10.5789 8.59239 10.6197 8.34689 10.4972C8.06632 10.3746 8.17153 10.2521 8.55731 10.2521C8.9431 10.2113 9.15352 10.3338 9.01324 10.4563ZM3.85779 12.0901C3.85779 12.4169 3.7175 12.5803 3.50708 12.4577C3.33172 12.3352 3.15637 12.0493 3.15637 11.8042C3.15637 11.6 3.33172 11.4366 3.50708 11.4366C3.7175 11.4366 3.85779 11.7225 3.85779 12.0901Z" fill="#990E0E"/>
<path d="M14.0284 1.38876C14.0284 2.61412 14.1687 2.85919 15.2559 3.26764C16.764 3.83947 18.728 6.45355 19.4995 8.9451C20.3763 11.7226 21.4635 12.4986 22.5858 11.1916C23.0417 10.7014 23.1469 9.59862 23.1469 6.08595C23.1469 3.5944 22.9716 1.22538 22.7962 0.776088C22.3052 -0.245039 21.2531 -0.204194 20.4114 0.816933L19.745 1.67468L17.0796 0.816933C15.6066 0.367637 14.309 3.14713e-05 14.2038 3.14713e-05C14.0986 3.14713e-05 14.0284 0.612707 14.0284 1.38876Z" fill="#990E0E"/>
<path d="M153.787 0.408476C149.228 1.51129 145.685 5.10566 144.458 9.88453C143.967 11.7634 143.967 16.9916 144.458 19.0747C144.984 21.4028 146.808 24.4254 148.631 26.0183C150.104 27.3254 152.664 28.4282 154.839 28.6733C155.751 28.7958 155.891 28.6733 155.996 27.6521C156.101 26.7944 155.891 26.3043 155.225 25.6916L154.313 24.8747V14.5V4.12538L155.4 3.26763C156.207 2.57327 156.417 2.08312 156.347 1.30707C156.242 0.0817165 155.821 -0.081665 153.787 0.408476Z" fill="#990E0E"/>
<path d="M157.364 0.245094C156.803 0.939461 157.189 2.32819 158.171 3.18594L159.223 4.12538V14.5V24.8747L158.346 25.6507C157.75 26.2226 157.469 26.8761 157.469 27.7338C157.469 29 157.469 29 158.977 28.755C163.081 28.0197 166.342 25.4874 168.166 21.6071C168.973 19.8099 169.218 18.7888 169.323 16.0521C169.464 13.0296 169.428 12.662 168.867 12.662C168.446 12.662 168.341 12.4578 168.517 11.9268C169.393 9.51693 168.306 6.4127 165.606 3.63523C163.536 1.51129 158.171 -0.694344 157.364 0.245094ZM166.728 9.27186C166.377 10.9057 166.237 10.9465 166.237 9.47608C166.237 8.74087 166.412 8.16904 166.588 8.16904C166.798 8.16904 166.868 8.61834 166.728 9.27186Z" fill="#990E0E"/>
<path d="M243.008 0.163372C242.937 0.245062 242.236 0.449287 241.5 0.571823C239.641 0.939428 236.8 2.77746 235.853 4.28872C232.942 8.90422 234.24 14.4183 238.904 17.1958C239.746 17.6859 241.78 18.6662 243.499 19.4423C246.971 20.9127 247.953 21.7296 247.953 23.1183C247.953 24.1394 246.585 25.6099 245.252 25.9775C244.656 26.1817 244.445 26.5085 244.445 27.407C244.445 28.1014 244.656 28.7141 244.936 28.8366C245.778 29.2042 249.426 28.1831 251.214 27.0394C255.598 24.3028 256.931 18.2986 254.02 14.2958C252.547 12.2535 250.723 11.1099 245.603 8.98591C244.445 8.49577 243.113 7.71971 242.727 7.31126C241.745 6.24929 241.78 4.73802 242.797 3.79858C243.253 3.39013 243.569 2.8183 243.463 2.53239C243.393 2.28732 243.499 2.04225 243.744 2.04225C243.954 2.04225 244.025 1.83802 243.919 1.63379C243.814 1.38872 243.884 1.22534 244.06 1.22534C244.27 1.22534 244.445 0.939428 244.445 0.612667C244.445 0.0816822 243.393 -0.245079 243.008 0.163372Z" fill="#990E0E"/>
<path d="M245.848 1.38877C245.848 2.65496 245.989 2.85919 247.111 3.26764C248.689 3.88032 250.934 6.41271 251.249 8.00567C251.6 9.59863 252.091 10.2113 253.003 10.2113C254.371 10.2113 254.616 9.47609 254.616 5.10567C254.616 0.939471 254.371 3.43323e-05 253.248 3.43323e-05C252.968 3.43323e-05 252.442 0.28595 252.091 0.694401C251.495 1.30708 251.284 1.30708 249.04 0.694401C245.848 -0.204191 245.848 -0.204191 245.848 1.38877Z" fill="#990E0E"/>
<path d="M267.557 0.735245C264.155 1.79722 263.384 2.49158 263.559 4.37046C263.7 5.51412 263.664 5.63665 263.454 4.94229C263.068 3.47186 262.542 3.47186 261.49 4.94229C259.316 7.92398 259 9.19018 259 14.5C259 19.0338 259.07 19.5648 259.947 21.4845C261.7 25.3648 265.664 28.3874 269.381 28.6733C270.714 28.7958 270.854 28.7141 270.924 27.7338C271.029 26.9169 270.784 26.4268 270.012 25.7733L268.995 24.8747V14.5V4.12539L269.872 3.34933C270.468 2.7775 270.749 2.12398 270.749 1.26623C270.749 -0.204191 270.714 -0.204191 267.557 0.735245ZM261.385 10.9057C261.139 10.9874 260.648 10.9874 260.333 10.9057C259.982 10.7831 260.192 10.7014 260.754 10.7014C261.35 10.7014 261.595 10.7831 261.385 10.9057Z" fill="#990E0E"/>
<path d="M272.362 0.285946C271.836 0.898621 272.222 2.57327 273.028 3.34933L273.905 4.12538V12.4578V20.7902L274.887 20.9535L275.834 21.1169L274.887 21.1986C273.975 21.2395 273.905 21.362 273.905 22.9141C273.905 24.8338 273.414 26.1409 272.678 26.1409C272.117 26.1409 271.591 27.8972 271.976 28.5916C272.257 29.0817 274.887 28.755 275.413 28.1831C275.589 28.0197 275.554 27.4888 275.343 26.9986C275.098 26.5085 275.063 26.1409 275.273 26.1409C275.448 26.1409 275.729 26.5902 275.904 27.162L276.185 28.224L277.938 27.162C282.252 24.5071 284.427 19.8507 284.181 13.7648C284.076 10.5381 283.585 8.74087 282.252 6.33101C280.323 2.94087 278.149 1.42961 273.519 0.2451C273.028 0.122566 272.502 0.122566 272.362 0.285946Z" fill="#990E0E"/>
<path d="M394.55 0.367636C393.077 0.735241 389.57 2.49158 389.78 2.73665C389.85 2.85918 390.271 2.73665 390.657 2.49158C391.253 2.08313 391.358 2.12397 391.183 2.65496C391.043 2.98172 390.552 3.26764 389.99 3.26764C388.658 3.26764 386.448 6.16764 385.431 9.23102C384.379 12.4986 384.519 18.4212 385.712 21.3212C386.799 23.8536 388.763 26.1817 390.902 27.3254C392.656 28.3057 396.97 29 397.04 28.3465C397.285 26.4676 397.215 26.1817 396.444 25.9775C394.865 25.4874 394.725 24.5479 394.83 14.3775C394.865 8.86341 395.041 4.49299 395.251 4.04369C395.462 3.63524 396.023 3.1451 396.514 3.02257C397.25 2.81834 397.39 2.57327 397.285 1.47045C397.18 0.0817204 396.654 -0.122505 394.55 0.367636ZM391.288 6.78031C391.183 6.90285 390.867 6.94369 390.622 6.82116C390.341 6.69862 390.446 6.57609 390.832 6.57609C391.218 6.53524 391.428 6.65778 391.288 6.78031Z" fill="#990E0E"/>
<path d="M398.408 1.38873C398.408 2.61408 398.548 2.85915 399.565 3.22676C401.178 3.88028 402.756 5.88169 403.844 8.78169C405.071 11.9676 405.808 12.5394 406.965 11.1915C407.421 10.7014 407.526 9.59859 407.526 5.92253C407.526 2.24648 407.421 1.14366 406.965 0.653519C406.228 -0.245073 405.597 -0.163383 404.755 0.857744L404.089 1.71549L401.494 0.857744C400.056 0.367603 398.793 -2.86102e-06 398.653 -2.86102e-06C398.513 -2.86102e-06 398.408 0.612674 398.408 1.38873Z" fill="#990E0E"/>
<path d="M419.801 0.449299C418.959 0.653524 417.416 1.2662 416.399 1.83803C414.4 2.98169 411.594 6.33099 411.91 7.22958C411.98 7.55634 411.945 7.71972 411.77 7.59719C411.138 7.14789 410.332 11.1507 410.332 14.5817C410.332 21.2803 412.892 25.7732 417.872 27.8155C421.344 29.2451 423.729 27.8155 421.379 25.6507L420.502 24.8747V14.5V4.12535L421.379 3.3493C421.975 2.77747 422.256 2.12395 422.256 1.2662C422.256 -0.122532 422.256 -0.122532 419.801 0.449299ZM416.399 7.63803C416.154 7.71972 415.733 7.71972 415.522 7.63803C415.277 7.5155 415.452 7.43381 415.943 7.43381C416.434 7.43381 416.61 7.5155 416.399 7.63803Z" fill="#990E0E"/>
<path d="M504.042 0.408501C501.446 1.02118 499.027 2.8592 497.834 5.06484C496.957 6.73948 496.782 7.51554 496.782 9.59864C496.782 14.1733 498.641 16.2564 505.48 19.2789C507.409 20.0958 509.267 21.1169 509.618 21.4846C510.986 22.9141 509.969 25.4057 507.794 25.9367C506.953 26.1409 506.777 26.4268 506.777 27.3662C506.777 28.9592 507.128 29.1226 509.478 28.6324C512.599 27.9789 515.159 26.2634 516.492 24.0169C518.421 20.586 518.351 17.1958 516.246 14.1733C515.37 12.9479 514.914 12.662 513.932 12.662C512.985 12.662 512.739 12.4986 512.809 11.9677C512.915 11.2733 512.283 10.9057 507.338 8.78174C504.252 7.4747 503.41 5.35075 505.304 3.71695C507.023 2.20568 507.163 1.96061 507.058 1.10287C506.953 0.0817394 506.216 -0.0816402 504.042 0.408501ZM511.231 27.0395C511.126 27.3254 511.056 27.1212 511.056 26.5493C511.056 25.9775 511.126 25.7733 511.231 26.0184C511.301 26.3043 511.301 26.7944 511.231 27.0395Z" fill="#990E0E"/>
<path d="M508.18 1.30707C508.18 2.53242 508.355 2.73665 509.899 3.55355C511.652 4.4113 513.791 7.18876 513.791 8.57749C513.791 10.1296 515.931 10.8648 516.527 9.47608C516.878 8.65918 517.088 2.36904 516.772 1.26622C516.457 0.122563 515.615 -0.0816622 514.493 0.653549C513.581 1.30707 513.371 1.30707 511.231 0.653549C508.18 -0.204197 508.18 -0.204197 508.18 1.30707Z" fill="#990E0E"/>
<path d="M34.3346 1.5113C34.0189 2.45074 34.2644 3.96201 35.7374 10.293C36.7194 14.5 37.526 18.1352 37.526 18.3395C37.526 18.5845 36.544 18.7888 35.3516 18.8705C33.3526 18.993 33.1772 19.0747 32.9317 20.0958C32.7914 20.7085 32.7914 21.2803 32.8967 21.4028C33.0019 21.5254 34.2294 21.6479 35.6673 21.6479C38.1222 21.6479 38.2625 21.6888 38.5782 22.7099C39.1393 24.3845 38.999 25.6507 38.2275 25.9367C37.4559 26.2226 37.2805 27.4479 37.982 28.0606C38.473 28.5099 49.4151 28.7958 50.5023 28.3874C51.4843 28.0197 51.3791 26.9169 50.1867 25.7324C49.1696 24.7113 48.9241 23.731 44.1194 3.79863C43.944 3.10426 43.5583 2.40989 43.2076 2.3282C42.6815 2.16482 42.6815 2.12398 43.2076 2.08313C43.5933 2.04229 43.7336 1.79722 43.5933 1.22539C43.418 0.449331 43.1023 0.408485 39.0692 0.408485H34.7203L34.3346 1.5113Z" fill="#990E0E"/>
<path d="M54.2198 0.939453C53.3781 1.67466 53.6937 2.73664 54.8862 3.26762C55.7279 3.63523 55.7629 3.83945 55.7629 6.69861C55.7629 9.27185 55.8682 9.76199 56.3942 9.92537C56.9554 10.0887 56.9554 10.1296 56.3942 10.1704C55.8331 10.2113 55.7629 10.8648 55.7629 17.7676V25.324L54.8862 25.7324C53.6937 26.2634 53.3781 27.3254 54.1847 28.0197C55.0615 28.7958 66.635 28.8366 67.2663 28.1014C68.0028 27.2437 67.7222 26.2634 66.635 25.7324L65.5828 25.2423V12.8662V0.490158L60.217 0.449312C56.1487 0.408466 54.7108 0.490158 54.2198 0.939453ZM59.5506 10.9056C59.1999 10.9873 58.5686 10.9873 58.1478 10.9056C57.6919 10.824 57.9724 10.7423 58.744 10.7423C59.5155 10.7014 59.8663 10.7831 59.5506 10.9056Z" fill="#990E0E"/>
<path d="M66.8805 0.69438C66.7402 0.816916 66.635 1.47044 66.635 2.08311C66.635 2.94086 66.8805 3.26762 67.6871 3.59438C68.9497 4.12537 69.1601 4.94227 69.0198 9.39438C68.9146 12.8662 68.9146 12.8662 67.7924 13.4789C66.8454 13.969 66.635 14.3366 66.635 15.3986C66.635 16.4606 66.7753 16.7465 67.2663 16.7465C68.5288 16.7465 68.9848 18.0127 69.1601 21.6887C69.3355 25.6507 69.8265 26.9578 71.58 28.0197C72.9829 28.8366 76.4549 29.2859 76.4549 28.6324C76.4549 28.3873 77.0161 28.1831 77.7876 28.1831C78.8748 28.1831 79.4009 27.8972 80.4179 26.7535C81.1544 25.9366 81.7156 24.9155 81.7156 24.5071C81.7156 23.4451 80.5232 22.7099 79.6464 23.2817C79.2606 23.4859 78.8748 23.6902 78.7696 23.6902C78.6644 23.6902 78.5592 22.4648 78.5592 20.9944C78.5592 18.5845 78.454 18.1761 77.5772 17.1549C77.0161 16.5423 75.8938 15.7662 75.0871 15.4803L73.6142 14.9902L75.2976 13.9282C77.5772 12.4986 78.5592 10.6606 78.5592 7.9648C78.5592 4.16621 76.3848 1.63382 72.4919 0.857759C70.0018 0.367619 67.2312 0.285929 66.8805 0.69438ZM72.0009 7.63804C71.7554 7.71973 71.3345 7.71973 71.1241 7.63804C70.8786 7.51551 71.054 7.43382 71.545 7.43382C72.036 7.43382 72.2113 7.51551 72.0009 7.63804Z" fill="#990E0E"/>
<path d="M84.346 1.06198C83.6446 1.91972 83.8199 2.5324 84.9773 3.18592L85.9242 3.71691V14.5408V25.3239L85.0474 25.7324C83.855 26.2634 83.5394 27.3254 84.346 28.0197C84.837 28.4282 86.4152 28.5916 90.3782 28.5916H95.7441V16.1747V3.75775L96.7962 3.30845C98.0237 2.81831 98.2342 1.47043 97.182 0.816906C96.7962 0.571835 94.0256 0.408455 90.6939 0.408455C85.8541 0.408455 84.837 0.530989 84.346 1.06198Z" fill="#990E0E"/>
<path d="M128.185 1.06199C127.483 1.91974 127.659 2.53241 128.816 3.18593L129.763 3.71692V14.3366C129.763 24.4254 129.728 24.9564 129.062 25.6099C128.606 26.0592 128.36 26.8352 128.36 27.7338V29.1226L130.92 28.8775C135.445 28.4282 138.075 26.8761 139.022 24.0986C139.478 22.7507 139.583 20.7493 139.583 13.1113V3.75776L140.635 3.26762C141.863 2.69579 142.038 1.47044 141.021 0.816919C140.635 0.57185 137.864 0.408468 134.533 0.408468C129.693 0.408468 128.676 0.531004 128.185 1.06199Z" fill="#990E0E"/>
<path d="M173.532 0.857771C172.585 1.47045 172.76 2.40988 173.953 3.18594C175.215 4.04369 175.215 4.20707 175.075 16.4606L174.97 25.3648L174.093 25.7324C172.935 26.2634 172.62 27.3254 173.426 28.0197C174.233 28.7141 185.175 28.8366 186.262 28.1831C187.28 27.5296 187.104 26.3043 185.877 25.7733L184.825 25.3648V16.5831V7.80143L184.053 7.63805L183.246 7.47467L184.053 7.39298C184.719 7.35214 184.825 7.14791 184.825 5.55495C184.825 3.10425 185.105 2.45073 186.087 2.45073C186.543 2.45073 186.929 2.20566 186.929 1.91974C186.929 0.939461 186.087 0.408474 184.614 0.408474C183.352 0.408474 183.106 0.53101 182.966 1.30707L182.826 2.2465L182.755 1.30707C182.72 0.408474 182.65 0.408474 178.442 0.408474C176.057 0.408474 173.847 0.6127 173.532 0.857771Z" fill="#990E0E"/>
<path d="M187.7 0.898628C186.929 1.79722 187.209 2.85919 188.332 3.30849L189.384 3.75778V8.41412C189.384 12.131 189.279 13.0705 188.893 13.0705C188.577 13.0705 188.437 13.3972 188.542 13.9691L188.717 14.9085L188.297 13.9691C188.016 13.3564 187.56 13.0705 186.859 13.0705C185.912 13.0705 185.842 13.193 185.947 14.3775C186.052 15.6029 186.157 15.7254 187.42 15.8479C188.297 15.9296 188.682 15.8479 188.507 15.562C188.402 15.2761 188.507 15.2353 188.823 15.3578C189.279 15.562 189.384 16.4606 189.384 20.4226V25.2423L188.332 25.6916C187.209 26.1409 186.929 27.3254 187.771 28.1423C188.437 28.7958 200.01 28.6733 200.817 27.9789C201.589 27.3254 201.238 26.2634 200.081 25.7324L199.204 25.324V14.6226V3.88032L200.256 3.18595C201.448 2.40989 201.554 1.9606 200.782 1.10285C200.116 0.285952 188.402 0.0817261 187.7 0.898628Z" fill="#990E0E"/>
<path d="M205.797 0.85775C204.745 1.55212 205.026 2.77747 206.358 3.43099C207.2 3.83944 208.217 5.18733 210.181 8.41409C211.619 10.8648 213.092 13.2747 213.408 13.7648C213.723 14.2958 214.249 14.7042 214.565 14.7042C215.372 14.7042 216.213 16.2155 215.547 16.4197C215.231 16.5014 216.283 18.6254 218.598 22.5465L222.175 28.5916L225.156 28.469L228.137 28.3873L228.208 23.8127L228.243 19.238L225.086 13.8056C223.333 10.8239 220.808 6.57606 219.475 4.37043L217.055 0.408455H211.724C208.743 0.408455 206.113 0.61268 205.797 0.85775ZM212.671 3.55352C212.32 5.18733 212.18 5.22817 212.18 3.75775C212.18 3.02254 212.355 2.45071 212.531 2.45071C212.741 2.45071 212.811 2.9 212.671 3.55352ZM216.634 6.78028C216.529 6.90282 215.863 6.94367 215.161 6.86197L213.899 6.73944L214.635 5.8L215.407 4.86057L216.108 5.71831C216.494 6.20845 216.739 6.6986 216.634 6.78028Z" fill="#990E0E"/>
<path d="M222.982 0.857791C222 1.51131 222.245 2.4099 223.613 3.34934C225.227 4.45216 225.507 5.39159 225.507 9.55779C225.507 12.7029 225.577 13.0296 226.664 14.8268C227.331 15.8888 227.962 16.624 228.067 16.4606C228.208 16.3381 228.313 13.8465 228.313 10.9465C228.313 8.04652 228.488 5.3099 228.663 4.86061C228.874 4.45216 229.505 3.79864 230.066 3.47188C231.154 2.81835 231.434 1.75638 230.698 0.898636C230.172 0.285959 223.859 0.245115 222.982 0.857791Z" fill="#990E0E"/>
<path d="M287.513 0.857767C286.461 1.55213 286.776 2.73664 288.179 3.55354C289.126 4.08453 290.178 5.51411 292.212 8.94509L294.948 13.6014V11.9268C294.948 10.9873 295.123 10.2113 295.334 10.2113C295.509 10.2113 295.579 10.0071 295.474 9.80284C295.334 9.55777 295.825 9.39439 296.631 9.39439C297.859 9.39439 297.999 9.47608 297.859 10.2113C297.754 10.6606 297.368 11.0282 297.017 11.0282C296.631 11.0282 296.351 11.1916 296.351 11.4366C296.351 11.6409 296.105 11.8451 295.825 11.8451C295.474 11.8451 295.299 12.2535 295.299 12.9888C295.299 13.8057 296.596 16.2972 299.577 21.3212L303.891 28.5099L306.872 28.469L309.853 28.3874L309.958 23.8535L310.063 19.3606L304.487 9.96622L298.911 0.612698L293.51 0.531008C290.283 0.449316 287.863 0.571852 287.513 0.857767ZM297.227 6.94369C297.368 7.18876 296.947 7.35213 296.21 7.35213C295.509 7.35213 294.948 7.14791 294.948 6.94369C294.948 6.69861 295.404 6.53523 295.965 6.53523C296.561 6.53523 297.122 6.69861 297.227 6.94369ZM299.086 14.1324C299.682 15.6437 298.911 16.5014 297.613 15.8071C296.701 15.3169 296.386 14.7043 297.087 14.7043C297.263 14.7043 297.333 14.5 297.227 14.2958C297.122 14.0507 297.263 13.8873 297.578 13.8873C297.894 13.8873 298.034 13.6831 297.929 13.4789C297.824 13.2338 297.929 13.0704 298.209 13.0704C298.455 13.0704 298.876 13.5606 299.086 14.1324ZM306.521 26.1409C306.241 26.3451 305.75 26.5493 305.469 26.5493C305.013 26.5493 305.013 26.5085 305.469 26.1409C305.75 25.9366 306.241 25.7324 306.521 25.7324C306.977 25.7324 306.977 25.7733 306.521 26.1409Z" fill="#990E0E"/>
<path d="M305.048 0.694392C304.101 0.980308 303.926 2.16481 304.768 2.85918C307.153 4.86059 307.012 4.53383 307.223 9.02679C307.398 12.8254 307.503 13.4381 308.415 14.9902C308.976 15.9704 309.537 16.624 309.713 16.5014C309.888 16.3789 310.028 13.8465 310.028 10.9057C310.028 5.06481 310.309 4.00284 311.992 3.26763C312.974 2.81834 313.115 1.4296 312.238 0.898618C311.607 0.490168 306.135 0.367632 305.048 0.694392Z" fill="#990E0E"/>
<path d="M330.475 1.14371C329.773 1.96061 329.914 2.36906 331.071 3.06343L332.088 3.6761L332.193 11.9677C332.263 16.5015 332.263 21.362 332.193 22.7916C332.088 25.0789 331.983 25.4057 331.211 25.7324C330.019 26.2634 329.738 27.3254 330.58 28.0606C331.106 28.5508 332.334 28.6324 337.033 28.4691C340.225 28.3874 343.1 28.1423 343.451 27.9789C344.433 27.4888 344.188 26.2634 342.995 25.7733L341.943 25.3648V13.1113C341.943 3.59441 341.838 0.816944 341.522 0.735254C341.277 0.735254 338.787 0.653564 336.016 0.653564C332.228 0.61272 330.826 0.735254 330.475 1.14371ZM338.015 7.14793C337.91 7.27047 337.699 7.06624 337.594 6.65779C337.384 6.08596 337.419 6.04511 337.77 6.41272C338.015 6.69864 338.12 7.0254 338.015 7.14793ZM337.138 15.5212C337.033 15.9705 336.647 16.3381 336.297 16.3381C335.911 16.3381 335.63 16.5015 335.63 16.7465C335.63 16.9508 335.42 17.155 335.139 17.155C334.859 17.155 334.543 17.6451 334.473 18.2578C334.403 18.9522 334.298 18.6662 334.262 17.4409C334.262 16.3381 334.368 15.5212 334.613 15.5212C334.789 15.5212 334.859 15.3169 334.753 15.1127C334.613 14.8677 335.104 14.7043 335.911 14.7043C337.138 14.7043 337.279 14.786 337.138 15.5212ZM338.331 19.4423C338.927 20.9536 338.19 21.8113 336.893 21.1169C335.981 20.6268 335.665 20.0141 336.367 20.0141C336.542 20.0141 336.612 19.8099 336.507 19.6057C336.402 19.3606 336.542 19.1972 336.858 19.1972C337.173 19.1972 337.314 18.993 337.208 18.7888C337.103 18.5437 337.208 18.3803 337.454 18.3803C337.699 18.3803 338.085 18.8705 338.331 19.4423ZM341.347 27.6522C341.101 27.7339 340.61 27.7339 340.295 27.6522C339.944 27.5296 340.154 27.4479 340.716 27.4479C341.312 27.4479 341.557 27.5296 341.347 27.6522Z" fill="#990E0E"/>
<path d="M343.241 0.65353C342.609 1.42959 343.03 2.81832 344.188 3.59438C345.52 4.53381 345.696 5.22818 345.52 9.72114C345.38 12.662 345.345 12.7437 344.188 13.5606C342.609 14.6225 342.539 16.1747 344.047 16.7873C345.31 17.3183 345.45 17.8085 345.591 21.893C345.696 25.5282 346.117 26.5902 347.905 27.8972C348.852 28.5916 349.659 28.7549 351.588 28.7549C354.393 28.7549 355.726 28.1014 357.199 26.0592L358.181 24.7113L355.235 24.4662C353.622 24.3437 352.885 24.2211 353.657 24.1803L354.99 24.0986L354.849 21.0761C354.709 17.4817 354.253 16.7056 351.623 15.562L349.834 14.7859L350.886 14.2958C352.149 13.724 354.323 11.8451 354.078 11.5592C353.972 11.4366 354.113 11.069 354.393 10.7423C355.06 9.96621 355.095 6.45353 354.428 4.98311C353.692 3.39015 352.464 2.1648 350.886 1.51128C349.273 0.816912 343.627 0.204235 343.241 0.65353ZM353.411 10.4563C353.306 10.5789 352.991 10.6197 352.745 10.4972C352.464 10.3747 352.57 10.2521 352.955 10.2521C353.341 10.2113 353.552 10.3338 353.411 10.4563ZM348.256 12.0902C348.256 12.4169 348.116 12.5803 347.905 12.4578C347.73 12.3352 347.554 12.0493 347.554 11.8042C347.554 11.6 347.73 11.4366 347.905 11.4366C348.116 11.4366 348.256 11.7225 348.256 12.0902Z" fill="#990E0E"/>
<path d="M360.987 0.694365C359.233 0.98028 359.058 2.53239 360.741 3.2676C361.653 3.67606 361.688 4.1662 361.758 19.5239C361.758 23.2817 361.864 24.0986 362.284 24.1394C362.635 24.1394 362.565 24.262 362.109 24.507C361.478 24.8338 361.478 24.8746 362.284 24.9155C362.986 24.9972 362.881 25.0789 361.758 25.4465C359.373 26.2634 359.023 26.7944 360.04 27.938C360.636 28.6324 365.09 28.8366 369.264 28.3465L371.403 28.0606L371.333 14.3366L371.228 0.612675L366.668 0.571831C364.178 0.530985 361.618 0.612675 360.987 0.694365ZM370.982 23.3225C370.912 23.5676 370.701 23.731 370.526 23.731C370.351 23.731 370.14 23.5676 370.07 23.3225C370 23.0775 370.21 22.8732 370.526 22.8732C370.842 22.8732 371.052 23.0775 370.982 23.3225Z" fill="#990E0E"/>
<path d="M372.7 0.694362C372.56 0.816897 372.455 1.47042 372.455 2.04225C372.455 2.98169 372.63 3.22676 373.577 3.43098C375.646 3.92112 377.61 5.59577 378.417 7.55634C379.083 9.19014 379.329 9.43521 380.136 9.31267L381.047 9.19014L381.153 4.77887L381.258 0.408446H377.084C374.805 0.408446 372.806 0.530982 372.7 0.694362Z" fill="#990E0E"/>
<path d="M424.536 0.735252C423.483 1.1437 423.483 2.36905 424.5 3.30849L425.412 4.12539V14.5C425.412 23.3634 425.342 24.9564 424.851 25.4874C424.571 25.855 424.15 26.1409 423.974 26.1409C423.764 26.1409 423.659 26.7536 423.729 27.4479C423.834 28.755 423.869 28.7958 425.237 28.6324C429.41 28.224 433.409 24.7113 434.846 20.2184C435.723 17.5634 435.899 12.4578 435.267 9.88455C434.285 6.08596 431.55 2.61413 428.323 1.22539C426.359 0.367645 425.728 0.285955 424.536 0.735252Z" fill="#990E0E"/>
<path d="M439.3 0.939453C438.459 1.67466 438.774 2.73664 439.967 3.26762L440.844 3.67607V14.5V25.324L439.967 25.7324C438.774 26.2634 438.459 27.3254 439.265 28.0197C440.142 28.7958 451.716 28.8366 452.347 28.1014C453.083 27.2437 452.803 26.2634 451.716 25.7324L450.663 25.2423L450.593 12.9071L450.488 0.612692L445.227 0.490158C441.159 0.408466 439.791 0.531002 439.3 0.939453Z" fill="#990E0E"/>
<path d="M451.961 0.694395C451.821 0.816929 451.716 1.47045 451.716 2.08313C451.716 2.90003 451.926 3.22679 452.592 3.43101C453.89 3.83946 454.206 4.94228 454.1 9.10848L453.995 12.8662L452.873 13.4789C451.926 13.969 451.716 14.3366 451.716 15.3986C451.716 16.4606 451.856 16.7465 452.347 16.7465C453.609 16.7465 454.065 18.0127 454.241 21.6888C454.416 25.6507 454.907 26.9169 456.731 28.0606C458.309 29.0409 462.342 29.0409 463.955 28.0197C465.463 27.0803 466.796 25.4057 466.796 24.4662C466.796 23.4043 465.569 22.7099 464.727 23.2817C463.675 23.9352 463.64 23.8535 463.64 21.1169C463.64 17.8902 462.973 16.5831 461.465 16.8282C460.589 16.9916 460.448 16.9099 460.589 16.2564C460.729 15.6437 460.553 15.4395 459.712 15.2352L458.66 14.9902L460.343 13.9282C462.658 12.4986 463.64 10.6606 463.64 7.96482C463.64 4.16622 461.465 1.63383 457.572 0.857775C455.082 0.367634 452.312 0.285944 451.961 0.694395Z" fill="#990E0E"/>
<path d="M468.199 1.02113C467.638 1.83803 467.989 2.77747 469.076 3.26761L469.953 3.67606V14.5V25.3648L468.901 25.7732C468.269 26.0592 467.848 26.5085 467.848 26.9578C467.848 28.4282 468.62 28.6324 474.196 28.5099L479.597 28.3873V14.5V0.612679L474.126 0.490143C469.567 0.408453 468.585 0.490143 468.199 1.02113Z" fill="#990E0E"/>
<path d="M480.825 1.83806C480.825 2.81834 481 3.26764 481.351 3.26764C481.631 3.26764 482.192 3.63524 482.578 4.08454C483.244 4.86059 483.28 5.43242 483.28 14.5C483.28 23.5676 483.244 24.1395 482.578 24.9155C482.192 25.3648 481.631 25.7324 481.351 25.7324C481 25.7324 480.825 26.1817 480.825 27.162C480.825 28.8367 481.245 28.9592 484.437 27.9789C488.26 26.8352 490.96 24.5071 492.433 21.1986C494.643 16.1338 493.555 8.25073 490.083 4.32961C488.33 2.3282 486.752 1.42961 484.156 0.857777C480.965 0.16341 480.825 0.204254 480.825 1.83806ZM487.839 19.4014C487.839 19.7282 487.523 20.0141 487.137 20.0141C486.261 20.0141 486.226 19.3197 487.067 19.0747C487.383 18.9521 487.699 18.8705 487.769 18.8296C487.804 18.8296 487.839 19.0747 487.839 19.4014Z" fill="#990E0E"/>
<path d="M30.6872 14.3775C29.3545 19.1564 28.0569 23.5268 27.7413 24.0578C27.4607 24.5888 26.6891 25.2831 26.0578 25.6099C24.5849 26.3043 24.1991 27.2845 25.0758 28.0197C25.9526 28.7958 32.2304 28.7958 33.1071 28.0606C34.019 27.2845 33.4578 26.1409 32.1953 26.1409H31.1431L31.2834 23.8944C31.4237 22.2197 31.3185 21.6479 30.9678 21.6479C30.7223 21.6479 30.5119 21.8113 30.5119 22.0564C30.5119 22.2606 30.3014 22.4648 30.0209 22.4648C29.7403 22.4648 29.4247 22.955 29.3545 23.5676C29.2844 24.262 29.1792 23.9761 29.1441 22.7507C29.1441 21.6479 29.2493 20.831 29.4948 20.831C29.6702 20.831 29.7754 20.6676 29.6351 20.4634C29.5299 20.2183 30.0209 20.0141 30.7223 19.9324L32.0199 19.8099L33.3877 15.1127C34.7555 10.4972 34.7555 10.3747 34.2995 8.20989C34.019 6.98453 33.6683 5.92256 33.4578 5.84087C33.2474 5.75918 32.0199 9.59862 30.6872 14.3775Z" fill="#990E0E"/>
<path d="M208.217 7.59718C208.077 7.76056 208.147 8.12817 208.357 8.45493C208.673 8.82253 208.638 8.98592 208.357 8.98592C208.077 8.98592 207.972 11.069 207.972 15.8887C207.972 19.6873 207.831 23.2817 207.621 23.8944C207.445 24.4662 206.814 25.2831 206.218 25.6507C204.92 26.5085 204.78 27.9789 205.972 28.3465C206.393 28.469 208.112 28.5916 209.795 28.5916C212.075 28.5916 212.952 28.4282 213.372 27.938C214.179 27.0394 214.074 26.6718 212.882 25.9366C211.058 24.8338 210.777 23.6085 210.777 16.9507C210.777 11.1507 210.742 10.9873 210.006 10.6197C209.55 10.4155 209.409 10.2521 209.655 10.2521C209.971 10.2113 210.006 10.007 209.76 9.47606C209.094 8.08732 208.463 7.31127 208.217 7.59718Z" fill="#990E0E"/>
<path d="M289.933 7.63803C289.792 7.76056 289.687 11.4366 289.687 15.7254C289.687 22.9958 289.617 23.6493 288.986 24.6296C288.6 25.2014 287.969 25.8141 287.583 25.9366C286.566 26.3042 286.636 28.0197 287.688 28.3465C288.109 28.469 289.827 28.5916 291.511 28.5916C293.826 28.5916 294.667 28.4282 295.123 27.938C295.86 27.0803 295.649 26.4676 294.457 25.8141C292.879 24.9155 292.493 23.1592 292.493 16.9099C292.493 11.3549 292.493 11.2732 291.406 9.31268C290.213 7.18873 290.248 7.22958 289.933 7.63803Z" fill="#990E0E"/>
<path d="M375.892 8.61832C375.541 8.82255 375.261 9.31269 375.261 9.68029C375.261 10.0479 374.629 11.0282 373.823 11.9268C372.174 13.7648 372.104 14.9493 373.577 16.0113C374.103 16.4197 374.84 17.4 375.155 18.2578C375.646 19.4423 375.997 19.8099 376.663 19.8099H377.54L377.645 14.3366C377.716 10.2113 377.61 8.7817 377.295 8.49579C376.734 8.08734 376.628 8.08734 375.892 8.61832Z" fill="#990E0E"/>
<path d="M121.135 18.9113C119.943 20.1775 119.768 20.5859 119.768 22.1789C119.768 23.4042 120.013 24.4254 120.504 25.2014C121.416 26.631 124.292 28.469 125.905 28.6732C127.027 28.7958 127.133 28.7141 127.238 27.6521C127.308 26.9169 127.133 26.3042 126.782 25.9775C126.256 25.5282 126.291 25.4465 127.062 24.9563C128.886 23.8127 129.202 21.0761 127.694 19.1155C126.852 18.0127 126.431 17.8085 124.608 17.6451C122.573 17.4817 122.433 17.5225 121.135 18.9113Z" fill="#990E0E"/>
<path d="M234.836 18.6254C234.45 19.8507 234.59 27.9789 235.046 28.5099C235.643 29.2042 236.379 29.1225 237.151 28.3056C237.712 27.7338 238.027 27.693 239.641 28.1423C240.623 28.4282 241.955 28.6733 242.517 28.7141C243.463 28.7958 243.569 28.6733 243.674 27.4887C243.779 26.3451 243.674 26.1817 242.657 25.9366C241.184 25.569 238.694 22.5873 238.133 20.5859C237.887 19.7282 237.536 18.7479 237.326 18.462C236.835 17.7676 235.081 17.8493 234.836 18.6254Z" fill="#990E0E"/>
<path d="M497.168 18.6254C497.062 18.993 496.957 21.1578 496.957 23.486C496.957 26.7944 497.062 27.8564 497.518 28.3465C497.799 28.7141 498.185 28.9592 498.29 28.8775C498.43 28.7958 498.956 28.5099 499.447 28.224C500.254 27.7747 500.745 27.7747 502.744 28.3874C505.48 29.1634 506.076 29.0409 506.076 27.4888C506.076 26.5085 505.83 26.2226 504.498 25.5691C502.709 24.7522 501.026 22.5874 500.429 20.4226C500.184 19.6465 499.868 18.7479 499.658 18.462C499.167 17.7676 497.413 17.8493 497.168 18.6254Z" fill="#990E0E"/>
<path d="M102.127 20.9536C101.075 23.6085 99.8123 25.0381 98.0938 25.5282C97.2871 25.7733 97.1469 26.0592 97.1469 27.2029V28.6324L101.285 28.5099L105.389 28.3874L105.494 24.1803C105.599 19.6057 105.283 18.3803 104.021 18.3803C103.319 18.3803 102.969 18.8705 102.127 20.9536Z" fill="#990E0E"/>
<path d="M378.873 20.9535C378.487 21.6887 377.891 22.7916 377.575 23.3634C377.049 24.3028 377.049 24.4662 377.54 25.038C378.312 25.9775 378.207 26.1409 376.804 26.1409C375.787 26.1409 375.576 26.0183 375.752 25.4873C375.927 24.9972 375.822 24.8747 375.366 25.1197C375.015 25.2423 374.314 25.4873 373.788 25.6099C372.981 25.7732 372.806 26.0592 372.806 26.9986V28.1831H377.19H381.609L381.503 23.9761C381.398 19.8099 381.398 19.8099 380.486 19.6873C379.75 19.6056 379.399 19.8507 378.873 20.9535Z" fill="#990E0E"/>
<path d="M20.0256 21.5254C19.6749 22.3831 19.0436 23.4042 18.6228 23.8535C18.237 24.262 17.9915 24.793 18.0967 24.9564C18.2019 25.1606 17.9213 25.324 17.5005 25.324C17.0796 25.324 16.1327 25.5282 15.3962 25.8141C14.1687 26.2225 14.0284 26.3859 14.0284 27.6521C14.0284 29.2451 14.4493 29.3268 17.1498 28.3056C20.3412 27.1211 23.4626 23.2 23.0066 20.9944C22.8313 20.2183 22.5507 20.0141 21.7441 20.0141C20.9024 20.0141 20.5867 20.3 20.0256 21.5254Z" fill="#990E0E"/>
<path d="M404.37 21.6071C403.528 23.5676 401.915 25.0789 399.881 25.8141C398.513 26.3043 398.372 26.4676 398.478 27.5705C398.583 28.7141 398.688 28.7958 399.775 28.6733C402.476 28.4282 405.878 25.7733 406.965 23.0775C407.772 21.1578 407.421 20.0141 406.123 20.0141C405.281 20.0141 404.966 20.3 404.37 21.6071Z" fill="#990E0E"/>
<path d="M355.761 23.486C355.13 24.017 355.2 24.0578 356.673 24.0578C358.146 24.0578 358.216 24.017 357.585 23.486C357.199 23.1592 356.778 22.8733 356.673 22.8733C356.568 22.8733 356.147 23.1592 355.761 23.486Z" fill="#990E0E"/>
</g>
<defs>
<clipPath id="clip0_12_17">
<rect width="518" height="29" fill="white"/>
</clipPath>
</defs>
</svg>
