<svg width="50" height="50" viewBox="0 0 50 50" fill="none" xmlns="http://www.w3.org/2000/svg">
<path d="M25 2C12.318 2 2 12.318 2 25C2 37.682 12.318 48 25 48C37.683 48 48 37.682 48 25C48 12.318 37.683 2 25 2ZM34.973 29.535C37.21 31.521 37.675 32.23 37.751 32.351C38.678 33.821 36.723 34 36.723 34H32.603C32.603 34 31.6 34.011 30.743 33.443C29.346 32.528 27.883 30.754 26.855 31.062C25.992 31.32 26 32.486 26 33.483C26 33.84 25.693 34 25 34C24.307 34 24.019 34 23.712 34C21.455 34 19.006 33.24 16.563 30.687C13.107 27.078 10.076 19.808 10.076 19.808C10.076 19.808 9.897 19.442 10.092 19.219C10.313 18.969 10.914 19.001 10.914 19.001L14.909 19C14.909 19 15.285 19.071 15.555 19.261C15.778 19.417 15.902 19.715 15.902 19.715C15.902 19.715 16.573 21.931 17.428 23.344C19.098 26.102 19.875 26.172 20.442 25.875C21.27 25.445 21 22.513 21 22.513C21 22.513 21.037 21.254 20.605 20.693C20.272 20.259 19.635 20.028 19.357 19.992C19.132 19.963 19.508 19.569 19.987 19.344C20.627 19.059 21.498 18.986 23 19C24.169 19.011 24.506 19.081 24.962 19.186C26.341 19.504 26 20.343 26 23.289C26 24.233 25.87 25.56 26.582 26C26.889 26.19 27.941 26.422 29.813 23.382C30.702 21.94 31.409 19.548 31.409 19.548C31.409 19.548 31.555 19.285 31.782 19.155C32.014 19.022 32.007 19.025 32.325 19.025C32.643 19.025 35.832 19 36.532 19C37.231 19 37.887 18.992 38 19.402C38.162 19.991 37.484 22.009 35.766 24.199C32.943 27.793 32.63 27.457 34.973 29.535Z" fill="white"/>
</svg>
